SplineFontDB: 3.2
FontName: Kenig-Sans-Thin
FullName: Kenig Sans Thin
FamilyName: Kenig Sans
Weight: Thin
Copyright: Copyright 2011 Google Inc. All Rights Reserved.
Version: 2.137; 2017
ItalicAngle: 0
UnderlinePosition: -200
UnderlineWidth: 100
Ascent: 1536
Descent: 512
InvalidEm: 0
sfntRevision: 0x00022312
LayerCount: 2
Layer: 0 1 "Warstwa t+AUIA-a" 1
Layer: 1 1 "Plan pierwszy" 0
XUID: [1021 925 798089043 2727]
StyleMap: 0x0040
FSType: 0
OS2Version: 3
OS2_WeightWidthSlopeOnly: 0
OS2_UseTypoMetrics: 0
CreationTime: 1221222574
ModificationTime: 1731272117
PfmFamily: 17
TTFWeight: 400
TTFWidth: 5
LineGap: 0
VLineGap: 0
Panose: 2 0 0 0 0 0 0 0 0 0
OS2TypoAscent: 1536
OS2TypoAOffset: 0
OS2TypoDescent: -512
OS2TypoDOffset: 0
OS2TypoLinegap: 102
OS2WinAscent: 1946
OS2WinAOffset: 0
OS2WinDescent: 512
OS2WinDOffset: 0
HheadAscent: 1900
HheadAOffset: 0
HheadDescent: -500
HheadDOffset: 0
OS2SubXSize: 1434
OS2SubYSize: 1331
OS2SubXOff: 0
OS2SubYOff: 287
OS2SupXSize: 1434
OS2SupYSize: 1331
OS2SupXOff: 0
OS2SupYOff: 977
OS2StrikeYSize: 102
OS2StrikeYPos: 512
OS2CapHeight: 1456
OS2XHeight: 1082
OS2Vendor: 'GOOG'
OS2CodePages: 2000019f.00000000
OS2UnicodeRanges: e00002ff.5000205b.00000020.00000000
Lookup: 1 0 0 "'c2sc' Wersaliki na kapitaliki w tablicy 0" { "Podtablica 'c2sc' Wersaliki na kapitaliki w tablicy 0"  } ['c2sc' ('DFLT' <'dflt' > 'cyrl' <'dflt' > 'grek' <'dflt' > 'latn' <'AZE ' 'CRT ' 'FRA ' 'MOL ' 'NAV ' 'ROM ' 'TRK ' 'dflt' > ) ]
Lookup: 1 0 0 "'smcp' Tekstowe na kapitaliki w tablicy 1" { "Podtablica 'smcp' Tekstowe na kapitaliki w tablicy 1"  } ['smcp' ('DFLT' <'dflt' > 'cyrl' <'dflt' > 'grek' <'dflt' > 'latn' <'AZE ' 'CRT ' 'FRA ' 'MOL ' 'NAV ' 'ROM ' 'TRK ' 'dflt' > ) ]

StartChar: .notdef
Encoding: 65536 -1 0
Width: 908
GlyphClass: 1
Flags: W
LayerCount: 2
Fore
SplineSet
808 0 m 1,0,-1
 100 0 l 1,1,-1
 100 1456 l 1,2,-1
 808 1456 l 1,3,-1
 808 0 l 1,0,-1
754 84 m 1,4,-1
 754 1371 l 1,5,-1
 480 728 l 1,6,-1
 754 84 l 1,4,-1
154 1359 m 1,7,-1
 154 96 l 1,8,-1
 422 728 l 1,9,-1
 154 1359 l 1,7,-1
194 54 m 1,10,-1
 709 54 l 1,11,-1
 451 660 l 1,12,-1
 194 54 l 1,10,-1
451 796 m 1,13,-1
 709 1402 l 1,14,-1
 194 1402 l 1,15,-1
 451 796 l 1,13,-1
EndSplineSet
EndChar

StartChar: exclam
Encoding: 33 33 5
Width: 527
GlyphClass: 1
Flags: W
LayerCount: 2
Fore
SplineSet
204.690965953 436 m 1,0,-1
 322.332642812 436 l 1,1,-1
 335.662786352 1431 l 1,2,-1
 192.312975522 1431 l 1,3,-1
 204.690965953 436 l 1,0,-1
269 174 m 256,4,5
 226.114247984 174 226.114247984 174 205.557123992 151.200280664 c 256,6,7
 185 128.400561327 185 128.400561327 185 93.1194492279 c 256,8,9
 185 57.8383371287 185 57.8383371287 205.433123238 35.9191685643 c 256,10,11
 225.866246476 14 225.866246476 14 269 14 c 256,12,13
 312.267285893 14 312.267285893 14 333.133642946 35.98419761 c 256,14,15
 354 57.96839522 354 57.96839522 354 93.1200586174 c 256,16,17
 354 128.271722015 354 128.271722015 333.009970761 151.135861007 c 256,18,19
 312.019941522 174 312.019941522 174 269 174 c 256,4,5
EndSplineSet
EndChar

StartChar: quotedbl
Encoding: 34 34 6
Width: 655
GlyphClass: 1
Flags: W
LayerCount: 2
Fore
SplineSet
252 1511 m 1,0,-1
 161.949444936 1511 l 1,1,-1
 161.050659511 1067 l 1,2,-1
 224.006118147 1067 l 1,3,-1
 252 1401.06032344 l 1,4,-1
 252 1511 l 1,0,-1
522 1511 m 1,5,-1
 431.949444936 1511 l 1,6,-1
 431.050659511 1067 l 1,7,-1
 494.006118147 1067 l 1,8,-1
 522 1401.06032344 l 1,9,-1
 522 1511 l 1,5,-1
EndSplineSet
EndChar

StartChar: numbersign
Encoding: 35 35 7
Width: 1261
GlyphClass: 1
Flags: W
LayerCount: 2
Fore
SplineSet
795.353445748 435 m 1,0,-1
 715.353445748 25 l 1,1,-1
 808.402651813 25 l 1,2,-1
 888.402651813 435 l 1,3,-1
 1135 435 l 1,4,-1
 1135 522 l 1,5,-1
 904.652714921 522 l 1,6,-1
 983.398477633 926 l 1,7,-1
 1210 926 l 1,8,-1
 1210 1015 l 1,9,-1
 1000.58708783 1015 l 1,10,-1
 1082.58708783 1431 l 1,11,-1
 989.557142939 1431 l 1,12,-1
 907.557142939 1015 l 1,13,-1
 592.58708783 1015 l 1,14,-1
 674.58708783 1431 l 1,15,-1
 582.557142939 1431 l 1,16,-1
 500.557142939 1015 l 1,17,-1
 220 1015 l 1,18,-1
 220 926 l 1,19,-1
 483.347285079 926 l 1,20,-1
 404.601522367 522 l 1,21,-1
 144 522 l 1,22,-1
 144 435 l 1,23,-1
 388.353445748 435 l 1,24,-1
 308.353445748 25 l 1,25,-1
 400.402651813 25 l 1,26,-1
 480.402651813 435 l 1,27,-1
 795.353445748 435 l 1,0,-1
575.398477633 926 m 1,28,-1
 890.347285079 926 l 1,29,-1
 811.601522367 522 l 1,30,-1
 496.652714921 522 l 1,31,-1
 575.398477633 926 l 1,28,-1
EndSplineSet
EndChar

StartChar: dollar
Encoding: 36 36 8
Width: 1050
GlyphClass: 1
Flags: W
LayerCount: 2
Fore
SplineSet
733.518554688 547.8828125 m 0,0,1
 805.555664062 477.521484375 805.555664062 477.521484375 805.555664062 375 c 0,2,3
 805.555664062 254.35546875 805.555664062 254.35546875 722.60546875 184.677734375 c 0,4,5
 646.742077517 115 646.742077517 115 522.710634172 115 c 128,-1,6
 398.678339774 115 398.678339774 115 324.641601562 197.568359375 c 0,7,8
 251.46484375 272.75 251.46484375 272.75 245.145507812 404 c 1,9,-1
 110 404 l 1,10,11
 116.16015625 233.4609375 116.16015625 233.4609375 208.516601562 132.350585938 c 0,12,13
 307.470703125 24.0166015625 307.470703125 24.0166015625 467.392264913 7.8955078125 c 2,14,-1
 487.174964811 5.8203125 l 1,15,-1
 487.174964811 -183 l 1,16,-1
 572.579718533 -183 l 1,17,-1
 572.579718533 5.5400390625 l 1,18,-1
 592.094337104 7.865234375 l 2,19,20
 751.056640625 25.9423828125 751.056640625 25.9423828125 845.805664062 122.091796875 c 128,-1,21
 940.555664062 218.241210938 940.555664062 218.241210938 940.555664062 377 c 0,22,23
 940.555664062 476.9609375 940.555664062 476.9609375 902.852539062 550.505859375 c 128,-1,24
 865.149414062 624.049804688 865.149414062 624.049804688 783.7421875 680.701171875 c 128,-1,25
 702.3359375 737.352539062 702.3359375 737.352539062 567.768722511 787.112304688 c 0,26,27
 434.170605491 836.872070312 434.170605491 836.872070312 372.737428799 901.004882812 c 0,28,29
 300.555664062 968.953125 300.555664062 968.953125 300.555664062 1082 c 0,30,31
 300.555664062 1202.52539062 300.555664062 1202.52539062 369.014077022 1271.26269531 c 0,32,33
 430.378318515 1340 430.378318515 1340 541.541858119 1340 c 128,-1,34
 652.705397723 1340 652.705397723 1340 721.016601562 1247.68554688 c 0,35,36
 787.375 1165.48144531 787.375 1165.48144531 793.030273438 1033 c 1,37,-1
 927.1875 1033 l 1,38,39
 921.864257812 1211.48339844 921.864257812 1211.48339844 839.451171875 1315.4921875 c 0,40,41
 752.211914062 1425.59082031 752.211914062 1425.59082031 607.075402551 1447.23242188 c 2,42,-1
 588.266305951 1450.18652344 l 1,43,-1
 588.266305951 1667 l 1,44,-1
 501.990075151 1667 l 1,45,-1
 501.990075151 1450.81347656 l 1,46,-1
 482.815877314 1448.17871094 l 2,47,48
 343.770507812 1429.28222656 343.770507812 1429.28222656 254.663085938 1331.31054688 c 128,-1,49
 165.555664062 1233.33886719 165.555664062 1233.33886719 165.555664062 1080.59179688 c 128,-1,50
 165.555664062 927.844726562 165.555664062 927.844726562 257.401367188 829.405273438 c 128,-1,51
 349.24609375 730.96484375 349.24609375 730.96484375 530.400738551 667.82421875 c 1,52,53
 668.737512187 614.911132812 668.737512187 614.911132812 733.518554688 547.8828125 c 0,0,1
EndSplineSet
Substitution2: "Podtablica 'c2sc' Wersaliki na kapitaliki w tablicy 0" dollar.c2sc
Position2: "Podtablica 'cpsp' +AVoA-wiat+AUIA-o wersalikowe w tablicy 0" dx=36 dy=0 dh=72 dv=0
EndChar

StartChar: percent
Encoding: 37 37 9
Width: 1400
GlyphClass: 1
Flags: W
LayerCount: 2
Fore
SplineSet
181.33203125 1374.48535156 m 128,-1,1
 105 1296.78222656 105 1296.78222656 105 1176 c 2,2,-1
 105 1106 l 2,3,4
 105 977.479492188 105 977.479492188 182.514648438 901.33203125 c 128,-1,5
 260.217773438 825 260.217773438 825 377.559140588 825 c 0,6,7
 488.978689865 825 488.978689865 825 560.171362601 901.173828125 c 128,-1,8
 631.363122645 977.348632812 631.363122645 977.348632812 631.363122645 1099 c 2,9,-1
 631.363122645 1170 l 2,10,11
 631.363122645 1295.91210938 631.363122645 1295.91210938 560.982745318 1373.95605469 c 128,-1,12
 490.60236799 1452 490.60236799 1452 377.090929864 1452 c 0,13,0
 257.479492188 1452 257.479492188 1452 181.33203125 1374.48535156 c 128,-1,1
243.815429688 953.321289062 m 128,-1,15
 193 1011.64355469 193 1011.64355469 193 1099 c 2,16,-1
 193 1172 l 2,17,18
 193 1263.12597656 193 1263.12597656 242.692382812 1322.06347656 c 128,-1,19
 292.383789062 1381 292.383789062 1381 376.218396819 1381 c 0,20,21
 456.234970687 1381 456.234970687 1381 502.676363447 1322.06347656 c 128,-1,22
 549.118668899 1263.12597656 549.118668899 1263.12597656 549.118668899 1176 c 2,23,-1
 549.118668899 1103 l 2,24,25
 549.118668899 1008.51074219 549.118668899 1008.51074219 502.029265195 951.755859375 c 128,-1,26
 454.939861491 895 454.939861491 895 376.619981066 895 c 0,27,14
 294.629882812 895 294.629882812 895 243.815429688 953.321289062 c 128,-1,15
854.993524704 554.931640625 m 128,-1,29
 783.702281289 477.73828125 783.702281289 477.73828125 783.702281289 357 c 2,30,-1
 783.702281289 285 l 2,31,32
 783.702281289 156.479492188 783.702281289 156.479492188 856.147166722 80.33203125 c 128,-1,33
 928.768201608 4 928.768201608 4 1040.61489049 4 c 0,34,35
 1158.56445312 4 1158.56445312 4 1234.71972656 81.068359375 c 128,-1,36
 1311 158.26171875 1311 158.26171875 1311 279 c 2,37,-1
 1311 350 l 2,38,39
 1311 478.651367188 1311 478.651367188 1234.32617188 555.326171875 c 128,-1,40
 1157.65136719 632 1157.65136719 632 1038.84700712 632 c 0,41,28
 926.16794361 632 926.16794361 632 854.993524704 554.931640625 c 128,-1,29
913.438635678 132.321289062 m 128,-1,43
 865.946735036 190.643554688 865.946735036 190.643554688 865.946735036 279 c 2,44,-1
 865.946735036 353 l 2,45,46
 865.946735036 446.578125 865.946735036 446.578125 914.014543996 503.7890625 c 128,-1,47
 962.083265647 561 962.083265647 561 1039.89568961 561 c 0,48,49
 1121.38085938 561 1121.38085938 561 1171.69042969 503.172851562 c 128,-1,50
 1222 445.345703125 1222 445.345703125 1222 357 c 2,51,-1
 1222 283 l 2,52,53
 1222 188.6640625 1222 188.6640625 1172.19628906 131.33203125 c 128,-1,54
 1122.39257812 74 1122.39257812 74 1039.79164279 74 c 0,55,42
 960.929623629 74 960.929623629 74 913.438635678 132.321289062 c 128,-1,43
991.106854394 1279.49414062 m 1,56,-1
 351.369458856 183.897460938 l 1,57,-1
 409.939608562 144.505859375 l 1,58,-1
 1049.6770041 1240.10253906 l 1,59,-1
 991.106854394 1279.49414062 l 1,56,-1
EndSplineSet
EndChar

StartChar: ampersand
Encoding: 38 38 10
Width: 1273
GlyphClass: 1
Flags: W
LayerCount: 2
Fore
SplineSet
126 391 m 0,0,1
 126 217.329968792 126 217.329968792 247.197194576 111.164984396 c 256,2,3
 368.394389151 5 368.394389151 5 572 5 c 0,4,5
 670.774372305 5 670.774372305 5 765.941831642 37.9977622826 c 256,6,7
 861.109290979 70.9955245652 861.109290979 70.9955245652 931.370687688 133.661094603 c 2,8,-1
 950.5394194 150.757530995 l 1,9,-1
 1056.61316294 25 l 1,10,-1
 1213.54701063 25 l 1,11,-1
 1027.27720925 247.986444912 l 1,12,-1
 1038.81574907 263.746401737 l 2,13,14
 1150.98756479 416.956686613 1150.98756479 416.956686613 1156.69281445 647 c 1,15,-1
 1039.58670004 647 l 1,16,17
 1034.57721293 496.485749731 1034.57721293 496.485749731 969.167635711 371.438028578 c 2,18,-1
 951.830042104 338.292629036 l 1,19,-1
 586.777134157 774.328046861 l 1,20,-1
 715.172502441 869.124627183 l 2,21,22
 822.10632507 948.120784441 822.10632507 948.120784441 863.553162535 1017.50931008 c 256,23,24
 905 1086.89783573 905 1086.89783573 905 1168 c 0,25,26
 905 1289.81272882 905 1289.81272882 814.735128138 1370.40636441 c 256,27,28
 724.470256275 1451 724.470256275 1451 584 1451 c 0,29,30
 426.04456366 1451 426.04456366 1451 335.52228183 1364.17250518 c 256,31,32
 245 1277.34501037 245 1277.34501037 245 1122 c 0,33,34
 245 1056.46365364 245 1056.46365364 276.19409189 988.403816786 c 256,35,36
 307.38818378 920.343979936 307.38818378 920.343979936 402.320484762 804.859325133 c 2,37,-1
 419.356172708 784.135498559 l 1,38,-1
 397.437379539 768.593081584 l 2,39,40
 236.248857019 654.295765615 236.248857019 654.295765615 181.12442851 571.37354837 c 256,41,42
 126 488.451331125 126 488.451331125 126 391 c 0,0,1
572 106 m 0,43,44
 429.193372953 106 429.193372953 106 345.096686477 184.050519475 c 256,45,46
 261 262.10103895 261 262.10103895 261 391 c 0,47,48
 261 533.63175978 261 533.63175978 438.317702176 664.231025472 c 1,0,0
 438.317702176 664.231025472 438.317702176 664.231025472 490.199437583 701.963199941 c 1,1,-1
 875.474766519 240.718087834 l 1,2,-1
 857.897622242 224.581693088 l 2,3,4
 728.728277985 106 728.728277985 106 572 106 c 0,43,44
380 1128 m 0,5,6
 380 1222.30443152 380 1222.30443152 434.787272855 1285.65221576 c 256,7,8
 489.57454571 1349 489.57454571 1349 583 1349 c 0,9,10
 668.506967759 1349 668.506967759 1349 726.25348388 1297.60560065 c 256,11,12
 784 1246.21120131 784 1246.21120131 784 1168 c 0,13,14
 784 1099.32692091 784 1099.32692091 755.964610565 1050.54534329 c 256,15,16
 727.929221129 1001.76376567 727.929221129 1001.76376567 655.359410774 950.538017187 c 2,17,-1
 566.867002761 888.29336677 l 1,18,-1
 537.359410774 867.538017187 l 1,19,-1
 518.386736958 854.192831367 l 1,20,-1
 503.654823884 872.170759186 l 2,21,22
 380 1023.07156121 380 1023.07156121 380 1128 c 0,5,6
EndSplineSet
Substitution2: "Podtablica 'smcp' Tekstowe na kapitaliki w tablicy 1" ampersand.c2sc
Substitution2: "Podtablica 'c2sc' Wersaliki na kapitaliki w tablicy 0" ampersand.c2sc
Position2: "Podtablica 'cpsp' +AVoA-wiat+AUIA-o wersalikowe w tablicy 0" dx=36 dy=0 dh=72 dv=0
EndChar

StartChar: quotesingle
Encoding: 39 39 11
Width: 357
GlyphClass: 1
Flags: W
LayerCount: 2
Fore
SplineSet
228 1511 m 1,0,-1
 128.947863478 1511 l 1,1,-1
 128.052247612 1082 l 1,2,-1
 208.38531937 1082 l 1,3,-1
 228 1425.72392723 l 1,4,-1
 228 1511 l 1,0,-1
EndSplineSet
EndChar

StartChar: parenleft
Encoding: 40 40 12
Width: 700
GlyphClass: 1
Flags: W
LayerCount: 2
Fore
SplineSet
158 591 m 0,0,1
 158 125.822443363 158 125.822443363 389.551511962 -207.768717939 c 0,2,3
 495.173689576 -359.655155169 495.173689576 -359.655155169 609.187989372 -432.624415418 c 1,4,-1
 631.88515198 -365.130221344 l 1,5,6
 519.192531536 -267.291630855 519.192531536 -267.291630855 436.624741671 -102.156051125 c 0,7,8
 292.99647065 187.130704191 292.99647065 187.130704191 292.99647065 579.000041595 c 1,9,-1
 294.004723963 664.550917145 l 1,10,11
 303.153958345 954.276672583 303.153958345 954.276672583 398.329925748 1188.39941987 c 0,12,13
 489.989085998 1413.87115096 489.989085998 1413.87115096 632.026658833 1529.93672862 c 1,14,-1
 608.488297254 1605.5072579 l 1,15,16
 498.499295931 1536.02672246 498.499295931 1536.02672246 394.437909691 1388.60642528 c 0,17,18
 276.847430593 1222.01991323 276.847430593 1222.01991323 217.423715296 1017.72019783 c 256,19,20
 158 813.42048243 158 813.42048243 158 591 c 0,0,1
EndSplineSet
EndChar

StartChar: parenright
Encoding: 41 41 13
Width: 712
GlyphClass: 1
Flags: W
LayerCount: 2
Fore
SplineSet
308.971794051 -209.735199735 m 0,0,1
 427.097766944 -40.1435540044 427.097766944 -40.1435540044 484.548883472 160.689836251 c 256,2,3
 542 361.523226506 542 361.523226506 542 586.983748623 c 256,4,5
 542 812.44427074 542 812.44427074 483.560975445 1014.7709776 c 256,6,7
 425.121950889 1217.09768447 425.121950889 1217.09768447 307.993987727 1384.70338908 c 0,8,9
 203.701906476 1533.94143003 203.701906476 1533.94143003 90.6254909249 1605.83574279 c 1,10,-1
 67.229735654 1538.04804162 l 1,11,12
 160.941446714 1456.51951294 160.941446714 1456.51951294 236.430743924 1319.0039779 c 0,13,14
 316.513406942 1173.12091023 316.513406942 1173.12091023 361.256703471 989.571705152 c 256,15,16
 406 806.022500073 406 806.022500073 406 593 c 2,17,-1
 406 561 l 1,18,19
 403.969362159 253.358367086 403.969362159 253.358367086 308.907482619 0.707275473295 c 0,20,21
 217.197719878 -243.034714272 217.197719878 -243.034714272 67.4152913395 -365.585677325 c 1,22,-1
 90.6212708002 -432.82351525 l 1,23,24
 203.787865258 -360.746151446 203.787865258 -360.746151446 308.971794051 -209.735199735 c 0,0,1
EndSplineSet
EndChar

StartChar: asterisk
Encoding: 42 42 14
Width: 882
GlyphClass: 1
Flags: W
LayerCount: 2
Fore
SplineSet
371.02203661 996.866540391 m 1,0,-1
 163.92493084 712.494395154 l 1,1,-1
 247.260864151 651.825835704 l 1,2,-1
 433.913897886 943.211960591 l 1,3,-1
 626.378320836 645.202531508 l 1,4,-1
 709.327543681 708.083393987 l 1,5,-1
 504.889878983 987.894541123 l 1,6,-1
 821.782762627 1081.8269594 l 1,7,-1
 790.764401147 1184.32241473 l 1,8,-1
 483.949074667 1070.68710862 l 1,9,-1
 494.273226283 1431 l 1,10,-1
 392.662776692 1431 l 1,11,-1
 401.958300503 1075.70442323 l 1,12,-1
 90.1864914527 1191.32840539 l 1,13,-1
 59.2507616535 1089.77850975 l 1,14,-1
 371.02203661 996.866540391 l 1,0,-1
EndSplineSet
EndChar

StartChar: plus
Encoding: 43 43 15
Width: 1161
GlyphClass: 1
Flags: W
LayerCount: 2
Fore
SplineSet
645 756 m 1,0,-1
 645 1181 l 1,1,-1
 509 1181 l 1,2,-1
 509 756 l 1,3,-1
 103 756 l 1,4,-1
 103 631 l 1,5,-1
 509 631 l 1,6,-1
 509 171 l 1,7,-1
 645 171 l 1,8,-1
 645 631 l 1,9,-1
 1051 631 l 1,10,-1
 1051 756 l 1,11,-1
 645 756 l 1,0,-1
EndSplineSet
EndChar

StartChar: comma
Encoding: 44 44 16
Width: 402
GlyphClass: 1
Flags: W
LayerCount: 2
Fore
SplineSet
283 74 m 2,0,-1
 283 194 l 1,1,-1
 152 194 l 1,2,-1
 152 52 l 2,3,4
 152 51.4514805748 152 51.4514805748 151.989493669 51.2689330744 c 0,5,6
 148.0943404 -84.0876430149 148.0943404 -84.0876430149 63.8007815466 -211.552794749 c 1,7,-1
 132.332164722 -258.545743212 l 1,8,9
 193.710684889 -203.383971785 193.710684889 -203.383971785 236.036852023 -117.021489349 c 0,10,11
 283 -21.1976924665 283 -21.1976924665 283 74 c 2,0,-1
EndSplineSet
EndChar

StartChar: hyphen
Encoding: 45 45 17
Width: 565
GlyphClass: 1
Flags: W
LayerCount: 2
Fore
SplineSet
62 568 m 1,0,-1
 500 568 l 1,1,-1
 500 669 l 1,2,-1
 62 669 l 1,3,-1
 62 568 l 1,0,-1
EndSplineSet
EndChar

StartChar: period
Encoding: 46 46 18
Width: 539
GlyphClass: 1
Flags: W
LayerCount: 2
Fore
SplineSet
169 98.1133214665 m 256,0,1
 169 60.7385972168 169 60.7385972168 190.484677753 37.3692986084 c 256,2,3
 211.969355506 14 211.969355506 14 258.127897009 14 c 256,4,5
 304.286438512 14 304.286438512 14 326.643219256 37.4935662053 c 256,6,7
 349 60.9871324106 349 60.9871324106 349 98.1144467075 c 256,8,9
 349 135.241761004 349 135.241761004 326.525499213 159.620880502 c 256,10,11
 304.050998426 184 304.050998426 184 258.128478855 184 c 256,12,13
 212.205959284 184 212.205959284 184 190.602979642 159.744022858 c 256,14,15
 169 135.488045716 169 135.488045716 169 98.1133214665 c 256,0,1
EndSplineSet
EndChar

StartChar: slash
Encoding: 47 47 19
Width: 844
GlyphClass: 1
Flags: W
LayerCount: 2
Fore
SplineSet
54.4037406808 -100 m 1,0,-1
 159.814446999 -100 l 1,1,-1
 747.617736056 1431 l 1,2,-1
 643.175404185 1431 l 1,3,-1
 54.4037406808 -100 l 1,0,-1
EndSplineSet
Substitution2: "Podtablica 'frac' U+AUIA-amki uko+AVsA-ne w tablicy 22" fraction
EndChar

StartChar: zero
Encoding: 48 48 20
Width: 1050
GlyphClass: 1
Flags: W
LayerCount: 2
Fore
SplineSet
115 596.166992188 m 1,0,1
 118.924804688 297.20703125 118.924804688 297.20703125 226.25390625 149.150390625 c 0,2,3
 330.751953125 5 330.751953125 5 527.000962799 5 c 0,4,5
 724.013671875 5 724.013671875 5 827.529296875 152.34765625 c 0,6,7
 934 303.899414062 934 303.899414062 934 621 c 2,8,-1
 934 860.877929688 l 1,9,10
 931.056640625 1166.70605469 931.056640625 1166.70605469 824.868164062 1310.68261719 c 0,11,12
 721.377929688 1451 721.377929688 1451 523.315600951 1451 c 0,13,14
 324.891601562 1451 324.891601562 1451 221.3828125 1305.52929688 c 0,15,16
 115 1156.01757812 115 1156.01757812 115 843 c 2,17,-1
 115 596.166992188 l 1,0,1
729.321289062 1229.55371094 m 0,18,19
 799 1116.06152344 799 1116.06152344 799 874 c 2,20,-1
 799 570.665039062 l 1,21,22
 795.908203125 335.658203125 795.908203125 335.658203125 725.693359375 223.740234375 c 0,23,24
 656.650298215 106 656.650298215 106 525.801313977 106 c 0,25,26
 467.409932521 106 467.409932521 106 421.576739268 130.534179688 c 0,27,28
 363.701308472 161.515625 363.701308472 161.515625 322.130859375 230.525390625 c 0,29,30
 250 348.98828125 250 348.98828125 250 592 c 2,31,-1
 250 888.229492188 l 1,32,33
 252.061523438 1117.1015625 252.061523438 1117.1015625 320.6171875 1229.953125 c 0,34,35
 388.673659242 1349 388.673659242 1349 524.066228674 1349 c 0,36,37
 660.258563988 1349 660.258563988 1349 729.321289062 1229.55371094 c 0,18,19
EndSplineSet
Substitution2: "Podtablica 'numr' Cyfry frakcji g+APMA-rnej (licznika) w tablicy 25" zero.numr
Substitution2: "Podtablica 'dnom' Cyfry frakcji dolnej (mianownika) w tablicy 24" zero.dnom
Substitution2: "Podtablica 'pnum' Cyfry proporcjonalnej szeroko+AVsA-ci w tablicy 19" zero.pnum
Substitution2: "Podtablica 'onum' Cyfry nautyczne w tablicy 18" zero.oldstyle
Substitution2: "Podtablica 'c2sc' Wersaliki na kapitaliki w tablicy 0" zero.c2sc
Position2: "Podtablica 'cpsp' +AVoA-wiat+AUIA-o wersalikowe w tablicy 0" dx=36 dy=0 dh=72 dv=0
EndChar

StartChar: one
Encoding: 49 49 21
Width: 1100
GlyphClass: 1
Flags: W
LayerCount: 2
Fore
SplineSet
543 1268.8203125 m 1,0,-1
 543 25 l 1,1,-1
 679 25 l 1,2,-1
 679 1437.79296875 l 1,3,-1
 170 1246.67773438 l 1,4,-1
 170 1131.8203125 l 1,5,-1
 543 1268.8203125 l 1,0,-1
EndSplineSet
Substitution2: "Podtablica 'numr' Cyfry frakcji g+APMA-rnej (licznika) w tablicy 25" uni00B9
Substitution2: "Podtablica 'dnom' Cyfry frakcji dolnej (mianownika) w tablicy 24" one.dnom
Substitution2: "Podtablica 'pnum' Cyfry proporcjonalnej szeroko+AVsA-ci w tablicy 19" one.pnum
Substitution2: "Podtablica 'onum' Cyfry nautyczne w tablicy 18" one.oldstyle
Substitution2: "Podtablica 'c2sc' Wersaliki na kapitaliki w tablicy 0" one.c2sc
Position2: "Podtablica 'cpsp' +AVoA-wiat+AUIA-o wersalikowe w tablicy 0" dx=36 dy=0 dh=72 dv=0
EndChar

StartChar: two
Encoding: 50 50 22
Width: 1050
GlyphClass: 1
Flags: W
LayerCount: 2
Fore
SplineSet
120.470703125 123.413085938 m 1,0,-1
 120.470703125 25 l 1,1,-1
 974.470703125 25 l 1,2,-1
 974.470703125 126 l 1,3,-1
 261.423828125 126 l 1,4,-1
 650.160658789 590.9375 l 2,5,6
 907.470703125 880.763671875 907.470703125 880.763671875 907.470703125 1086 c 0,7,8
 907.470703125 1251.89355469 907.470703125 1251.89355469 797.16796875 1351.44628906 c 0,9,10
 691.620068522 1451 691.620068522 1451 520.205516631 1451 c 0,11,12
 336.502929688 1451 336.502929688 1451 214.254882812 1333.94335938 c 0,13,14
 100.423828125 1224.94726562 100.423828125 1224.94726562 93 1052 c 1,15,-1
 228.080078125 1052 l 1,16,17
 234.65234375 1184.52929688 234.65234375 1184.52929688 311.068359375 1262.94335938 c 0,18,19
 388.548649985 1349 388.548649985 1349 520.205516631 1349 c 0,20,21
 631.676260801 1349 631.676260801 1349 699.143664276 1268.46875 c 0,22,23
 771.470703125 1187.93847656 771.470703125 1187.93847656 771.470703125 1064 c 0,24,25
 771.470703125 972.734375 771.470703125 972.734375 727.030825802 889.201171875 c 0,26,27
 687.449718276 805.668945312 687.449718276 805.668945312 586.464574539 676.4765625 c 1,28,-1
 120.470703125 123.413085938 l 1,0,-1
EndSplineSet
Substitution2: "Podtablica 'numr' Cyfry frakcji g+APMA-rnej (licznika) w tablicy 25" uni00B2
Substitution2: "Podtablica 'dnom' Cyfry frakcji dolnej (mianownika) w tablicy 24" two.dnom
Substitution2: "Podtablica 'pnum' Cyfry proporcjonalnej szeroko+AVsA-ci w tablicy 19" two.pnum
Substitution2: "Podtablica 'onum' Cyfry nautyczne w tablicy 18" two.oldstyle
Substitution2: "Podtablica 'c2sc' Wersaliki na kapitaliki w tablicy 0" two.c2sc
Position2: "Podtablica 'cpsp' +AVoA-wiat+AUIA-o wersalikowe w tablicy 0" dx=36 dy=0 dh=72 dv=0
EndChar

StartChar: three
Encoding: 51 51 23
Width: 1050
GlyphClass: 1
Flags: W
LayerCount: 2
Fore
SplineSet
320.565429688 1273.55175781 m 0,0,1
 391.498904914 1349 391.498904914 1349 504.462512065 1349 c 0,2,3
 637.989250511 1349 637.989250511 1349 703.544921875 1260.54980469 c 0,4,5
 759.354492188 1190.51464844 759.354492188 1190.51464844 759.354492188 1066.66601562 c 128,-1,6
 759.354492188 942.81640625 759.354492188 942.81640625 676.702148438 868.98046875 c 0,7,8
 604.099404851 795.145507812 604.099404851 795.145507812 482.213711318 793.002929688 c 1,9,-1
 382.843200116 793.002929688 l 1,10,-1
 382.843200116 692 l 1,11,-1
 482.176383962 692 l 1,12,13
 617.834175083 689.875 617.834175083 689.875 695.607421875 615.120117188 c 0,14,15
 781.354492188 540.365234375 781.354492188 540.365234375 781.354492188 400.45703125 c 128,-1,16
 781.354492188 260.547851562 781.354492188 260.547851562 702.901367188 183.200195312 c 0,17,18
 630.637458118 106 630.637458118 106 505.331221436 106 c 0,19,20
 387.409014408 106 387.409014408 106 312.436523438 181.599609375 c 0,21,22
 238.008789062 250.073242188 238.008789062 250.073242188 230.231445312 359 c 1,23,-1
 94 359 l 1,24,25
 102.040039062 205.931640625 102.040039062 205.931640625 213.18359375 109.924804688 c 0,26,27
 334.650390625 5 334.650390625 5 505.20990753 5 c 128,-1,28
 675.780273438 5 675.780273438 5 796.067382812 113.0703125 c 128,-1,29
 916.354492188 221.140625 916.354492188 221.140625 916.354492188 406 c 0,30,31
 916.354492188 524.72265625 916.354492188 524.72265625 855.787109375 606.094726562 c 128,-1,32
 795.125976562 687.59375 795.125976562 687.59375 682.80859375 723.161132812 c 2,33,-1
 624.483534507 743.836914062 l 1,34,-1
 680.786132812 770.100585938 l 2,35,36
 779.979492188 811.275390625 779.979492188 811.275390625 837.166992188 894.034179688 c 128,-1,37
 894.354492188 976.793945312 894.354492188 976.793945312 894.354492188 1064 c 0,38,39
 894.354492188 1247.12890625 894.354492188 1247.12890625 784.9375 1349.06445312 c 128,-1,40
 675.520507812 1451 675.520507812 1451 504.462512065 1451 c 0,41,42
 343.427209102 1451 343.427209102 1451 224.62109375 1342.96191406 c 0,43,44
 115.37890625 1244.08398438 115.37890625 1244.08398438 107.060546875 1099 c 1,45,-1
 242.219726562 1099 l 1,46,47
 249.741210938 1205.69921875 249.741210938 1205.69921875 320.565429688 1273.55175781 c 0,0,1
EndSplineSet
Substitution2: "Podtablica 'numr' Cyfry frakcji g+APMA-rnej (licznika) w tablicy 25" uni00B3
Substitution2: "Podtablica 'dnom' Cyfry frakcji dolnej (mianownika) w tablicy 24" three.dnom
Substitution2: "Podtablica 'pnum' Cyfry proporcjonalnej szeroko+AVsA-ci w tablicy 19" three.pnum
Substitution2: "Podtablica 'onum' Cyfry nautyczne w tablicy 18" three.oldstyle
Substitution2: "Podtablica 'c2sc' Wersaliki na kapitaliki w tablicy 0" three.c2sc
Position2: "Podtablica 'cpsp' +AVoA-wiat+AUIA-o wersalikowe w tablicy 0" dx=36 dy=0 dh=72 dv=0
EndChar

StartChar: four
Encoding: 52 52 24
Width: 1050
GlyphClass: 1
Flags: W
LayerCount: 2
Fore
SplineSet
1004 464 m 1,0,-1
 802 464 l 1,1,-1
 802 1431 l 1,2,-1
 654.859141919 1431 l 1,3,-1
 53 439.627929688 l 1,4,-1
 53 363 l 1,5,-1
 675.052367119 363 l 1,6,-1
 675.052367119 25 l 1,7,-1
 802 25 l 1,8,-1
 802 363 l 1,9,-1
 1004 363 l 1,10,-1
 1004 464 l 1,0,-1
613.254651112 1175.74511719 m 1,11,-1
 675.052367119 1300.33300781 l 1,12,-1
 675.052367119 464 l 1,13,-1
 192.33984375 464 l 1,14,-1
 613.254651112 1175.74511719 l 1,11,-1
EndSplineSet
Substitution2: "Podtablica 'numr' Cyfry frakcji g+APMA-rnej (licznika) w tablicy 25" four.numr
Substitution2: "Podtablica 'dnom' Cyfry frakcji dolnej (mianownika) w tablicy 24" four.dnom
Substitution2: "Podtablica 'pnum' Cyfry proporcjonalnej szeroko+AVsA-ci w tablicy 19" four.pnum
Substitution2: "Podtablica 'onum' Cyfry nautyczne w tablicy 18" four.oldstyle
Substitution2: "Podtablica 'c2sc' Wersaliki na kapitaliki w tablicy 0" four.c2sc
Position2: "Podtablica 'cpsp' +AVoA-wiat+AUIA-o wersalikowe w tablicy 0" dx=36 dy=0 dh=72 dv=0
EndChar

StartChar: five
Encoding: 53 53 25
Width: 1050
GlyphClass: 1
Flags: W
LayerCount: 2
Fore
SplineSet
359.522460938 751.610351562 m 1,0,1
 430.71066201 810 430.71066201 810 542.723597003 810 c 0,2,3
 666.549020174 810 666.549020174 810 744.59765625 713.786132812 c 0,4,5
 831.026367188 617.573242188 831.026367188 617.573242188 831.026367188 462 c 0,6,7
 831.026367188 297.939453125 831.026367188 297.939453125 750.870117188 201.969726562 c 0,8,9
 677.40099923 106 677.40099923 106 555.699340292 106 c 0,10,11
 445.455364052 106 445.455364052 106 373.501953125 175.74609375 c 0,12,13
 301.048828125 239.645507812 301.048828125 239.645507812 279.666992188 358 c 1,14,-1
 154 358 l 1,15,16
 175.759765625 198.538085938 175.759765625 198.538085938 281.499023438 105.799804688 c 0,17,18
 396.4296875 5 396.4296875 5 555.699340292 5 c 0,19,20
 737.208007812 5 737.208007812 5 851.6171875 126.942382812 c 128,-1,21
 966.026367188 248.884765625 966.026367188 248.884765625 966.026367188 463.690429688 c 128,-1,22
 966.026367188 678.495117188 966.026367188 678.495117188 855.919921875 802.248046875 c 128,-1,23
 745.813476562 926 745.813476562 926 579.920727766 926 c 0,24,25
 468.167983459 926 468.167983459 926 377.68359375 866.440429688 c 2,26,-1
 334.67578125 841.118164062 l 1,27,-1
 386.642578125 1310 l 1,28,-1
 923.026367188 1310 l 1,29,-1
 923.026367188 1431 l 1,30,-1
 274.609375 1431 l 1,31,-1
 205.081054688 748.869140625 l 1,32,-1
 320.014648438 719.359375 l 1,33,-1
 359.522460938 751.610351562 l 1,0,1
EndSplineSet
Substitution2: "Podtablica 'numr' Cyfry frakcji g+APMA-rnej (licznika) w tablicy 25" five.numr
Substitution2: "Podtablica 'dnom' Cyfry frakcji dolnej (mianownika) w tablicy 24" five.dnom
Substitution2: "Podtablica 'pnum' Cyfry proporcjonalnej szeroko+AVsA-ci w tablicy 19" five.pnum
Substitution2: "Podtablica 'onum' Cyfry nautyczne w tablicy 18" five.oldstyle
Substitution2: "Podtablica 'c2sc' Wersaliki na kapitaliki w tablicy 0" five.c2sc
Position2: "Podtablica 'cpsp' +AVoA-wiat+AUIA-o wersalikowe w tablicy 0" dx=36 dy=0 dh=72 dv=0
EndChar

StartChar: six
Encoding: 54 54 26
Width: 1050
GlyphClass: 1
Flags: W
LayerCount: 2
Fore
SplineSet
738 1324.99609375 m 1,0,-1
 747 1324.99609375 l 1,1,-1
 747 1432 l 1,2,-1
 739.188476562 1432 l 1,3,4
 450.906024179 1427.11816406 450.906024179 1427.11816406 297.963867188 1223.81640625 c 0,5,6
 132 1018.17675781 132 1018.17675781 132 625 c 2,7,-1
 132 554 l 2,8,9
 132 309.848632812 132 309.848632812 255.458984375 157.423828125 c 128,-1,10
 378.764992536 5 378.764992536 5 548.878727079 5 c 0,11,12
 720.93359375 5 720.93359375 5 836.466796875 132.322265625 c 128,-1,13
 952 259.64453125 952 259.64453125 952 475 c 0,14,15
 952 677.841796875 952 677.841796875 845.208984375 803.920898438 c 128,-1,16
 738.41796875 930 738.41796875 930 579.319382794 930 c 0,17,18
 416.477639175 930 416.477639175 930 314.854492188 806.590820312 c 2,19,-1
 264.28125 748.541015625 l 1,20,-1
 271.098632812 825.23828125 l 2,21,22
 291.919921875 1059.47265625 291.919921875 1059.47265625 420.326370036 1190.14355469 c 0,23,24
 537.391863094 1320.81347656 537.391863094 1320.81347656 737.529296875 1324.99609375 c 1,25,-1
 738 1324.99609375 l 1,0,-1
387.963467769 764.374023438 m 0,26,27
 463.029399258 826 463.029399258 826 552.414711477 826 c 0,28,29
 667.119773915 826 667.119773915 826 741.186523438 723.903320312 c 0,30,31
 819 624.624023438 819 624.624023438 819 466.528320312 c 128,-1,32
 819 308.43359375 819 308.43359375 742.25 209.677734375 c 0,33,34
 668.910650001 108 668.910650001 108 549.811033608 108 c 0,35,36
 433.831253881 108 433.831253881 108 353.856445312 228.198242188 c 0,37,38
 268 344.79296875 268 344.79296875 268 533 c 2,39,-1
 268 605.381835938 l 1,40,-1
 269.473632812 609.46875 l 2,41,42
 303.122070312 702.818359375 303.122070312 702.818359375 387.963467769 764.374023438 c 0,26,27
EndSplineSet
Substitution2: "Podtablica 'numr' Cyfry frakcji g+APMA-rnej (licznika) w tablicy 25" six.numr
Substitution2: "Podtablica 'dnom' Cyfry frakcji dolnej (mianownika) w tablicy 24" six.dnom
Substitution2: "Podtablica 'lnum' Cyfry zwyk+AUIA-e w tablicy 21" six.pnum
Substitution2: "Podtablica 'tnum' Cyfry tabelaryczne w tablicy 20" six.oldstyle
Substitution2: "Podtablica 'pnum' Cyfry proporcjonalnej szeroko+AVsA-ci w tablicy 19" six.pnum
Substitution2: "Podtablica 'onum' Cyfry nautyczne w tablicy 18" six.oldstyle
Substitution2: "Podtablica 'c2sc' Wersaliki na kapitaliki w tablicy 0" six.c2sc
Position2: "Podtablica 'cpsp' +AVoA-wiat+AUIA-o wersalikowe w tablicy 0" dx=36 dy=0 dh=72 dv=0
EndChar

StartChar: seven
Encoding: 55 55 27
Width: 1050
GlyphClass: 1
Flags: W
LayerCount: 2
Fore
SplineSet
961 1357.33007812 m 1,0,-1
 961 1431 l 1,1,-1
 77 1431 l 1,2,-1
 77 1329 l 1,3,-1
 829.052734375 1329 l 1,4,-1
 278.052734375 25 l 1,5,-1
 406.149103844 25 l 1,6,-1
 961 1357.33007812 l 1,0,-1
EndSplineSet
Substitution2: "Podtablica 'numr' Cyfry frakcji g+APMA-rnej (licznika) w tablicy 25" seven.numr
Substitution2: "Podtablica 'dnom' Cyfry frakcji dolnej (mianownika) w tablicy 24" seven.dnom
Substitution2: "Podtablica 'pnum' Cyfry proporcjonalnej szeroko+AVsA-ci w tablicy 19" seven.pnum
Substitution2: "Podtablica 'onum' Cyfry nautyczne w tablicy 18" seven.oldstyle
Substitution2: "Podtablica 'c2sc' Wersaliki na kapitaliki w tablicy 0" seven.c2sc
Position2: "Podtablica 'cpsp' +AVoA-wiat+AUIA-o wersalikowe w tablicy 0" dx=36 dy=0 dh=72 dv=0
EndChar

StartChar: eight
Encoding: 56 56 28
Width: 1050
GlyphClass: 1
Flags: W
LayerCount: 2
Fore
SplineSet
850.514648438 895.59375 m 128,-1,1
 904 974.658203125 904 974.658203125 904 1076 c 0,2,3
 904 1248.96582031 904 1248.96582031 793.162109375 1349.98339844 c 0,4,5
 683.612874654 1451 683.612874654 1451 524.577766358 1451 c 128,-1,6
 365.543507627 1451 365.543507627 1451 256.353515625 1349.99902344 c 0,7,8
 146 1248.99707031 146 1248.99707031 146 1076 c 0,9,10
 146 975.4921875 146 975.4921875 198.07421875 896.451171875 c 128,-1,11
 250.1484375 817.41015625 250.1484375 817.41015625 341.063476562 772.420898438 c 2,12,-1
 385.460701792 748.40234375 l 1,13,-1
 339.854492188 727.01953125 l 2,14,15
 232.57421875 680.908203125 232.57421875 680.908203125 172.287109375 592.11328125 c 128,-1,16
 112 503.318359375 112 503.318359375 112 393 c 0,17,18
 112 216.216796875 112 216.216796875 230.750976562 110.608398438 c 128,-1,19
 349.501953125 5 349.501953125 5 524.168276186 5 c 0,20,21
 698.5859375 5 698.5859375 5 818.29296875 110.154296875 c 128,-1,22
 938 215.30859375 938 215.30859375 938 393 c 0,23,24
 938 504.0546875 938 504.0546875 875.833007812 591.9296875 c 128,-1,25
 813.666015625 679.805664062 813.666015625 679.805664062 706.145507812 726.01953125 c 2,26,-1
 660.827550157 747.517578125 l 1,27,-1
 705.02734375 771.465820312 l 2,28,0
 797.029296875 816.528320312 797.029296875 816.528320312 850.514648438 895.59375 c 128,-1,1
523.260091552 698 m 128,-1,30
 640.965577696 698 640.965577696 698 718.116210938 613.731445312 c 0,31,32
 803 529.395507812 803 529.395507812 803 396.397460938 c 128,-1,33
 803 263.399414062 803 263.399414062 721.548828125 184.69921875 c 0,34,35
 646.878547811 106 646.878547811 106 524.565872453 106 c 128,-1,36
 402.253197094 106 402.253197094 106 327.952148438 184.198242188 c 0,37,38
 247 262.397460938 247 262.397460938 247 396.848632812 c 128,-1,39
 247 531.299804688 247 531.299804688 329.767578125 614.615234375 c 0,40,29
 405.471348071 698 405.471348071 698 523.260091552 698 c 128,-1,30
281 1073 m 0,41,42
 281 1199.34863281 281 1199.34863281 355.826171875 1274.17382812 c 0,43,44
 421.17215277 1349 421.17215277 1349 523.740945156 1349 c 128,-1,45
 626.309737543 1349 626.309737543 1349 692.801757812 1271.54589844 c 0,46,47
 769 1194.24316406 769 1194.24316406 769 1073 c 128,-1,48
 769 951.868164062 769 951.868164062 695.283203125 875.93359375 c 0,49,50
 630.7572086 800 630.7572086 800 525 800 c 128,-1,51
 419.2427914 800 419.2427914 800 354.716796875 875.93359375 c 0,52,53
 281 951.868164062 281 951.868164062 281 1073 c 0,41,42
EndSplineSet
Substitution2: "Podtablica 'numr' Cyfry frakcji g+APMA-rnej (licznika) w tablicy 25" eight.numr
Substitution2: "Podtablica 'dnom' Cyfry frakcji dolnej (mianownika) w tablicy 24" eight.dnom
Substitution2: "Podtablica 'lnum' Cyfry zwyk+AUIA-e w tablicy 21" eight.pnum
Substitution2: "Podtablica 'tnum' Cyfry tabelaryczne w tablicy 20" eight.oldstyle
Substitution2: "Podtablica 'pnum' Cyfry proporcjonalnej szeroko+AVsA-ci w tablicy 19" eight.pnum
Substitution2: "Podtablica 'onum' Cyfry nautyczne w tablicy 18" eight.oldstyle
Substitution2: "Podtablica 'c2sc' Wersaliki na kapitaliki w tablicy 0" eight.c2sc
Position2: "Podtablica 'cpsp' +AVoA-wiat+AUIA-o wersalikowe w tablicy 0" dx=36 dy=0 dh=72 dv=0
EndChar

StartChar: nine
Encoding: 57 57 29
Width: 1050
GlyphClass: 1
Flags: W
LayerCount: 2
Fore
SplineSet
319 130.00390625 m 1,0,-1
 305 130.00390625 l 1,1,-1
 305 24 l 1,2,-1
 315.811523438 24 l 1,3,4
 603.682745073 28.8837890625 603.682745073 28.8837890625 754.713867188 216.571289062 c 0,5,6
 916 404.259765625 916 404.259765625 916 820 c 2,7,-1
 916 874 l 2,8,9
 916 1144.48828125 916 1144.48828125 796.689453125 1299.25585938 c 0,10,11
 679.7109375 1451 679.7109375 1451 501.934629353 1451 c 0,12,13
 390.159359312 1451 390.159359312 1451 301.193359375 1392.76367188 c 0,14,15
 205.384765625 1334.52734375 205.384765625 1334.52734375 152.692382812 1223.44628906 c 128,-1,16
 100 1112.36425781 100 1112.36425781 100 972 c 0,17,18
 100 841.41015625 100 841.41015625 148.404296875 734.634765625 c 128,-1,19
 196.809570312 627.859375 196.809570312 627.859375 284.170898438 569.9296875 c 0,20,21
 368.092004246 512 368.092004246 512 470.741294595 512 c 0,22,23
 548.608705739 512 548.608705739 512 614.112677913 551.44140625 c 0,24,25
 681.060546875 590.883789062 681.060546875 590.883789062 735.85546875 656.071289062 c 2,26,-1
 783.2109375 712.407226562 l 1,27,-1
 779.975585938 638.884765625 l 2,28,29
 768.529296875 378.74609375 768.529296875 378.74609375 642.56610333 256.458984375 c 0,30,31
 529.726347201 134.171875 529.726347201 134.171875 319.444335938 130.00390625 c 1,32,-1
 319 130.00390625 l 1,0,-1
657.635604705 676.4140625 m 0,33,34
 584.349376135 615 584.349376135 615 496.735740226 615 c 0,35,36
 381.850783086 615 381.850783086 615 308.400390625 721.638671875 c 0,37,38
 232 824.752929688 232 824.752929688 232 984.221679688 c 128,-1,39
 232 1143.69042969 232 1143.69042969 311.38671875 1243.99707031 c 0,40,41
 386.613046758 1347 386.613046758 1347 502.801110874 1347 c 128,-1,42
 618.986636469 1347 618.986636469 1347 697.5625 1222.21582031 c 0,43,44
 781 1101.81152344 781 1101.81152344 781 912 c 2,45,-1
 781 832.859375 l 1,46,-1
 778.990234375 828.169921875 l 2,47,48
 740.272460938 737.828125 740.272460938 737.828125 657.635604705 676.4140625 c 0,33,34
EndSplineSet
Substitution2: "Podtablica 'numr' Cyfry frakcji g+APMA-rnej (licznika) w tablicy 25" nine.numr
Substitution2: "Podtablica 'dnom' Cyfry frakcji dolnej (mianownika) w tablicy 24" nine.dnom
Substitution2: "Podtablica 'pnum' Cyfry proporcjonalnej szeroko+AVsA-ci w tablicy 19" nine.pnum
Substitution2: "Podtablica 'onum' Cyfry nautyczne w tablicy 18" nine.oldstyle
Substitution2: "Podtablica 'c2sc' Wersaliki na kapitaliki w tablicy 0" nine.c2sc
Position2: "Podtablica 'cpsp' +AVoA-wiat+AUIA-o wersalikowe w tablicy 0" dx=36 dy=0 dh=72 dv=0
EndChar

StartChar: colon
Encoding: 58 58 30
Width: 496
GlyphClass: 1
Flags: W
LayerCount: 2
Fore
SplineSet
160 981.113321467 m 0,0,1
 160 943.738597217 160 943.738597217 181.484677753 920.369298608 c 0,2,3
 202.969355506 897 202.969355506 897 249.127897009 897 c 0,4,5
 295.286438512 897 295.286438512 897 317.643219256 920.493566205 c 0,6,7
 340 943.987132411 340 943.987132411 340 981.114446707 c 0,8,9
 340 1018.241761 340 1018.241761 317.525499213 1042.6208805 c 0,10,11
 295.050998426 1067 295.050998426 1067 249.128478855 1067 c 0,12,13
 203.205959284 1067 203.205959284 1067 181.602979642 1042.74402286 c 0,14,15
 160 1018.48804572 160 1018.48804572 160 981.113321467 c 0,0,1
159 98.1133214665 m 0,16,17
 159 60.7385972168 159 60.7385972168 180.484677753 37.3692986084 c 0,18,19
 201.969355506 14 201.969355506 14 248.127897009 14 c 0,20,21
 294.286438512 14 294.286438512 14 316.643219256 37.4935662053 c 0,22,23
 339 60.9871324106 339 60.9871324106 339 98.1144467075 c 0,24,25
 339 135.241761004 339 135.241761004 316.525499213 159.620880502 c 0,26,27
 294.050998426 184 294.050998426 184 248.128478855 184 c 0,28,29
 202.205959284 184 202.205959284 184 180.602979642 159.744022858 c 0,30,31
 159 135.488045716 159 135.488045716 159 98.1133214665 c 0,16,17
EndSplineSet
EndChar

StartChar: semicolon
Encoding: 59 59 31
Width: 433
GlyphClass: 1
Flags: W
LayerCount: 2
Fore
SplineSet
295 74 m 2,0,-1
 295 194 l 1,1,-1
 164 194 l 1,2,-1
 164 52 l 2,3,4
 164 51.4514805748 164 51.4514805748 163.989493669 51.2689330744 c 0,5,6
 160.0943404 -84.0876430149 160.0943404 -84.0876430149 75.8007815466 -211.552794749 c 1,7,-1
 144.332164722 -258.545743212 l 1,8,9
 205.710684889 -203.383971785 205.710684889 -203.383971785 248.036852023 -117.021489349 c 0,10,11
 295 -21.1976924665 295 -21.1976924665 295 74 c 2,0,-1
136 981.113321467 m 0,12,13
 136 943.738597217 136 943.738597217 157.484677753 920.369298608 c 0,14,15
 178.969355506 897 178.969355506 897 225.127897009 897 c 0,16,17
 271.286438512 897 271.286438512 897 293.643219256 920.493566205 c 0,18,19
 316 943.987132411 316 943.987132411 316 981.114446707 c 0,20,21
 316 1018.241761 316 1018.241761 293.525499213 1042.6208805 c 0,22,23
 271.050998426 1067 271.050998426 1067 225.128478855 1067 c 0,24,25
 179.205959284 1067 179.205959284 1067 157.602979642 1042.74402286 c 0,26,27
 136 1018.48804572 136 1018.48804572 136 981.113321467 c 0,12,13
EndSplineSet
EndChar

StartChar: less
Encoding: 60 60 32
Width: 1041
GlyphClass: 1
Flags: W
LayerCount: 2
Fore
SplineSet
197.831182089 643.773412986 m 1,0,-1
 865 918.740753276 l 1,1,-1
 865 1058.90394232 l 1,2,-1
 97 704.009076794 l 1,3,-1
 97 589.973168793 l 1,4,-1
 865 234.139427962 l 1,5,-1
 865 374.134897121 l 1,6,-1
 197.831182089 643.773412986 l 1,0,-1
EndSplineSet
EndChar

StartChar: equal
Encoding: 61 61 33
Width: 1124
GlyphClass: 1
Flags: W
LayerCount: 2
Fore
SplineSet
177 839 m 1,0,-1
 961 839 l 1,1,-1
 961 950 l 1,2,-1
 177 950 l 1,3,-1
 177 839 l 1,0,-1
177 424 m 1,4,-1
 961 424 l 1,5,-1
 961 534 l 1,6,-1
 177 534 l 1,7,-1
 177 424 l 1,4,-1
EndSplineSet
EndChar

StartChar: greater
Encoding: 62 62 34
Width: 1070
GlyphClass: 1
Flags: W
LayerCount: 2
Fore
SplineSet
863.195827825 650.133986169 m 1,0,-1
 159 371.012493143 l 1,1,-1
 159 234.449867952 l 1,2,-1
 963 591.260172402 l 1,3,-1
 963 704.722392211 l 1,4,-1
 159 1060.59124467 l 1,5,-1
 159 926.059431565 l 1,6,-1
 863.195827825 650.133986169 l 1,0,-1
EndSplineSet
EndChar

StartChar: question
Encoding: 63 63 35
Width: 967
GlyphClass: 1
Flags: W
LayerCount: 2
Fore
SplineSet
706.149512105 768.499912123 m 1,0,1
 861 931.128209329 861 931.128209329 861 1096.74776213 c 256,2,3
 861 1262.36731493 861 1262.36731493 762.966757264 1356.68365746 c 256,4,5
 664.933514529 1451 664.933514529 1451 486 1451 c 0,6,7
 313.399897296 1451 313.399897296 1451 206.96802398 1357.69628727 c 0,8,9
 110.591196992 1273.20735084 110.591196992 1273.20735084 101.047024665 1140 c 1,10,-1
 236.150605409 1140 l 1,11,12
 244.177982879 1225.36653726 244.177982879 1225.36653726 305.593070388 1278.85709735 c 0,13,14
 374.646032691 1339 374.646032691 1339 488.287474096 1339 c 256,15,16
 601.928915501 1339 601.928915501 1339 663.96445775 1271.88882248 c 256,17,18
 726 1204.77764495 726 1204.77764495 726 1088.15849116 c 256,19,20
 726 971.539337368 726 971.539337368 635.346377165 869.014406781 c 1,21,-1
 504.190926343 733.854209368 l 1,22,23
 430.776624665 653.700627977 430.776624665 653.700627977 407.512909779 589.492774892 c 0,24,25
 386.679151829 531.991602949 386.679151829 531.991602949 382.721954879 435 c 1,26,-1
 517.493461388 435 l 1,27,28
 523.264916516 578.547719472 523.264916516 578.547719472 596.902424772 660.255091647 c 1,29,-1
 706.149512105 768.499912123 l 1,0,1
458 174 m 256,30,31
 415.114247984 174 415.114247984 174 394.557123992 151.200280664 c 256,32,33
 374 128.400561327 374 128.400561327 374 93.1194492279 c 256,34,35
 374 57.8383371287 374 57.8383371287 394.433123238 35.9191685643 c 256,36,37
 414.866246476 14 414.866246476 14 458 14 c 256,38,39
 501.267285893 14 501.267285893 14 522.133642946 35.98419761 c 256,40,41
 543 57.96839522 543 57.96839522 543 93.1200586174 c 256,42,43
 543 128.271722015 543 128.271722015 522.009970761 151.135861007 c 256,44,45
 501.019941522 174 501.019941522 174 458 174 c 256,30,31
EndSplineSet
EndChar

StartChar: at
Encoding: 64 64 36
Width: 1839
GlyphClass: 1
Flags: W
LayerCount: 2
Fore
SplineSet
1714.45454545 569.548209366 m 0,0,1
 1714.45454545 805.613629467 1714.45454545 805.613629467 1639.87667824 986.486387896 c 0,2,3
 1555.92392736 1190.09593312 1555.92392736 1190.09593312 1384.35730279 1298.04796656 c 256,4,5
 1212.79067821 1406 1212.79067821 1406 971 1406 c 0,6,7
 739.206750831 1406 739.206750831 1406 555.283610046 1290.32202461 c 256,8,9
 371.184239052 1174.5332097 371.184239052 1174.5332097 262.962887839 960.527925092 c 0,10,11
 141.581280788 720.498530968 141.581280788 720.498530968 141.581280788 412.083137179 c 0,12,13
 141.581280788 175.076572023 141.581280788 175.076572023 218.534891411 -6.77469777412 c 0,14,15
 304.952126906 -210.989729138 304.952126906 -210.989729138 478.560343595 -319.494864569 c 256,16,17
 652.168560285 -428 652.168560285 -428 895 -428 c 0,18,19
 996.975886647 -428 996.975886647 -428 1096.56399354 -403.71021783 c 0,20,21
 1181.55408886 -382.98092629 1181.55408886 -382.98092629 1237.06113852 -352.588100415 c 1,22,-1
 1215.36157524 -285.143511862 l 1,23,24
 1160.26877307 -312.098398827 1160.26877307 -312.098398827 1085.41761008 -330.294261654 c 0,25,26
 992.014459154 -353 992.014459154 -353 899 -353 c 0,27,28
 682.551004381 -353 682.551004381 -353 528.602772444 -252.281326224 c 256,29,30
 374.654540507 -151.562652449 374.654540507 -151.562652449 299.734442809 38.3389840773 c 0,31,32
 236.285714286 199.163886236 236.285714286 199.163886236 236.285714286 408.479591837 c 0,33,34
 236.285714286 703.123026511 236.285714286 703.123026511 341.436829403 922.772022533 c 0,35,36
 434.52962249 1117.23252365 434.52962249 1117.23252365 596.582436517 1220.5931326 c 256,37,38
 758.707776367 1324 758.707776367 1324 967 1324 c 0,39,40
 1312.99697903 1324 1312.99697903 1324 1484.01696004 1110.6172714 c 0,41,42
 1635.97808219 921.014403394 1635.97808219 921.014403394 1635.97808219 580.992081066 c 0,43,44
 1635.97808219 541.971225654 1635.97808219 541.971225654 1633.97935335 500.957419675 c 0,45,46
 1627.72403785 314.389900278 1627.72403785 314.389900278 1554.21565488 196.77648753 c 0,47,48
 1476.85535018 73 1476.85535018 73 1350 73 c 0,49,50
 1312.41686171 73 1312.41686171 73 1283.29621389 86.2863315165 c 0,51,52
 1194.8253012 126.65129464 1194.8253012 126.65129464 1194.8253012 279.146719408 c 0,53,54
 1194.82364208 303.601297959 1194.82364208 303.601297959 1197.08324783 331.073346855 c 2,55,-1
 1247.82412541 871.658850234 l 1,56,57
 1177.62831022 925.121824997 1177.62831022 925.121824997 1119.76311952 944.560912499 c 256,58,59
 1061.89792882 964 1061.89792882 964 985 964 c 0,60,61
 888.546712 964 888.546712 964 798.823111095 894.475953226 c 256,62,63
 709.09951019 824.951906451 709.09951019 824.951906451 650.800917187 700.16400903 c 256,64,65
 592.502324183 575.376111609 592.502324183 575.376111609 577.896486309 414.711894991 c 0,66,67
 574.076086957 373.491796717 574.076086957 373.491796717 574.076086957 336.122046314 c 0,68,69
 574.076086957 195.253735719 574.076086957 195.253735719 628.174508548 109.289120588 c 0,70,71
 693.804730987 5 693.804730987 5 822 5 c 0,72,73
 889.104070584 5 889.104070584 5 953.094541497 43.210137308 c 256,74,75
 1017.08501241 81.4202746161 1017.08501241 81.4202746161 1067.88269119 161.379583803 c 2,76,-1
 1096.69235779 206.728133083 l 1,77,-1
 1112.84715057 155.520488052 l 2,78,79
 1139.39565787 71.3667290552 1139.39565787 71.3667290552 1201.85777284 34.7716625671 c 0,80,81
 1252.67339333 5 1252.67339333 5 1329 5 c 0,82,83
 1497.71567467 5 1497.71567467 5 1598.19459942 135.250458013 c 0,84,85
 1701.41796916 269.058529892 1701.41796916 269.058529892 1713.03107485 503.256161317 c 0,86,87
 1714.45454545 536.826343131 1714.45454545 536.826343131 1714.45454545 569.548209366 c 0,0,1
1001 886 m 0,88,89
 1071.0930357 886 1071.0930357 886 1132.47112205 854.21491957 c 2,90,-1
 1147.42894031 846.46890654 l 1,91,-1
 1099.87305055 326.455590248 l 1,92,-1
 1098.84613989 317.213394292 l 1,93,-1
 1098.49873891 314.086785524 l 1,94,95
 1059.289214 210.617205889 1059.289214 210.617205889 998.012204914 154.308602945 c 256,96,97
 936.735195827 98 936.735195827 98 867 98 c 0,98,99
 821.930079441 98 821.930079441 98 786.91585107 115.681603696 c 0,100,101
 742.661054384 138.029540893 742.661054384 138.029540893 716.421776095 187.268680399 c 0,102,103
 683.403669725 249.228583711 683.403669725 249.228583711 683.403669725 348.401060517 c 0,104,105
 683.403669725 381.763451686 683.403669725 381.763451686 687.106517015 419.32090277 c 0,106,107
 706.664883703 631.374773179 706.664883703 631.374773179 786.455108547 755.492900714 c 0,108,109
 870.352529517 886 870.352529517 886 1001 886 c 0,88,89
EndSplineSet
EndChar

StartChar: A
Encoding: 65 65 37
Width: 1236
GlyphClass: 2
Flags: W
LayerCount: 2
Fore
SplineSet
306.654611565 405 m 1,0,-1
 906.708629806 405 l 1,1,-1
 1043.16796875 25 l 1,2,-1
 1186.35253906 25 l 1,3,-1
 668.855664796 1431 l 1,4,-1
 544.598421174 1431 l 1,5,-1
 28 25 l 1,6,-1
 172.12109375 25 l 1,7,-1
 306.654611565 405 l 1,0,-1
606.677986901 1292.203125 m 1,8,-1
 870.647865911 513 l 1,9,-1
 343.771898156 513 l 1,10,-1
 606.677986901 1292.203125 l 1,8,-1
EndSplineSet
Substitution2: "Podtablica 'c2sc' Wersaliki na kapitaliki w tablicy 0" A.c2sc
Position2: "Podtablica 'cpsp' +AVoA-wiat+AUIA-o wersalikowe w tablicy 0" dx=36 dy=0 dh=72 dv=0
EndChar

StartChar: B
Encoding: 66 66 38
Width: 1175
GlyphClass: 2
Flags: W
LayerCount: 2
Fore
SplineSet
597.169173267 1431 m 2,0,-1
 169 1431 l 1,1,-1
 169 25 l 1,2,-1
 622.94322328 25 l 2,3,4
 821.557617188 25 821.557617188 25 940.779296875 130.139648438 c 128,-1,5
 1060 235.279296875 1060 235.279296875 1060 420 c 0,6,7
 1060 539.755859375 1060 539.755859375 996.509765625 625.490234375 c 128,-1,8
 933.020507812 711.224609375 933.020507812 711.224609375 823.26171875 741.919921875 c 2,9,-1
 761.643648807 760.993164062 l 1,10,-1
 820.142578125 788.978515625 l 2,11,12
 913.920898438 829.303710938 913.920898438 829.303710938 967.4609375 901.766601562 c 128,-1,13
 1021 974.228515625 1021 974.228515625 1021 1068 c 0,14,15
 1021 1248.17578125 1021 1248.17578125 909.533203125 1339.58789062 c 0,16,17
 799.865551234 1431 799.865551234 1431 597.169173267 1431 c 2,0,-1
311 132 m 1,18,-1
 311 706 l 1,19,-1
 629.164545697 706 l 2,20,21
 749.424061989 706 749.424061989 706 818.521484375 649.19921875 c 0,22,23
 917 576.751953125 917 576.751953125 917 418 c 0,24,25
 917 284.845703125 917 284.845703125 831.780273438 208.422851562 c 0,26,27
 754.089185872 132 754.089185872 132 626.498264661 132 c 2,28,-1
 311 132 l 1,18,-1
602.501735339 810 m 2,29,-1
 311 810 l 1,30,-1
 311 1323 l 1,31,-1
 597.169173267 1323 l 2,32,33
 731.88666791 1323 731.88666791 1323 800.107703711 1263.23632812 c 0,34,35
 878 1201.21484375 878 1201.21484375 878 1069 c 0,36,37
 878 949.305664062 878 949.305664062 796.720172825 879.653320312 c 0,38,39
 722.532118104 810 722.532118104 810 602.501735339 810 c 2,29,-1
EndSplineSet
Substitution2: "Podtablica 'c2sc' Wersaliki na kapitaliki w tablicy 0" B.c2sc
Position2: "Podtablica 'cpsp' +AVoA-wiat+AUIA-o wersalikowe w tablicy 0" dx=36 dy=0 dh=72 dv=0
EndChar

StartChar: C
Encoding: 67 67 39
Width: 1233
GlyphClass: 2
Flags: W
LayerCount: 2
Fore
SplineSet
985.032226562 1328.14550781 m 0,0,1
 855.592505084 1451 855.592505084 1451 652.652456952 1451 c 0,2,3
 499.339081426 1451 499.339081426 1451 383.515270276 1372.33007812 c 0,4,5
 258.471679688 1293.66015625 258.471679688 1293.66015625 188.735351562 1145.53125 c 128,-1,6
 119 997.403320312 119 997.403320312 119 800 c 2,7,-1
 119 660 l 2,8,9
 119 359.104492188 119 359.104492188 267.819335938 182.052734375 c 0,10,11
 412.139011085 5 412.139011085 5 637.127232462 5 c 0,12,13
 845.911535884 5 845.911535884 5 978.0546875 124.323242188 c 0,14,15
 1105.65332031 235.916992188 1105.65332031 235.916992188 1136.41015625 437 c 1,16,-1
 993.16015625 437 l 1,17,18
 962.116210938 264.58984375 962.116210938 264.58984375 876.082626445 190.42578125 c 0,19,20
 791.617842381 112 791.617842381 112 637.127232462 112 c 0,21,22
 462.753847107 112 462.753847107 112 365.503584052 262.588867188 c 0,23,24
 262 409.057617188 262 409.057617188 262 654 c 2,25,-1
 262 795 l 2,26,27
 262 1054.49023438 262 1054.49023438 371.066016562 1197.21191406 c 0,28,29
 473.368577224 1343 473.368577224 1343 652.652456952 1343 c 0,30,31
 798.63844022 1343 798.63844022 1343 881.473824862 1258.27050781 c 0,32,33
 965.208007812 1179.1953125 965.208007812 1179.1953125 993.39453125 1013 c 1,34,-1
 1136.87890625 1013 l 1,35,36
 1109.69824219 1212.83105469 1109.69824219 1212.83105469 985.032226562 1328.14550781 c 0,0,1
EndSplineSet
Substitution2: "Podtablica 'ss06' Styl 6 w tablicy 16" C.ss06
Substitution2: "Podtablica 'c2sc' Wersaliki na kapitaliki w tablicy 0" C.c2sc
Position2: "Podtablica 'cpsp' +AVoA-wiat+AUIA-o wersalikowe w tablicy 0" dx=36 dy=0 dh=72 dv=0
EndChar

StartChar: D
Encoding: 68 68 40
Width: 1243
GlyphClass: 2
Flags: W
LayerCount: 2
Fore
SplineSet
541.290764057 1431 m 2,0,-1
 169 1431 l 1,1,-1
 169 25 l 1,2,-1
 533.954741174 25 l 1,3,4
 704.937116462 26.9599609375 704.937116462 26.9599609375 832.518360933 106.530273438 c 0,5,6
 969.184570312 186.099609375 969.184570312 186.099609375 1045.59179688 335.0703125 c 128,-1,7
 1122 484.041992188 1122 484.041992188 1122 684 c 2,8,-1
 1122 777 l 2,9,10
 1121.03027344 971.899414062 1121.03027344 971.899414062 1044.578125 1120.95800781 c 128,-1,11
 968.125 1270.01660156 968.125 1270.01660156 832.91661728 1350.50878906 c 0,12,13
 706.690501706 1431 706.690501706 1431 541.290764057 1431 c 2,0,-1
311 132 m 1,14,-1
 311 1323 l 1,15,-1
 546.016974332 1323 l 1,16,17
 749.412305879 1320.89355469 749.412305879 1320.89355469 860.537280905 1175.52636719 c 0,18,19
 982 1030.16015625 982 1030.16015625 982 773 c 2,20,-1
 982 688 l 2,21,22
 982 423.454101562 982 423.454101562 853.918471886 277.7265625 c 0,23,24
 736.175568937 132 736.175568937 132 525.952608118 132 c 2,25,-1
 311 132 l 1,14,-1
EndSplineSet
Substitution2: "Podtablica 'ss06' Styl 6 w tablicy 16" D.ss06
Substitution2: "Podtablica 'c2sc' Wersaliki na kapitaliki w tablicy 0" D.c2sc
Position2: "Podtablica 'cpsp' +AVoA-wiat+AUIA-o wersalikowe w tablicy 0" dx=36 dy=0 dh=72 dv=0
EndChar

StartChar: E
Encoding: 69 69 41
Width: 1064
GlyphClass: 2
Flags: W
LayerCount: 2
Fore
SplineSet
994 25 m 1,0,-1
 994 132 l 1,1,-1
 311 132 l 1,2,-1
 311 698 l 1,3,-1
 892 698 l 1,4,-1
 892 805 l 1,5,-1
 311 805 l 1,6,-1
 311 1323 l 1,7,-1
 984 1323 l 1,8,-1
 984 1431 l 1,9,-1
 169 1431 l 1,10,-1
 169 25 l 1,11,-1
 994 25 l 1,0,-1
EndSplineSet
Substitution2: "Podtablica 'c2sc' Wersaliki na kapitaliki w tablicy 0" E.c2sc
Position2: "Podtablica 'cpsp' +AVoA-wiat+AUIA-o wersalikowe w tablicy 0" dx=36 dy=0 dh=72 dv=0
EndChar

StartChar: F
Encoding: 70 70 42
Width: 1032
GlyphClass: 2
Flags: W
LayerCount: 2
Fore
SplineSet
169 25 m 1,0,-1
 311 25 l 1,1,-1
 311 668 l 1,2,-1
 872 668 l 1,3,-1
 872 775 l 1,4,-1
 311 775 l 1,5,-1
 311 1323 l 1,6,-1
 971 1323 l 1,7,-1
 971 1431 l 1,8,-1
 169 1431 l 1,9,-1
 169 25 l 1,0,-1
EndSplineSet
Substitution2: "Podtablica 'c2sc' Wersaliki na kapitaliki w tablicy 0" F.c2sc
Position2: "Podtablica 'cpsp' +AVoA-wiat+AUIA-o wersalikowe w tablicy 0" dx=36 dy=0 dh=72 dv=0
EndChar

StartChar: G
Encoding: 71 71 43
Width: 1295
GlyphClass: 2
Flags: W
LayerCount: 2
Fore
SplineSet
398.226989275 84.794921875 m 0,0,1
 518.7437479 5 518.7437479 5 675.037761852 5 c 128,-1,2
 831.50669516 5 831.50669516 5 953.3046875 55.751953125 c 0,3,4
 1074.87402344 103.920898438 1074.87402344 103.920898438 1144 198.989257812 c 1,5,-1
 1144 700 l 1,6,-1
 686.004134509 700 l 1,7,-1
 686.004134509 594 l 1,8,-1
 1003 594 l 1,9,-1
 1003 232.1796875 l 1,10,-1
 996.309570312 224.984375 l 2,11,12
 938.639648438 162.961914062 938.639648438 162.961914062 856.569247514 137.48046875 c 0,13,14
 777.977802584 112 777.977802584 112 675.95162624 112 c 0,15,16
 490.209581806 112 490.209581806 112 380.983153624 266.204101562 c 0,17,18
 265 417.451171875 265 417.451171875 265 671 c 2,19,-1
 265 790 l 1,20,21
 266.032226562 1055.23144531 266.032226562 1055.23144531 370.114949993 1197.27539062 c 0,22,23
 467.905579084 1343 467.905579084 1343 655.846609702 1343 c 0,24,25
 780.780082055 1343 780.780082055 1343 861.821290408 1281.46777344 c 0,26,27
 962.844726562 1208.98828125 962.844726562 1208.98828125 997.403320312 1054 c 1,28,-1
 1139.53710938 1054 l 1,29,30
 1105.37109375 1237.73339844 1105.37109375 1237.73339844 982.956054688 1340.33300781 c 0,31,32
 854.991403531 1451 854.991403531 1451 654.932745314 1451 c 0,33,34
 411.453926869 1451 411.453926869 1451 268.786132812 1277.91699219 c 0,35,36
 122 1104.83300781 122 1104.83300781 122 785 c 2,37,-1
 122 658.125976562 l 1,38,39
 123.965820312 460.873046875 123.965820312 460.873046875 196.59375 312.731445312 c 128,-1,40
 269.22265625 164.588867188 269.22265625 164.588867188 398.226989275 84.794921875 c 0,0,1
EndSplineSet
Substitution2: "Podtablica 'ss06' Styl 6 w tablicy 16" G.ss06
Substitution2: "Podtablica 'c2sc' Wersaliki na kapitaliki w tablicy 0" G.c2sc
Position2: "Podtablica 'cpsp' +AVoA-wiat+AUIA-o wersalikowe w tablicy 0" dx=36 dy=0 dh=72 dv=0
EndChar

StartChar: H
Encoding: 72 72 44
Width: 1360
GlyphClass: 2
Flags: W
LayerCount: 2
Fore
SplineSet
1045 698 m 1,0,-1
 1045 25 l 1,1,-1
 1188 25 l 1,2,-1
 1188 1431 l 1,3,-1
 1045 1431 l 1,4,-1
 1045 805 l 1,5,-1
 311 805 l 1,6,-1
 311 1431 l 1,7,-1
 169 1431 l 1,8,-1
 169 25 l 1,9,-1
 311 25 l 1,10,-1
 311 698 l 1,11,-1
 1045 698 l 1,0,-1
EndSplineSet
Substitution2: "Podtablica 'c2sc' Wersaliki na kapitaliki w tablicy 0" H.c2sc
Position2: "Podtablica 'cpsp' +AVoA-wiat+AUIA-o wersalikowe w tablicy 0" dx=36 dy=0 dh=72 dv=0
EndChar

StartChar: I
Encoding: 73 73 45
Width: 507
GlyphClass: 2
Flags: W
LayerCount: 2
Fore
SplineSet
183 1431 m 1,0,-1
 183 25 l 1,1,-1
 325 25 l 1,2,-1
 325 1431 l 1,3,-1
 183 1431 l 1,0,-1
EndSplineSet
Substitution2: "Podtablica 'c2sc' Wersaliki na kapitaliki w tablicy 0" I.c2sc
Position2: "Podtablica 'cpsp' +AVoA-wiat+AUIA-o wersalikowe w tablicy 0" dx=36 dy=0 dh=72 dv=0
EndChar

StartChar: J
Encoding: 74 74 46
Width: 1030
GlyphClass: 2
Flags: W
LayerCount: 2
Fore
SplineSet
871.5 425 m 2,0,-1
 871.5 1431 l 1,1,-1
 728.5 1431 l 1,2,-1
 728.5 422 l 1,3,4
 727.423828125 276.721679688 727.423828125 276.721679688 646.709960938 194.360351562 c 0,5,6
 573.920109116 112 573.920109116 112 461.599474773 112 c 0,7,8
 339.727639314 112 339.727639314 112 270.133789062 189.51953125 c 0,9,10
 201.7421875 259.408203125 201.7421875 259.408203125 195.18359375 377 c 1,11,-1
 53 377 l 1,12,13
 59.953125 206.1484375 59.953125 206.1484375 165.390625 109.424804688 c 0,14,15
 279.22265625 5 279.22265625 5 461.599474773 5 c 0,16,17
 635.599609375 5 635.599609375 5 753.549804688 115.901367188 c 128,-1,18
 871.5 226.802734375 871.5 226.802734375 871.5 425 c 2,0,-1
EndSplineSet
Substitution2: "Podtablica 'c2sc' Wersaliki na kapitaliki w tablicy 0" J.c2sc
Position2: "Podtablica 'cpsp' +AVoA-wiat+AUIA-o wersalikowe w tablicy 0" dx=36 dy=0 dh=72 dv=0
EndChar

StartChar: K
Encoding: 75 75 47
Width: 1184
GlyphClass: 2
Flags: W
LayerCount: 2
Fore
SplineSet
944.139648438 1431 m 1,0,-1
 311 670.783203125 l 1,1,-1
 311 1431 l 1,2,-1
 169 1431 l 1,3,-1
 169 25 l 1,4,-1
 311 25 l 1,5,-1
 311 502.067382812 l 1,6,-1
 506.967306658 715.342773438 l 1,7,-1
 992.375 25 l 1,8,-1
 1159.59765625 25 l 1,9,-1
 591.897107307 814.260742188 l 1,10,-1
 1109.24121094 1431 l 1,11,-1
 944.139648438 1431 l 1,0,-1
EndSplineSet
Substitution2: "Podtablica 'ss05' Styl 5 w tablicy 15" K.ss05
Substitution2: "Podtablica 'ss04' Styl 4 w tablicy 14" K.ss04
Substitution2: "Podtablica 'c2sc' Wersaliki na kapitaliki w tablicy 0" K.c2sc
Position2: "Podtablica 'cpsp' +AVoA-wiat+AUIA-o wersalikowe w tablicy 0" dx=36 dy=0 dh=72 dv=0
EndChar

StartChar: L
Encoding: 76 76 48
Width: 1002
GlyphClass: 2
Flags: W
LayerCount: 2
Fore
SplineSet
952 132 m 1,0,-1
 312 132 l 1,1,-1
 312 1431 l 1,2,-1
 169 1431 l 1,3,-1
 169 25 l 1,4,-1
 952 25 l 1,5,-1
 952 132 l 1,0,-1
EndSplineSet
Substitution2: "Podtablica 'c2sc' Wersaliki na kapitaliki w tablicy 0" L.c2sc
Position2: "Podtablica 'cpsp' +AVoA-wiat+AUIA-o wersalikowe w tablicy 0" dx=36 dy=0 dh=72 dv=0
EndChar

StartChar: M
Encoding: 77 77 49
Width: 1688
GlyphClass: 2
Flags: W
LayerCount: 2
Fore
SplineSet
375.080078125 1431 m 1,0,-1
 169 1431 l 1,1,-1
 169 25 l 1,2,-1
 311 25 l 1,3,-1
 311 566.603515625 l 1,4,-1
 287.655273438 1314.87011719 l 1,5,-1
 789.019550147 25 l 1,6,-1
 896.088799607 25 l 1,7,-1
 1398.078125 1317.27050781 l 1,8,-1
 1376 566.625976562 l 1,9,-1
 1376 25 l 1,10,-1
 1518 25 l 1,11,-1
 1518 1431 l 1,12,-1
 1310.91992188 1431 l 1,13,-1
 843.027548817 200.771484375 l 1,14,-1
 375.080078125 1431 l 1,0,-1
EndSplineSet
Substitution2: "Podtablica 'c2sc' Wersaliki na kapitaliki w tablicy 0" M.c2sc
Position2: "Podtablica 'cpsp' +AVoA-wiat+AUIA-o wersalikowe w tablicy 0" dx=36 dy=0 dh=72 dv=0
EndChar

StartChar: N
Encoding: 78 78 50
Width: 1360
GlyphClass: 2
Flags: W
LayerCount: 2
Fore
SplineSet
1033.52832031 25 m 1,0,-1
 1188 25 l 1,1,-1
 1188 1431 l 1,2,-1
 1047 1431 l 1,3,-1
 1047 244.904296875 l 1,4,-1
 323.458984375 1431 l 1,5,-1
 169 1431 l 1,6,-1
 169 25 l 1,7,-1
 312 25 l 1,8,-1
 312 1205.97460938 l 1,9,-1
 1033.52832031 25 l 1,0,-1
EndSplineSet
Substitution2: "Podtablica 'c2sc' Wersaliki na kapitaliki w tablicy 0" N.c2sc
Position2: "Podtablica 'cpsp' +AVoA-wiat+AUIA-o wersalikowe w tablicy 0" dx=36 dy=0 dh=72 dv=0
EndChar

StartChar: O
Encoding: 79 79 51
Width: 1308
GlyphClass: 2
Flags: W
LayerCount: 2
Fore
SplineSet
1119.63867188 318.735351562 m 128,-1,1
 1189 472.388671875 1189 472.388671875 1189 681 c 2,2,-1
 1189 773 l 2,3,4
 1189 980.641601562 1189 980.641601562 1119.6328125 1135.2734375 c 128,-1,5
 1050.26464844 1289.90527344 1050.26464844 1289.90527344 924.616666112 1370.453125 c 0,6,7
 807.469720233 1451 807.469720233 1451 654.453832119 1451 c 128,-1,8
 501.437944005 1451 501.437944005 1451 384.193906826 1369.43164062 c 0,9,10
 258.719726562 1287.94238281 258.719726562 1287.94238281 188.359375 1132.765625 c 128,-1,11
 118 977.588867188 118 977.588867188 118 773 c 2,12,-1
 118 668.124023438 l 1,13,14
 119.967773438 467.654296875 119.967773438 467.654296875 190.755859375 316.926757812 c 128,-1,15
 261.544921875 166.200195312 261.544921875 166.200195312 386.424309735 85.6171875 c 0,16,17
 503.234133047 5 503.234133047 5 656.717497788 5 c 128,-1,18
 810.20086253 5 810.20086253 5 925.988530215 85.041015625 c 0,19,0
 1050.27832031 165.081054688 1050.27832031 165.081054688 1119.63867188 318.735351562 c 128,-1,1
939.339482899 1187.49023438 m 0,20,21
 1048 1042.3359375 1048 1042.3359375 1048 775 c 2,22,-1
 1048 666.698242188 l 1,23,24
 1044.90332031 405.515625 1044.90332031 405.515625 938.402731657 263.485351562 c 0,25,26
 837.585103975 118 837.585103975 118 655.259330308 118 c 128,-1,27
 472.934455635 118 472.934455635 118 368.901128151 271.713867188 c 0,28,29
 259 421.803710938 259 421.803710938 259 681 c 2,30,-1
 259 788.310546875 l 1,31,32
 262.099609375 1042.50292969 262.099609375 1042.50292969 370.91397463 1187.53710938 c 0,33,34
 474.033924703 1336 474.033924703 1336 653.039715321 1336 c 0,35,36
 836.681615493 1336 836.681615493 1336 939.339482899 1187.49023438 c 0,20,21
EndSplineSet
Substitution2: "Podtablica 'ss06' Styl 6 w tablicy 16" O.ss06
Substitution2: "Podtablica 'c2sc' Wersaliki na kapitaliki w tablicy 0" O.c2sc
Position2: "Podtablica 'cpsp' +AVoA-wiat+AUIA-o wersalikowe w tablicy 0" dx=36 dy=0 dh=72 dv=0
EndChar

StartChar: P
Encoding: 80 80 52
Width: 1192
GlyphClass: 2
Flags: W
LayerCount: 2
Fore
SplineSet
311 25 m 1,0,-1
 311 595 l 1,1,-1
 652.862467358 595 l 2,2,3
 867.05121818 595 867.05121818 595 991.350585938 702.715820312 c 0,4,5
 1116 810.431640625 1116 810.431640625 1116 1011 c 0,6,7
 1116 1200.875 1116 1200.875 988.205078125 1315.9375 c 0,8,9
 861.382483914 1431 861.382483914 1431 654.664635594 1431 c 2,10,-1
 169 1431 l 1,11,-1
 169 25 l 1,12,-1
 311 25 l 1,0,-1
654.664635594 702 m 2,13,-1
 311 702 l 1,14,-1
 311 1323 l 1,15,-1
 664.576560893 1323 l 2,16,17
 664.937346526 1323 664.937346526 1323 665.05702176 1322.99414062 c 0,18,19
 802.625463668 1319.79199219 802.625463668 1319.79199219 884.6015625 1234.75390625 c 0,20,21
 974 1149.71679688 974 1149.71679688 974 1009 c 0,22,23
 974 860.739257812 974 860.739257812 884.23046875 781.370117188 c 0,24,25
 801.955810334 702 801.955810334 702 654.664635594 702 c 2,13,-1
EndSplineSet
Substitution2: "Podtablica 'c2sc' Wersaliki na kapitaliki w tablicy 0" P.c2sc
Position2: "Podtablica 'cpsp' +AVoA-wiat+AUIA-o wersalikowe w tablicy 0" dx=36 dy=0 dh=72 dv=0
EndChar

StartChar: Q
Encoding: 81 81 53
Width: 1308
GlyphClass: 2
Flags: W
LayerCount: 2
Fore
SplineSet
1116.44042969 303.313476562 m 128,-1,1
 1181 450.2578125 1181 450.2578125 1181 656 c 2,2,3
 1181 677.5 1181 677.5 1181 749 c 2,4,5
 1181 956.611328125 1181 956.611328125 1111.63867188 1110.26660156 c 128,-1,6
 1042.27636719 1263.921875 1042.27636719 1263.921875 916.60332802 1344.9609375 c 0,7,8
 799.417872097 1426 799.417872097 1426 645.936879441 1426 c 128,-1,9
 492.456785901 1426 492.456785901 1426 375.196703305 1344.43164062 c 0,10,11
 249.719726562 1262.94238281 249.719726562 1262.94238281 179.359375 1107.765625 c 128,-1,12
 109 952.588867188 109 952.588867188 109 748 c 2,13,14
 109 670.5625 109 670.5625 109 643.124023438 c 1,15,16
 110.967773438 442.654296875 110.967773438 442.654296875 181.755859375 291.926757812 c 128,-1,17
 252.544921875 141.200195312 252.544921875 141.200195312 377.427411456 60.6171875 c 0,18,19
 494.25322076 -20 494.25322076 -20 645.920695343 -20 c 0,20,21
 716.725224234 -20 716.725224234 -20 780.273882597 -2.744140625 c 2,22,23
 785.781870559 -26.2490234375 785.781870559 -26.2490234375 791.290757637 0.2470703125 c 1,24,25
 929.343809478 -143.926757812 929.343809478 -143.926757812 1078.78027344 -238.100585938 c 1,26,27
 1125.63085938 -219.826171875 1125.63085938 -219.826171875 1172.48242188 -151.55078125 c 1,28,29
 1040.86328125 -73.2802734375 1040.86328125 -73.2802734375 911.30573333 54.990234375 c 1,30,31
 923.870887062 39.6904296875 923.870887062 39.6904296875 936.540039062 74.390625 c 2,32,0
 1051.88183594 156.369140625 1051.88183594 156.369140625 1116.44042969 303.313476562 c 128,-1,1
931.943155413 1186.28125 m 0,33,34
 1039 1040.19238281 1039 1040.19238281 1039 775 c 2,35,-1
 1039 666.698242188 l 1,36,37
 1035.90332031 405.515625 1035.90332031 405.515625 929.48137431 263.485351562 c 0,38,39
 828.649949245 118 828.649949245 118 645.79391991 118 c 128,-1,40
 462.938789692 118 462.938789692 118 359.818213901 272.338867188 c 0,41,42
 251 422.889648438 251 422.889648438 251 681 c 2,43,-1
 251 788.310546875 l 1,44,45
 254.099609375 1042.50292969 254.099609375 1042.50292969 362.835649029 1187.53710938 c 0,46,47
 465.969711569 1336 465.969711569 1336 644.079304657 1336 c 0,48,49
 830.658575609 1336 830.658575609 1336 931.943155413 1186.28125 c 0,33,34
EndSplineSet
Substitution2: "Podtablica 'ss06' Styl 6 w tablicy 16" Q.ss06
Substitution2: "Podtablica 'c2sc' Wersaliki na kapitaliki w tablicy 0" Q.c2sc
Position2: "Podtablica 'cpsp' +AVoA-wiat+AUIA-o wersalikowe w tablicy 0" dx=36 dy=0 dh=72 dv=0
EndChar

StartChar: R
Encoding: 82 82 54
Width: 1161
GlyphClass: 2
Flags: W
LayerCount: 2
Fore
SplineSet
311 614 m 1,0,-1
 665.300649532 614 l 1,1,-1
 958.959960938 25 l 1,2,-1
 1114.23242188 25 l 1,3,-1
 781.719933718 643.092773438 l 1,4,-1
 805.970358666 653.366210938 l 2,5,6
 923.162109375 700.71875 923.162109375 700.71875 992.081054688 795.423828125 c 128,-1,7
 1061 890.12890625 1061 890.12890625 1061 1018 c 0,8,9
 1061 1220.40332031 1061 1220.40332031 936.427734375 1325.70117188 c 0,10,11
 817.465181506 1431 817.465181506 1431 604.073231523 1431 c 2,12,-1
 168 1431 l 1,13,-1
 168 25 l 1,14,-1
 311 25 l 1,15,-1
 311 614 l 1,0,-1
609.47883363 721 m 2,16,-1
 311 721 l 1,17,-1
 311 1323 l 1,18,-1
 608.729228651 1323 l 1,19,20
 754.179869076 1321.9375 754.179869076 1321.9375 833.63623729 1243.05566406 c 0,21,22
 918 1164.17382812 918 1164.17382812 918 1018 c 0,23,24
 918 882.66796875 918 882.66796875 829.93396293 801.833984375 c 0,25,26
 746.774440538 721 746.774440538 721 609.47883363 721 c 2,16,-1
EndSplineSet
Substitution2: "Podtablica 'ss03' Styl 3 w tablicy 13" R.ss03
Substitution2: "Podtablica 'c2sc' Wersaliki na kapitaliki w tablicy 0" R.c2sc
Position2: "Podtablica 'cpsp' +AVoA-wiat+AUIA-o wersalikowe w tablicy 0" dx=36 dy=0 dh=72 dv=0
EndChar

StartChar: S
Encoding: 83 83 55
Width: 1115
GlyphClass: 2
Flags: W
LayerCount: 2
Fore
SplineSet
809.623046875 553.22265625 m 0,0,1
 894.266601562 487.201171875 894.266601562 487.201171875 894.266601562 368 c 128,-1,2
 894.266601562 248.657226562 894.266601562 248.657226562 803.44140625 179.13671875 c 0,3,4
 723.076724894 112 723.076724894 112 578.16932155 112 c 0,5,6
 423.176648664 112 423.176648664 112 329.004253776 193.821289062 c 0,7,8
 232.060546875 270.158203125 232.060546875 270.158203125 223.131835938 397 c 1,9,-1
 80 397 l 1,10,11
 86.177734375 293.119140625 86.177734375 293.119140625 145.212890625 209.381835938 c 0,12,13
 211.702148438 115.0703125 211.702148438 115.0703125 335.12367362 60.03515625 c 0,14,15
 447.488533126 5 447.488533126 5 578.16932155 5 c 0,16,17
 779.0810133 5 779.0810133 5 909.01171875 106.302734375 c 0,18,19
 1037.26660156 205.28125 1037.26660156 205.28125 1037.26660156 370 c 0,20,21
 1037.26660156 474.040039062 1037.26660156 474.040039062 991.170898438 550.399414062 c 128,-1,22
 945.075195312 626.759765625 945.075195312 626.759765625 846.684570312 685.794921875 c 0,23,24
 752.483275511 744.829101562 752.483275511 744.829101562 587.779253536 796.078125 c 128,-1,25
 423.075231561 847.326171875 423.075231561 847.326171875 351.25693009 912.108398438 c 0,26,27
 269.266601562 981.125 269.266601562 981.125 269.266601562 1082 c 0,28,29
 269.266601562 1205.14160156 269.266601562 1205.14160156 355.17603973 1275.1640625 c 0,30,31
 433.097887064 1343 433.097887064 1343 569.138789887 1343 c 0,32,33
 715.953716667 1343 715.953716667 1343 798.967773438 1261.09667969 c 0,34,35
 882.840820312 1185.7109375 882.840820312 1185.7109375 890.515625 1060 c 1,36,-1
 1033.52929688 1060 l 1,37,38
 1027.61425781 1159.27929688 1027.61425781 1159.27929688 973.62109375 1244.66503906 c 0,39,40
 912.8984375 1340.69042969 912.8984375 1340.69042969 801.163085938 1395.84570312 c 0,41,42
 699.323075446 1451 699.323075446 1451 569.138789887 1451 c 0,43,44
 378.519611324 1451 378.519611324 1451 254.725585938 1345.07910156 c 0,45,46
 125.266601562 1239.15820312 125.266601562 1239.15820312 125.266601562 1079 c 0,47,48
 125.266601562 937.963867188 125.266601562 937.963867188 229.68359375 841.900390625 c 0,49,50
 336.659040381 742.40625 336.659040381 742.40625 554.608805542 673.03125 c 0,51,52
 736.706301736 614.686523438 736.706301736 614.686523438 809.623046875 553.22265625 c 0,0,1
EndSplineSet
Substitution2: "Podtablica 'c2sc' Wersaliki na kapitaliki w tablicy 0" S.c2sc
Position2: "Podtablica 'cpsp' +AVoA-wiat+AUIA-o wersalikowe w tablicy 0" dx=36 dy=0 dh=72 dv=0
EndChar

StartChar: T
Encoding: 84 84 56
Width: 1122
GlyphClass: 2
Flags: W
LayerCount: 2
Fore
SplineSet
497.073774979 25 m 1,0,-1
 626.011771147 25 l 1,1,-1
 626.011771147 1323 l 1,2,-1
 1075 1323 l 1,3,-1
 1075 1431 l 1,4,-1
 49 1431 l 1,5,-1
 49 1323 l 1,6,-1
 497.073774979 1323 l 1,7,-1
 497.073774979 25 l 1,0,-1
EndSplineSet
Substitution2: "Podtablica 'c2sc' Wersaliki na kapitaliki w tablicy 0" T.c2sc
Position2: "Podtablica 'cpsp' +AVoA-wiat+AUIA-o wersalikowe w tablicy 0" dx=36 dy=0 dh=72 dv=0
EndChar

StartChar: U
Encoding: 85 85 57
Width: 1228
GlyphClass: 2
Flags: W
LayerCount: 2
Fore
SplineSet
1094 1431 m 1,0,-1
 951 1431 l 1,1,-1
 951 469 l 2,2,3
 951 300.693359375 951 300.693359375 857.225585938 206.376953125 c 0,4,5
 771.668935861 112 771.668935861 112 616.097564783 112 c 128,-1,6
 460.526193705 112 460.526193705 112 374.274414062 206.876953125 c 0,7,8
 280 301.693359375 280 301.693359375 280 470 c 2,9,-1
 280 1431 l 1,10,-1
 140 1431 l 1,11,-1
 140 464.11328125 l 1,12,13
 141.936523438 249.116210938 141.936523438 249.116210938 276.22265625 127.123046875 c 0,14,15
 408.094178828 5.130859375 408.094178828 5.130859375 614.748318379 5 c 1,16,-1
 659.937938127 6.9638671875 l 1,17,18
 849.89453125 22.3720703125 849.89453125 22.3720703125 971.471679688 146.315429688 c 128,-1,19
 1093.04980469 270.2578125 1093.04980469 270.2578125 1094 466.124023438 c 0,20,21
 1094 948.561523438 1094 948.561523438 1094 1431 c 1,0,-1
EndSplineSet
Substitution2: "Podtablica 'c2sc' Wersaliki na kapitaliki w tablicy 0" U.c2sc
Position2: "Podtablica 'cpsp' +AVoA-wiat+AUIA-o wersalikowe w tablicy 0" dx=36 dy=0 dh=72 dv=0
EndChar

StartChar: V
Encoding: 86 86 58
Width: 1203
GlyphClass: 2
Flags: W
LayerCount: 2
Fore
SplineSet
998.884765625 1431 m 1,0,-1
 590.138092015 178.438476562 l 1,1,-1
 183.251953125 1431 l 1,2,-1
 28 1431 l 1,3,-1
 528.455113417 25 l 1,4,-1
 653.791101751 25 l 1,5,-1
 1155.14160156 1431 l 1,6,-1
 998.884765625 1431 l 1,0,-1
EndSplineSet
Substitution2: "Podtablica 'c2sc' Wersaliki na kapitaliki w tablicy 0" V.c2sc
Position2: "Podtablica 'cpsp' +AVoA-wiat+AUIA-o wersalikowe w tablicy 0" dx=36 dy=0 dh=72 dv=0
EndChar

StartChar: W
Encoding: 87 87 59
Width: 1717
GlyphClass: 2
Flags: W
LayerCount: 2
Fore
SplineSet
804.64513224 1431 m 1,0,-1
 534.162715672 433.696289062 l 1,1,-1
 466.177011423 133.874023438 l 1,2,-1
 421.459606464 454.358398438 l 1,3,-1
 201.336914062 1431 l 1,4,-1
 61 1431 l 1,5,-1
 396.843029623 25 l 1,6,-1
 527.529713357 25 l 1,7,-1
 819.780785784 1067.07324219 l 1,8,-1
 865.014890317 1295.23535156 l 1,9,-1
 910.271419426 1066.95703125 l 1,10,-1
 1192.15392914 25 l 1,11,-1
 1322.67429728 25 l 1,12,-1
 1659.44140625 1431 l 1,13,-1
 1518.19824219 1431 l 1,14,-1
 1301.8465392 455.255859375 l 1,15,-1
 1252.89836449 131.796875 l 1,16,-1
 1187.20931043 433.883789062 l 1,17,-1
 923.350552601 1431 l 1,18,-1
 804.64513224 1431 l 1,0,-1
EndSplineSet
Substitution2: "Podtablica 'c2sc' Wersaliki na kapitaliki w tablicy 0" W.c2sc
Position2: "Podtablica 'cpsp' +AVoA-wiat+AUIA-o wersalikowe w tablicy 0" dx=36 dy=0 dh=72 dv=0
EndChar

StartChar: X
Encoding: 88 88 60
Width: 1184
GlyphClass: 2
Flags: W
LayerCount: 2
Fore
SplineSet
911.052734375 1431 m 1,0,-1
 573.217421015 850.952148438 l 1,1,-1
 233.39453125 1431 l 1,2,-1
 67.8251953125 1431 l 1,3,-1
 495.082831746 733.952148438 l 1,4,-1
 57 25 l 1,5,-1
 224.450195312 25 l 1,6,-1
 573.215633427 614.791015625 l 1,7,-1
 919.995117188 25 l 1,8,-1
 1088.45703125 25 l 1,9,-1
 651.258161901 733.952148438 l 1,10,-1
 1077.6328125 1431 l 1,11,-1
 911.052734375 1431 l 1,0,-1
EndSplineSet
Substitution2: "Podtablica 'c2sc' Wersaliki na kapitaliki w tablicy 0" X.c2sc
Position2: "Podtablica 'cpsp' +AVoA-wiat+AUIA-o wersalikowe w tablicy 0" dx=36 dy=0 dh=72 dv=0
EndChar

StartChar: Y
Encoding: 89 89 61
Width: 1130
GlyphClass: 2
Flags: W
LayerCount: 2
Fore
SplineSet
15 1431 m 1,0,-1
 480.449182898 549.421875 l 1,1,-1
 480.449182898 25 l 1,2,-1
 610.996208366 25 l 1,3,-1
 610.996208366 549.421875 l 1,4,-1
 1076.44628906 1431 l 1,5,-1
 915.905273438 1431 l 1,6,-1
 545.668827746 670.681640625 l 1,7,-1
 177.50390625 1431 l 1,8,-1
 15 1431 l 1,0,-1
EndSplineSet
Substitution2: "Podtablica 'c2sc' Wersaliki na kapitaliki w tablicy 0" Y.c2sc
Position2: "Podtablica 'cpsp' +AVoA-wiat+AUIA-o wersalikowe w tablicy 0" dx=36 dy=0 dh=72 dv=0
EndChar

StartChar: Z
Encoding: 90 90 62
Width: 1126
GlyphClass: 2
Flags: W
LayerCount: 2
Fore
SplineSet
1046 132 m 1,0,-1
 240.311523438 132 l 1,1,-1
 1014 1322.79980469 l 1,2,-1
 1014 1431 l 1,3,-1
 99 1431 l 1,4,-1
 99 1323 l 1,5,-1
 856.680664062 1323 l 1,6,-1
 86 136.202148438 l 1,7,-1
 86 25 l 1,8,-1
 1046 25 l 1,9,-1
 1046 132 l 1,0,-1
EndSplineSet
Substitution2: "Podtablica 'c2sc' Wersaliki na kapitaliki w tablicy 0" Z.c2sc
Position2: "Podtablica 'cpsp' +AVoA-wiat+AUIA-o wersalikowe w tablicy 0" dx=36 dy=0 dh=72 dv=0
EndChar

StartChar: bracketleft
Encoding: 91 91 63
Width: 543
GlyphClass: 1
Flags: W
LayerCount: 2
Fore
SplineSet
498 -185 m 1,0,-1
 307 -185 l 1,1,-1
 307 1537 l 1,2,-1
 498 1537 l 1,3,-1
 498 1639 l 1,4,-1
 171 1639 l 1,5,-1
 171 -287 l 1,6,-1
 498 -287 l 1,7,-1
 498 -185 l 1,0,-1
EndSplineSet
EndChar

StartChar: backslash
Encoding: 92 92 64
Width: 840
GlyphClass: 1
Flags: W
LayerCount: 2
Fore
SplineSet
198.824595815 1431 m 1,0,-1
 76.4037406808 1431 l 1,1,-1
 665.175404185 -100 l 1,2,-1
 787.596259319 -100 l 1,3,-1
 198.824595815 1431 l 1,0,-1
EndSplineSet
EndChar

StartChar: bracketright
Encoding: 93 93 65
Width: 543
GlyphClass: 1
Flags: W
LayerCount: 2
Fore
SplineSet
362 1639 m 1,0,-1
 34 1639 l 1,1,-1
 34 1537 l 1,2,-1
 227 1537 l 1,3,-1
 227 -185 l 1,4,-1
 34 -185 l 1,5,-1
 34 -287 l 1,6,-1
 362 -287 l 1,7,-1
 362 1639 l 1,0,-1
EndSplineSet
EndChar

StartChar: asciicircum
Encoding: 94 94 66
Width: 856
GlyphClass: 1
Flags: W
LayerCount: 2
Fore
SplineSet
425.938950166 1279.02718997 m 1,0,-1
 633.989143703 754 l 1,1,-1
 750.729363 754 l 1,2,-1
 473.224548694 1431 l 1,3,-1
 379.754102761 1431 l 1,4,-1
 101.318064246 754 l 1,5,-1
 218.978024658 754 l 1,6,-1
 425.938950166 1279.02718997 l 1,0,-1
EndSplineSet
EndChar

StartChar: underscore
Encoding: 95 95 67
Width: 924
GlyphClass: 1
Flags: W
LayerCount: 2
Fore
SplineSet
29 -126 m 1,0,-1
 895 -126 l 1,1,-1
 895 -25 l 1,2,-1
 29 -25 l 1,3,-1
 29 -126 l 1,0,-1
EndSplineSet
EndChar

StartChar: grave
Encoding: 96 96 68
Width: 633
GlyphClass: 1
Flags: W
LayerCount: 2
Fore
SplineSet
326.316472792 1267 m 1,0,-1
 427.552891541 1267 l 1,1,-1
 266.54608882 1511 l 1,2,-1
 112.194023812 1511 l 1,3,-1
 326.316472792 1267 l 1,0,-1
EndSplineSet
EndChar

StartChar: a
Encoding: 97 97 69
Width: 1014
GlyphClass: 2
Flags: W
LayerCount: 2
Fore
SplineSet
344.069335938 923.047851562 m 0,0,1
 408.608853552 978 408.608853552 978 500.398532857 978 c 0,2,3
 605.867689808 978 605.867689808 978 663.596679688 913.250976562 c 0,4,5
 729 848.412109375 729 848.412109375 729 741 c 2,6,-1
 729 631 l 1,7,-1
 542.317518466 631 l 2,8,9
 349.127929688 631 349.127929688 631 227.186523438 542.272460938 c 0,10,11
 109 456.276367188 109 456.276367188 109 300 c 0,12,13
 109 172.270507812 109 172.270507812 203.725585938 88.6357421875 c 128,-1,14
 298.450195312 5 298.450195312 5 435.381330689 5 c 0,15,16
 579.421869307 5 579.421869307 5 688.990234375 131.33203125 c 2,17,-1
 725.454101562 169.209960938 l 1,18,-1
 731.815429688 117.052734375 l 2,19,20
 739.075195312 57.517578125 739.075195312 57.517578125 749.860351562 25 c 1,21,-1
 896.515625 25 l 1,22,23
 864 113.776367188 864 113.776367188 864 253 c 2,24,-1
 864 750.685546875 l 1,25,26
 860.178710938 903.564453125 860.178710938 903.564453125 761.8671875 990.282226562 c 128,-1,27
 663.556640625 1077 663.556640625 1077 509.808917382 1077 c 0,28,29
 413.427665514 1077 413.427665514 1077 330.174804688 1035.38378906 c 0,30,31
 237.012695312 993.768554688 237.012695312 993.768554688 183.400390625 923.373046875 c 0,32,33
 139.938476562 866.306640625 139.938476562 866.306640625 132.546875 807 c 1,34,-1
 268.895507812 807 l 1,35,36
 279.352539062 874.751953125 279.352539062 874.751953125 344.069335938 923.047851562 c 0,0,1
610.684830892 164.588867188 m 0,37,38
 538.634903499 116 538.634903499 116 458.479547249 116 c 0,39,40
 372.810293816 116 372.810293816 116 309.9296875 171.69921875 c 0,41,42
 244 227.3984375 244 227.3984375 244 326 c 0,43,44
 244 381.662109375 244 381.662109375 267.901367188 424.331054688 c 0,45,46
 338.298828125 550 338.298828125 550 572.259651043 550 c 2,47,-1
 729 550 l 1,48,-1
 729 297.240234375 l 1,49,-1
 726.498046875 292.09375 l 2,50,51
 688.13671875 213.177734375 688.13671875 213.177734375 610.684830892 164.588867188 c 0,37,38
EndSplineSet
Substitution2: "Podtablica 'smcp' Tekstowe na kapitaliki w tablicy 1" A.c2sc
EndChar

StartChar: b
Encoding: 98 98 70
Width: 1049
GlyphClass: 2
Flags: W
LayerCount: 2
Fore
SplineSet
847.060546875 170.57421875 m 0,0,1
 956 314.39453125 956 314.39453125 956 554 c 2,2,3
 956 587 956 587 956 570 c 2,4,5
 956 820.626953125 956 820.626953125 848.537109375 962.956054688 c 0,6,7
 743.553710938 1102 743.553710938 1102 578.981791417 1102 c 0,8,9
 418.857021737 1102 418.857021737 1102 319.475585938 972.33203125 c 2,10,11
 297.23828125 969.732421875 297.23828125 969.732421875 275 917.133789062 c 1,12,13
 275 1251.56738281 275 1251.56738281 275 1536 c 1,14,-1
 140 1536 l 1,15,16
 140 818 140 818 140 50 c 1,17,-1
 261.734375 50 l 1,18,19
 267.75 158.543945312 267.75 158.543945312 273.764648438 217.088867188 c 1,20,21
 293.780273438 216.17578125 293.780273438 216.17578125 313.795898438 165.262695312 c 2,22,23
 413.933138953 30 413.933138953 30 580.9262978 30 c 0,24,25
 740.578125 30 740.578125 30 847.060546875 170.57421875 c 0,0,1
743.41015625 856.432617188 m 0,26,27
 821 746.95703125 821 746.95703125 821 550 c 0,28,29
 821 334.955078125 821 334.955078125 742.31640625 225.435546875 c 0,30,31
 667.417061659 112 667.417061659 112 541.068147832 112 c 0,32,33
 466.197882731 112 466.197882731 112 408.297624372 148.64453125 c 0,34,35
 328.3515625 194.390625 328.3515625 194.390625 277.625 295.84375 c 2,36,-1
 275 301.09375 l 1,37,-1
 275 780.594726562 l 1,38,-1
 277.366210938 785.623046875 l 2,39,40
 325.275390625 887.4296875 325.275390625 887.4296875 405.591561966 933.334960938 c 0,41,42
 463.290431064 970 463.290431064 970 539.33518479 970 c 0,43,44
 669.238872904 970 669.238872904 970 743.41015625 856.432617188 c 0,26,27
EndSplineSet
Substitution2: "Podtablica 'ss06' Styl 6 w tablicy 16" b.ss06
Substitution2: "Podtablica 'smcp' Tekstowe na kapitaliki w tablicy 1" B.c2sc
EndChar

StartChar: c
Encoding: 99 99 71
Width: 972
GlyphClass: 2
Flags: W
LayerCount: 2
Fore
SplineSet
687.728515625 171.572265625 m 0,0,1
 613.571380992 106 613.571380992 106 520.346096722 106 c 0,2,3
 386.048813231 106 386.048813231 106 309.107421875 216.86328125 c 0,4,5
 227 324.5625 227 324.5625 227 520 c 2,6,-1
 227 555 l 2,7,8
 227 755.447265625 227 755.447265625 309.619140625 863.651367188 c 0,9,10
 386.923296177 975 386.923296177 975 519.481742922 975 c 0,11,12
 618.821655051 975 618.821655051 975 691.654296875 900.678710938 c 0,13,14
 761.944335938 834.322265625 761.944335938 834.322265625 776.3828125 735 c 1,15,-1
 902.125976562 735 l 1,16,17
 887.540039062 880.5625 887.540039062 880.5625 783.739257812 974.45703125 c 0,18,19
 670.377929688 1077 670.377929688 1077 519.481742922 1077 c 0,20,21
 397.768235262 1077 397.768235262 1077 304.75 1012.80078125 c 0,22,23
 202.491210938 948.712890625 202.491210938 948.712890625 147.24609375 831.553710938 c 128,-1,24
 92 714.39453125 92 714.39453125 92 562 c 2,25,-1
 92 531 l 2,26,27
 92 284.46484375 92 284.46484375 215.627929688 144.732421875 c 0,28,29
 339.052951735 5 339.052951735 5 520.346096722 5 c 0,30,31
 610.250709264 5 610.250709264 5 696.073242188 52.23828125 c 0,32,33
 789.131835938 99.4765625 789.131835938 99.4765625 844.528320312 178.345703125 c 0,34,35
 891.0234375 244.541992188 891.0234375 244.541992188 901.420898438 316 c 1,36,-1
 775.825195312 316 l 1,37,38
 760.15234375 230.294921875 760.15234375 230.294921875 687.728515625 171.572265625 c 0,0,1
EndSplineSet
Substitution2: "Podtablica 'ss06' Styl 6 w tablicy 16" c.ss06
Substitution2: "Podtablica 'smcp' Tekstowe na kapitaliki w tablicy 1" C.c2sc
EndChar

StartChar: d
Encoding: 100 100 72
Width: 1055
GlyphClass: 2
Flags: W
LayerCount: 2
Fore
SplineSet
207.733398438 960.157226562 m 0,0,1
 95 815.41796875 95 815.41796875 95 575 c 2,2,3
 95 593 95 593 95 561 c 2,4,5
 95 321.5 95 321.5 208.32421875 174.2265625 c 0,6,7
 319.303710938 30 319.303710938 30 474.239797566 30 c 0,8,9
 635.325654624 30 635.325654624 30 734.624023438 156.791015625 c 2,10,11
 754.361328125 205.973632812 754.361328125 205.973632812 774.098632812 205.157226562 c 1,12,13
 780.1171875 152.578125 780.1171875 152.578125 786.13671875 50 c 1,14,-1
 908 50 l 1,15,16
 908 818 908 818 908 1536 c 1,17,-1
 773 1536 l 1,18,19
 773 1257.61328125 773 1257.61328125 773 929.2265625 c 1,20,21
 750.991210938 980.00390625 750.991210938 980.00390625 728.981445312 980.780273438 c 2,22,23
 630.426491879 1102 630.426491879 1102 475.837075053 1102 c 0,24,25
 318.211914062 1102 318.211914062 1102 207.733398438 960.157226562 c 0,0,1
310.802734375 226.271484375 m 0,26,27
 230 336.84375 230 336.84375 230 529 c 0,28,29
 230 743.09375 230 743.09375 310.735351562 854.635742188 c 0,30,31
 387.039433377 970 387.039433377 970 515.779153656 970 c 0,32,33
 587.167315851 970 587.167315851 970 642.735669968 937.033203125 c 0,34,35
 720.180664062 895.713867188 720.180664062 895.713867188 769.990234375 803.89453125 c 2,36,-1
 773 798.346679688 l 1,37,-1
 773 288.9609375 l 1,38,-1
 770.26171875 283.620117188 l 2,39,40
 721.634765625 188.767578125 721.634765625 188.767578125 643.22922026 146.05859375 c 0,41,42
 587.078578212 112 587.078578212 112 514.048347152 112 c 0,43,44
 387.101127164 112 387.101127164 112 310.802734375 226.271484375 c 0,26,27
EndSplineSet
Substitution2: "Podtablica 'ss06' Styl 6 w tablicy 16" d.ss06
Substitution2: "Podtablica 'smcp' Tekstowe na kapitaliki w tablicy 1" D.c2sc
EndChar

StartChar: e
Encoding: 101 101 73
Width: 985
GlyphClass: 2
Flags: W
LayerCount: 2
Fore
SplineSet
227.3671875 513 m 1,0,-1
 911 513 l 1,1,-1
 911 565 l 2,2,3
 911 814.885742188 911 814.885742188 800.685546875 945.942382812 c 128,-1,4
 690.37109375 1077 690.37109375 1077 514.140671483 1077 c 0,5,6
 408.673669169 1077 408.673669169 1077 314.91015625 1009.40136719 c 0,7,8
 210.440429688 941.802734375 210.440429688 941.802734375 151.719726562 821.021484375 c 128,-1,9
 93 700.239257812 93 700.239257812 93 545 c 2,10,-1
 93 511 l 2,11,12
 93 279.012695312 93 279.012695312 223.84375 142.006835938 c 0,13,14
 352.572181789 5 352.572181789 5 534.086060348 5 c 0,15,16
 760.116210938 5 760.116210938 5 888.122070312 183.700195312 c 1,17,-1
 812.928710938 242.2578125 l 1,18,19
 764.4140625 185.768554688 764.4140625 185.768554688 702.6484375 149.435546875 c 0,20,21
 633.646172066 106 633.646172066 106 542.757968551 106 c 0,22,23
 413.497418107 106 413.497418107 106 328.591796875 212.041015625 c 0,24,25
 232.240234375 318.081054688 232.240234375 318.081054688 228.0078125 487.364257812 c 2,26,-1
 227.3671875 513 l 1,0,-1
335.653320312 886.547851562 m 0,27,28
 407.59476184 975 407.59476184 975 514.140671483 975 c 0,29,30
 624.549137114 975 624.549137114 975 692.895507812 890.002929688 c 0,31,32
 767.47265625 805.006835938 767.47265625 805.006835938 775.958984375 655.435546875 c 1,33,-1
 776 654 l 1,34,-1
 776 640 l 1,35,-1
 776 615 l 1,36,-1
 230.75 615 l 1,37,-1
 234.186523438 643.064453125 l 2,38,39
 253.169921875 798.094726562 253.169921875 798.094726562 335.653320312 886.547851562 c 0,27,28
EndSplineSet
Substitution2: "Podtablica 'ss07' Styl 7 w tablicy 17" e.ss07
Substitution2: "Podtablica 'smcp' Tekstowe na kapitaliki w tablicy 1" E.c2sc
EndChar

StartChar: f
Encoding: 102 102 74
Width: 661
GlyphClass: 2
Flags: W
LayerCount: 2
Fore
SplineSet
60 1082 m 1,0,1
 60 1060.5 60 1060.5 60 989 c 1,2,-1
 231 989 l 1,3,4
 231 544.5 231 544.5 231 50 c 1,5,-1
 366 50 l 1,6,7
 366 544.5 366 544.5 366 989 c 1,8,-1
 597 989 l 1,9,10
 597 1060.5 597 1060.5 597 1082 c 1,11,-1
 366 1082 l 1,12,13
 366 1176.5 366 1176.5 366 1221 c 2,14,15
 366 1328.84667969 366 1328.84667969 422.071289062 1388.92382812 c 128,-1,16
 478.142578125 1449 478.142578125 1449 579 1449 c 0,17,18
 619.026367188 1449 619.026367188 1449 655.881835938 1444.06835938 c 1,19,20
 659.271484375 1519.91503906 659.271484375 1519.91503906 662.661132812 1545.76074219 c 1,21,22
 612.645507812 1557 612.645507812 1557 562 1557 c 0,23,24
 402.504882812 1557 402.504882812 1557 316.751953125 1469.40332031 c 128,-1,25
 231 1381.80664062 231 1381.80664062 231 1218 c 2,26,27
 231 1175 231 1175 231 1082 c 1,28,-1
 60 1082 l 1,0,1
EndSplineSet
Substitution2: "Podtablica 'smcp' Tekstowe na kapitaliki w tablicy 1" F.c2sc
EndChar

StartChar: g
Encoding: 103 103 75
Width: 1049
GlyphClass: 2
Flags: W
LayerCount: 2
Fore
SplineSet
207.698242188 912.111328125 m 0,0,1
 96 769.385742188 96 769.385742188 96 525 c 0,2,3
 96 269.486328125 96 269.486328125 208.338867188 123.20703125 c 0,4,5
 318.318359375 -20 318.318359375 -20 476.556133257 -20 c 0,6,7
 631.648054719 -20 631.648054719 -20 730.107421875 99.3662109375 c 2,8,9
 752.053710938 99.673828125 752.053710938 99.673828125 774 149.981445312 c 1,10,11
 774 44.990234375 774 44.990234375 774 -10 c 2,12,13
 774 -158.299804688 774 -158.299804688 691.232421875 -241.615234375 c 0,14,15
 615.892660764 -325 615.892660764 -325 490.013530928 -325 c 0,16,17
 343.041534529 -325 343.041534529 -325 221.916015625 -191.307617188 c 1,18,19
 189.876953125 -253.353515625 189.876953125 -253.353515625 157.837890625 -265.3984375 c 1,20,21
 211.81640625 -335.58984375 211.81640625 -335.58984375 307.170898438 -378.159179688 c 0,22,23
 404.592832375 -426 404.592832375 -426 501.26847079 -426 c 0,24,25
 675.859375 -426 675.859375 -426 792.9296875 -312.220703125 c 128,-1,26
 910 -198.442382812 910 -198.442382812 910 1 c 2,27,28
 910 491.5 910 491.5 910 1032 c 1,29,-1
 789.196289062 1032 l 1,30,31
 783.171875 926.677734375 783.171875 926.677734375 777.147460938 871.354492188 c 1,32,33
 757.274414062 871.419921875 757.274414062 871.419921875 737.400390625 921.486328125 c 2,34,35
 637.991640491 1052 637.991640491 1052 477.027061856 1052 c 0,36,37
 317.17578125 1052 317.17578125 1052 207.698242188 912.111328125 c 0,0,1
311.676757812 226.946289062 m 0,38,39
 232 337.961914062 232 337.961914062 232 529 c 0,40,41
 232 743.09375 232 743.09375 312.735351562 854.635742188 c 0,42,43
 388.924522164 970 388.924522164 970 516.852233677 970 c 0,44,45
 587.569306993 970 587.569306993 970 643.12112668 936.569335938 c 0,46,47
 720.052734375 894.78125 720.052734375 894.78125 770.935546875 801.994140625 c 2,48,-1
 774 796.407226562 l 1,49,-1
 774 289.928710938 l 1,50,-1
 771.234375 284.56640625 l 2,51,52
 722.068359375 189.232421875 722.068359375 189.232421875 643.984354865 146.291015625 c 0,53,54
 587.829712753 112 587.829712753 112 515.120704467 112 c 0,55,56
 387.138037193 112 387.138037193 112 311.676757812 226.946289062 c 0,38,39
EndSplineSet
Substitution2: "Podtablica 'ss07' Styl 7 w tablicy 17" g.ss07
Substitution2: "Podtablica 'ss06' Styl 6 w tablicy 16" g.ss06
Substitution2: "Podtablica 'ss01' Styl 1 w tablicy 11" g.ss01
Substitution2: "Podtablica 'smcp' Tekstowe na kapitaliki w tablicy 1" G.c2sc
EndChar

StartChar: h
Encoding: 104 104 76
Width: 1028
GlyphClass: 2
Flags: W
LayerCount: 2
Fore
SplineSet
319.391601562 960.227539062 m 2,0,1
 297.196289062 957.979492188 297.196289062 957.979492188 275 905.73046875 c 1,2,3
 275 1245.86523438 275 1245.86523438 275 1536 c 1,4,-1
 140 1536 l 1,5,6
 140 818 140 818 140 50 c 1,7,-1
 275 50 l 1,8,9
 275 450.885742188 275 450.885742188 275 801.771484375 c 1,10,11
 276.255859375 829.348632812 276.255859375 829.348632812 277.510742188 806.92578125 c 2,12,13
 318.331054688 890.713867188 318.331054688 890.713867188 391.159708801 942.857421875 c 0,14,15
 453.094452918 995 453.094452918 995 535.203308776 995 c 0,16,17
 637.345444879 995 637.345444879 995 695.370117188 931.484375 c 0,18,19
 754.916015625 867.96875 754.916015625 867.96875 755.999023438 741.217773438 c 1,20,21
 755.999023438 420.608398438 755.999023438 420.608398438 755.999023438 50 c 1,22,-1
 891 50 l 1,23,24
 891 419.950195312 891 419.950195312 891 739.900390625 c 1,25,26
 889.709960938 903.91015625 889.709960938 903.91015625 825.840820312 993.013671875 c 0,27,28
 747.719726562 1102 747.719726562 1102 582.15587437 1102 c 0,29,30
 426.939915342 1102 426.939915342 1102 319.391601562 960.227539062 c 2,0,1
EndSplineSet
Substitution2: "Podtablica 'smcp' Tekstowe na kapitaliki w tablicy 1" H.c2sc
EndChar

StartChar: i
Encoding: 105 105 77
Width: 447
GlyphClass: 2
Flags: W
LayerCount: 2
Fore
SplineSet
156 1057 m 1,0,-1
 156 25 l 1,1,-1
 291 25 l 1,2,-1
 291 1057 l 1,3,-1
 156 1057 l 1,0,-1
288.94921875 1452.69433594 m 128,-1,5
 267.8984375 1476 267.8984375 1476 225 1476 c 128,-1,6
 182.235351562 1476 182.235351562 1476 161.618164062 1452.7578125 c 128,-1,7
 141 1429.51660156 141 1429.51660156 141 1394.1171875 c 128,-1,8
 141 1358.71777344 141 1358.71777344 161.495117188 1336.35839844 c 128,-1,9
 181.991210938 1314 181.991210938 1314 225 1314 c 128,-1,10
 268.142578125 1314 268.142578125 1314 289.071289062 1336.42382812 c 128,-1,11
 310 1358.84667969 310 1358.84667969 310 1394.1171875 c 128,-1,4
 310 1429.38769531 310 1429.38769531 288.94921875 1452.69433594 c 128,-1,5
EndSplineSet
Substitution2: "Podtablica Podstawienie pojedyncze w tablicy 3" glyph609
Substitution2: "Podtablica 'smcp' Tekstowe na kapitaliki w tablicy 1" I.c2sc
EndChar

StartChar: j
Encoding: 106 106 78
Width: 439
GlyphClass: 2
Flags: W
LayerCount: 2
Fore
SplineSet
-65 -425.610351562 m 1,0,1
 -24.0126953125 -437 -24.0126953125 -437 23 -437 c 0,2,3
 167.478515625 -437 167.478515625 -437 229.8515625 -351.04296875 c 0,4,5
 281 -280.556640625 281 -280.556640625 281 -150 c 2,6,7
 281 416 281 416 281 1032 c 1,8,-1
 146 1032 l 1,9,10
 146 414 146 414 146 -154 c 2,11,12
 146 -247.126953125 146 -247.126953125 106.28515625 -288.063476562 c 128,-1,13
 66.5712890625 -329 66.5712890625 -329 -6 -329 c 0,14,15
 -39.4912109375 -329 -39.4912109375 -329 -65 -325.8671875 c 1,16,17
 -65 -400.739257812 -65 -400.739257812 -65 -425.610351562 c 1,0,1
147.677734375 1452.31445312 m 128,-1,19
 127 1428.62988281 127 1428.62988281 127 1393.60839844 c 128,-1,20
 127 1358.58691406 127 1358.58691406 147.063476562 1336.29296875 c 128,-1,21
 167.127929688 1314 167.127929688 1314 210.135742188 1314 c 128,-1,22
 253.142578125 1314 253.142578125 1314 274.071289062 1336.42382812 c 128,-1,23
 295 1358.84667969 295 1358.84667969 295 1394.1171875 c 128,-1,24
 295 1429.38769531 295 1429.38769531 273.94921875 1452.69433594 c 128,-1,25
 252.8984375 1476 252.8984375 1476 210.626953125 1476 c 128,-1,18
 168.35546875 1476 168.35546875 1476 147.677734375 1452.31445312 c 128,-1,19
EndSplineSet
Substitution2: "Podtablica Podstawienie pojedyncze w tablicy 3" glyph607
Substitution2: "Podtablica 'smcp' Tekstowe na kapitaliki w tablicy 1" J.c2sc
EndChar

StartChar: k
Encoding: 107 107 79
Width: 938
GlyphClass: 2
Flags: W
LayerCount: 2
Fore
SplineSet
414.284659949 734.40625 m 1,0,1
 347.35546875 673.63671875 347.35546875 673.63671875 276 562.866210938 c 1,2,3
 276 1074.43261719 276 1074.43261719 276 1536 c 1,4,-1
 141 1536 l 1,5,6
 141 818 141 818 141 50 c 1,7,-1
 276 50 l 1,8,9
 276 257.520507812 276 257.520507812 276 415.041015625 c 1,10,11
 347.649414062 514.779296875 347.649414062 514.779296875 414.792806068 564.516601562 c 1,12,13
 581.565689174 332.258789062 581.565689174 332.258789062 756.470703125 50 c 1,14,-1
 911.162109375 50 l 1,15,16
 686.617327495 378.385742188 686.617327495 378.385742188 491.631397883 656.771484375 c 1,17,18
 662.234726814 894.385742188 662.234726814 894.385742188 854.556640625 1082 c 1,19,-1
 697.751953125 1082 l 1,20,21
 556.018727188 933.203125 556.018727188 933.203125 414.284659949 734.40625 c 1,0,1
EndSplineSet
Substitution2: "Podtablica 'ss05' Styl 5 w tablicy 15" k.ss05
Substitution2: "Podtablica 'ss04' Styl 4 w tablicy 14" k.ss04
Substitution2: "Podtablica 'smcp' Tekstowe na kapitaliki w tablicy 1" K.c2sc
EndChar

StartChar: l
Encoding: 108 108 80
Width: 447
GlyphClass: 2
Flags: W
LayerCount: 2
Fore
SplineSet
156 1536 m 1,0,1
 156 818 156 818 156 50 c 1,2,-1
 291 50 l 1,3,4
 291 818 291 818 291 1536 c 1,5,-1
 156 1536 l 1,0,1
EndSplineSet
Substitution2: "Podtablica 'smcp' Tekstowe na kapitaliki w tablicy 1" L.c2sc
EndChar

StartChar: m
Encoding: 109 109 81
Width: 1695
GlyphClass: 2
Flags: W
LayerCount: 2
Fore
SplineSet
1486.72460938 970.392578125 m 0,0,1
 1404.49316406 1077 1404.49316406 1077 1223.676672 1077 c 0,2,3
 1117.86679142 1077 1117.86679142 1077 1040.90185373 1031.98339844 c 128,-1,4
 963.936916033 986.967773438 963.936916033 986.967773438 915.875291163 913.793945312 c 2,5,-1
 892.440222738 878.115234375 l 1,6,-1
 874.892179884 917.365234375 l 2,7,8
 835.295123098 1005.92675781 835.295123098 1005.92675781 757.292497548 1045.04003906 c 0,9,10
 693.556227007 1077 693.556227007 1077 603.198630418 1077 c 0,11,12
 422.515864986 1077 422.515864986 1077 313.0546875 945.823242188 c 2,13,-1
 271.6796875 897.146484375 l 1,14,-1
 265.01953125 1057 l 1,15,-1
 139 1057 l 1,16,-1
 139 25 l 1,17,-1
 274 25 l 1,18,-1
 274 795.180664062 l 1,19,-1
 276.040039062 799.901367188 l 2,20,21
 316.76953125 894.125976562 316.76953125 894.125976562 396.676510859 936.520507812 c 0,22,23
 457.026398262 970 457.026398262 970 539.632837167 970 c 0,24,25
 672.935886892 970 672.935886892 970 734.186339113 887.5546875 c 0,26,27
 782.511091975 822.506835938 782.511091975 822.506835938 782.511091975 709 c 2,28,-1
 782.511091975 25 l 1,29,-1
 911.540164842 25 l 1,30,-1
 911.540164842 719.334960938 l 1,31,32
 923.058500046 834.123046875 923.058500046 834.123046875 994.309668982 902.044921875 c 128,-1,33
 1065.59604518 970 1065.59604518 970 1172.44454012 970 c 0,34,35
 1301.42636113 970 1301.42636113 970 1360.97460938 904.87890625 c 0,36,37
 1421 839.756835938 1421 839.756835938 1421 714 c 2,38,-1
 1421 25 l 1,39,-1
 1556 25 l 1,40,-1
 1556 724.795898438 l 1,41,42
 1553.42578125 883.918945312 1553.42578125 883.918945312 1486.72460938 970.392578125 c 0,0,1
EndSplineSet
Substitution2: "Podtablica 'smcp' Tekstowe na kapitaliki w tablicy 1" M.c2sc
EndChar

StartChar: n
Encoding: 110 110 82
Width: 1030
GlyphClass: 2
Flags: W
LayerCount: 2
Fore
SplineSet
825.840820312 968.013671875 m 0,0,1
 747.719726562 1077 747.719726562 1077 582.15587437 1077 c 0,2,3
 424.579350215 1077 424.579350215 1077 315.580078125 930.461914062 c 2,4,-1
 273.970703125 878.114257812 l 1,5,-1
 266.078125 1057 l 1,6,-1
 140 1057 l 1,7,-1
 140 25 l 1,8,-1
 275 25 l 1,9,-1
 275 776.771484375 l 1,10,-1
 277.510742188 781.92578125 l 2,11,12
 318.331054688 865.713867188 318.331054688 865.713867188 391.159708801 917.857421875 c 0,13,14
 453.094452918 970 453.094452918 970 535.203308776 970 c 0,15,16
 637.345444879 970 637.345444879 970 695.370117188 906.484375 c 0,17,18
 754.916015625 842.96875 754.916015625 842.96875 755.999023438 716.217773438 c 1,19,-1
 755.999023438 25 l 1,20,-1
 891 25 l 1,21,-1
 891 714.900390625 l 1,22,23
 889.709960938 878.91015625 889.709960938 878.91015625 825.840820312 968.013671875 c 0,0,1
EndSplineSet
Substitution2: "Podtablica 'smcp' Tekstowe na kapitaliki w tablicy 1" N.c2sc
EndChar

StartChar: o
Encoding: 111 111 83
Width: 1068
GlyphClass: 2
Flags: W
LayerCount: 2
Fore
SplineSet
150.6328125 825.349609375 m 128,-1,1
 91 704.176757812 91 704.176757812 91 551 c 2,2,-1
 91 538 l 2,3,4
 91 295.524414062 91 295.524414062 220.596679688 150.26171875 c 0,5,6
 348.678819895 5 348.678819895 5 533.943627672 5 c 0,7,8
 657.146483758 5 657.146483758 5 754.319335938 71.2421875 c 0,9,10
 860.626953125 137.388671875 860.626953125 137.388671875 918.313476562 257.053710938 c 128,-1,11
 976 376.717773438 976 376.717773438 976 529 c 2,12,-1
 976 542 l 2,13,14
 976 786.475585938 976 786.475585938 846.403320312 931.73828125 c 0,15,16
 718.321180105 1077 718.321180105 1077 532.169116984 1077 c 0,17,18
 411.59856728 1077 411.59856728 1077 315.62890625 1011.72558594 c 0,19,0
 210.264648438 946.522460938 210.264648438 946.522460938 150.6328125 825.349609375 c 128,-1,1
315.642578125 224.81640625 m 0,20,21
 227 340.530273438 227 340.530273438 227 529 c 0,22,23
 227 740.509765625 227 740.509765625 316.1875 856.240234375 c 0,24,25
 399.708999085 975 399.708999085 975 533.525993809 975 c 128,-1,26
 667.342988533 975 667.342988533 975 751.370117188 854.666015625 c 0,27,28
 841 737.458007812 841 737.458007812 841 551 c 0,29,30
 841 343.662109375 841 343.662109375 753.000976562 226.506835938 c 0,31,32
 670.123459626 106 670.123459626 106 534.453106327 106 c 128,-1,33
 398.781886567 106 398.781886567 106 315.642578125 224.81640625 c 0,20,21
EndSplineSet
Substitution2: "Podtablica 'ss06' Styl 6 w tablicy 16" o.ss06
Substitution2: "Podtablica 'smcp' Tekstowe na kapitaliki w tablicy 1" O.c2sc
EndChar

StartChar: p
Encoding: 112 112 84
Width: 1049
GlyphClass: 2
Flags: W
LayerCount: 2
Fore
SplineSet
845.971679688 120.958007812 m 0,0,1
 954 265.313476562 954 265.313476562 954 504 c 2,2,3
 954 487.5 954 487.5 954 521 c 2,4,5
 954 774.477539062 954 774.477539062 845.701171875 914.741210938 c 0,6,7
 739.72265625 1052 739.72265625 1052 577.301761168 1052 c 0,8,9
 413.624058884 1052 413.624058884 1052 312.462890625 921.315429688 c 2,10,11
 292.626953125 871.740234375 292.626953125 871.740234375 272.791015625 872.165039062 c 1,12,13
 266.797851562 927.08203125 266.797851562 927.08203125 260.803710938 1032 c 1,14,-1
 140 1032 l 1,15,16
 140 283 140 283 140 -416 c 1,17,-1
 275 -416 l 1,18,19
 275 -160.536132812 275 -160.536132812 275 144.927734375 c 1,20,21
 296.774414062 95.841796875 296.774414062 95.841796875 318.547851562 96.7548828125 c 2,22,23
 418.948849393 -20 418.948849393 -20 579.899054983 -20 c 0,24,25
 740.487304688 -20 740.487304688 -20 845.971679688 120.958007812 c 0,0,1
736.1484375 853.794921875 m 0,26,27
 819 741.202148438 819 741.202148438 819 550 c 0,28,29
 819 333.724609375 819 333.724609375 735.569335938 221.59765625 c 0,30,31
 657.433179088 106 657.433179088 106 531.416237113 106 c 0,32,33
 460.515696103 106 460.515696103 106 405.230200489 137.84765625 c 0,34,35
 328.069335938 177.836914062 328.069335938 177.836914062 278.178710938 266.797851562 c 2,36,-1
 275 272.466796875 l 1,37,-1
 275 802.5625 l 1,38,-1
 278.206054688 808.250976562 l 2,39,40
 328.609375 897.65625 328.609375 897.65625 404.999386293 937.8828125 c 0,41,42
 459.865527176 970 459.865527176 970 529.684707904 970 c 0,43,44
 658.371654393 970 658.371654393 970 736.1484375 853.794921875 c 0,26,27
EndSplineSet
Substitution2: "Podtablica 'ss06' Styl 6 w tablicy 16" p.ss06
Substitution2: "Podtablica 'smcp' Tekstowe na kapitaliki w tablicy 1" P.c2sc
EndChar

StartChar: q
Encoding: 113 113 85
Width: 1064
GlyphClass: 2
Flags: W
LayerCount: 2
Fore
SplineSet
206.647460938 913.046875 m 0,0,1
 95 771.340820312 95 771.340820312 95 525 c 2,2,3
 95 493.5 95 493.5 95 512 c 2,4,5
 95 268.451171875 95 268.451171875 206.377929688 122.65625 c 0,6,7
 315.357421875 -20 315.357421875 -20 477.643921399 -20 c 0,8,9
 629.149248104 -20 629.149248104 -20 728.72265625 92.0498046875 c 2,10,11
 750.361328125 90.234375 750.361328125 90.234375 772 138.418945312 c 1,12,13
 772 -163.791015625 772 -163.791015625 772 -416 c 1,14,-1
 907 -416 l 1,15,16
 907 283 907 283 907 1032 c 1,17,-1
 785.233398438 1032 l 1,18,19
 779.870117188 933.922851562 779.870117188 933.922851562 774.506835938 885.845703125 c 1,20,21
 754.775390625 883.776367188 754.775390625 883.776367188 735.043945312 931.70703125 c 2,22,23
 635.544968268 1052 635.544968268 1052 479.374001296 1052 c 0,24,25
 316.125976562 1052 316.125976562 1052 206.647460938 913.046875 c 0,0,1
313.397460938 222.143554688 m 0,26,27
 230 334.755859375 230 334.755859375 230 529 c 0,28,29
 230 745.254882812 230 745.254882812 313.909179688 858.373046875 c 0,30,31
 392.369060492 975 392.369060492 975 519.165838912 975 c 0,32,33
 586.487741832 975 586.487741832 975 640.617785542 944.197265625 c 0,34,35
 715.619140625 905.693359375 715.619140625 905.693359375 768.307617188 820.076171875 c 2,36,-1
 772 814.075195312 l 1,37,-1
 772 270.116210938 l 1,38,-1
 768.4921875 264.229492188 l 2,39,40
 716.380859375 176.779296875 716.380859375 176.779296875 640.597511168 137.4453125 c 0,41,42
 585.962297644 106 585.962297644 106 517.435759015 106 c 0,43,44
 391.493883357 106 391.493883357 106 313.397460938 222.143554688 c 0,26,27
EndSplineSet
Substitution2: "Podtablica 'ss06' Styl 6 w tablicy 16" q.ss06
Substitution2: "Podtablica 'smcp' Tekstowe na kapitaliki w tablicy 1" Q.c2sc
EndChar

StartChar: r
Encoding: 114 114 86
Width: 643
GlyphClass: 2
Flags: W
LayerCount: 2
Fore
SplineSet
140 25 m 1,0,-1
 275 25 l 1,1,-1
 275 773.040039062 l 1,2,-1
 276.93359375 777.651367188 l 2,3,4
 316.506835938 872.017578125 316.506835938 872.017578125 396.653320312 914.48828125 c 0,5,6
 459.893554688 948 459.893554688 948 547 948 c 0,7,8
 581.6328125 948 581.6328125 948 613 944.630859375 c 1,9,-1
 613 1070.74414062 l 1,10,11
 590.405273438 1077 590.405273438 1077 556 1077 c 0,12,13
 402.825195312 1077 402.825195312 1077 319.19140625 943.737304688 c 2,14,-1
 275.000976562 873.32421875 l 1,15,-1
 270.592773438 1057 l 1,16,-1
 140 1057 l 1,17,-1
 140 25 l 1,0,-1
EndSplineSet
Substitution2: "Podtablica 'smcp' Tekstowe na kapitaliki w tablicy 1" R.c2sc
EndChar

StartChar: s
Encoding: 115 115 87
Width: 956
GlyphClass: 2
Flags: W
LayerCount: 2
Fore
SplineSet
474.820982426 498.552734375 m 128,-1,1
 594.049003807 468.334960938 594.049003807 468.334960938 652.2265625 423.661132812 c 0,2,3
 718.94921875 374.653320312 718.94921875 374.653320312 718.94921875 288.65234375 c 128,-1,4
 718.94921875 202.651367188 718.94921875 202.651367188 644.329101562 152.708984375 c 0,5,6
 579.840304082 106 579.840304082 106 484.984275286 106 c 0,7,8
 381.672136717 106 381.672136717 106 313.041015625 165.817382812 c 0,9,10
 244.0625 219.908203125 244.0625 219.908203125 231.310546875 308 c 1,11,-1
 95 308 l 1,12,13
 101.298828125 234.00390625 101.298828125 234.00390625 146.08984375 168.6015625 c 0,14,15
 198.665039062 91.83203125 198.665039062 91.83203125 293.047851562 48.416015625 c 0,16,17
 380.079314328 5 380.079314328 5 484.984275286 5 c 0,18,19
 638.583007812 5 638.583007812 5 747.915039062 87.470703125 c 0,20,21
 853.94921875 167.453125 853.94921875 167.453125 853.94921875 300 c 0,22,23
 853.94921875 379.252929688 853.94921875 379.252929688 816.471679688 433.888671875 c 128,-1,24
 778.994140625 488.5234375 778.994140625 488.5234375 697.252929688 529.39453125 c 128,-1,25
 615.510742188 570.265625 615.510742188 570.265625 497.115559445 601.4140625 c 0,26,27
 379.873629618 632.5625 379.873629618 632.5625 330.4765625 668.942382812 c 0,28,29
 265.94921875 710.336914062 265.94921875 710.336914062 265.94921875 792.30859375 c 128,-1,30
 265.94921875 874.279296875 265.94921875 874.279296875 332.692382812 925.80078125 c 0,31,32
 387.659207238 975 387.659207238 975 478.953599607 975 c 128,-1,33
 570.247991975 975 570.247991975 975 634.65625 914.029296875 c 0,34,35
 696.83984375 861.004882812 696.83984375 861.004882812 706.327148438 789 c 1,36,-1
 843.061523438 789 l 1,37,38
 834.431640625 908.159179688 834.431640625 908.159179688 738.500976562 987.752929688 c 0,39,40
 630.934570312 1077 630.934570312 1077 479.929367868 1077 c 0,41,42
 339.86328125 1077 339.86328125 1077 235.40625 991.577148438 c 128,-1,43
 130.94921875 906.154296875 130.94921875 906.154296875 130.94921875 785 c 0,44,45
 130.94921875 712.701171875 130.94921875 712.701171875 166.473632812 660.538085938 c 128,-1,46
 201.998046875 608.375976562 201.998046875 608.375976562 280.181640625 568.573242188 c 0,47,0
 355.592138306 528.770507812 355.592138306 528.770507812 474.820982426 498.552734375 c 128,-1,1
EndSplineSet
Substitution2: "Podtablica 'smcp' Tekstowe na kapitaliki w tablicy 1" S.c2sc
EndChar

StartChar: t
Encoding: 116 116 88
Width: 619
GlyphClass: 2
Flags: W
LayerCount: 2
Fore
SplineSet
543 989 m 1,0,1
 543 1060.5 543 1060.5 543 1082 c 1,2,-1
 341 1082 l 1,3,4
 341 1238 341 1238 341 1344 c 1,5,-1
 206 1344 l 1,6,7
 206 1238 206 1238 206 1082 c 1,8,-1
 9 1082 l 1,9,10
 9 1060.5 9 1060.5 9 989 c 1,11,-1
 206 989 l 1,12,13
 206 666 206 666 206 293 c 2,14,15
 206 164.100585938 206 164.100585938 262.322265625 97.0498046875 c 128,-1,16
 318.64453125 30 318.64453125 30 431 30 c 0,17,18
 487.94140625 30 487.94140625 30 548 44.3916015625 c 1,19,20
 548 119.49609375 548 119.49609375 548 144.6015625 c 1,21,22
 510.588867188 138 510.588867188 138 485 138 c 0,23,24
 408.272460938 138 408.272460938 138 373.762695312 179.540039062 c 0,25,26
 341 218.9765625 341 218.9765625 341 293 c 2,27,28
 341 666 341 666 341 989 c 1,29,-1
 543 989 l 1,0,1
EndSplineSet
Substitution2: "Podtablica 'smcp' Tekstowe na kapitaliki w tablicy 1" T.c2sc
EndChar

StartChar: u
Encoding: 117 117 89
Width: 1029
GlyphClass: 2
Flags: W
LayerCount: 2
Fore
SplineSet
761.083007812 25 m 1,0,-1
 888 25 l 1,1,-1
 888 1057 l 1,2,-1
 753 1057 l 1,3,-1
 753 289.701171875 l 1,4,-1
 750.869140625 284.892578125 l 2,5,6
 708.200195312 188.581054688 708.200195312 188.581054688 621.095807298 145.584960938 c 0,7,8
 561.354386756 112 561.354386756 112 477.602679722 112 c 0,9,10
 371.328125 112 371.328125 112 314.534179688 199.321289062 c 0,11,12
 271 266.25390625 271 266.25390625 271 383 c 2,13,-1
 271 1057 l 1,14,-1
 136 1057 l 1,15,16
 136 935.390625 136 935.390625 136 379.416992188 c 2,17,-1
 136 378 l 2,18,19
 136.951171875 190.64453125 136.951171875 190.64453125 220.537109375 97.822265625 c 128,-1,20
 304.124023438 5 304.124023438 5 452.433908786 5 c 0,21,22
 618.08489476 5 618.08489476 5 713.94921875 123.181640625 c 2,23,-1
 755.583007812 172.139648438 l 1,24,-1
 761.083007812 25 l 1,0,-1
EndSplineSet
Substitution2: "Podtablica 'smcp' Tekstowe na kapitaliki w tablicy 1" U.c2sc
EndChar

StartChar: v
Encoding: 118 118 90
Width: 892
GlyphClass: 2
Flags: W
LayerCount: 2
Fore
SplineSet
697.55859375 1057 m 1,0,-1
 436.131740938 170.484375 l 1,1,-1
 168.282226562 1057 l 1,2,-1
 33 1057 l 1,3,-1
 389.006035287 25 l 1,4,-1
 480.096294285 25 l 1,5,-1
 832.819335938 1057 l 1,6,-1
 697.55859375 1057 l 1,0,-1
EndSplineSet
Substitution2: "Podtablica 'smcp' Tekstowe na kapitaliki w tablicy 1" V.c2sc
EndChar

StartChar: w
Encoding: 119 119 91
Width: 1439
GlyphClass: 2
Flags: W
LayerCount: 2
Fore
SplineSet
1242.20410156 1057 m 1,0,-1
 1023.50436944 162.575195312 l 1,1,-1
 761.168927351 1057 l 1,2,-1
 655.296100178 1057 l 1,3,-1
 398.178352095 181.346679688 l 1,4,-1
 174.427734375 1057 l 1,5,-1
 43 1057 l 1,6,-1
 339.471229773 25 l 1,7,-1
 445.959746682 25 l 1,8,-1
 704.62870109 902.875976562 l 1,9,-1
 970.370713928 25 l 1,10,-1
 1077.01591834 25 l 1,11,-1
 1374.38671875 1057 l 1,12,-1
 1242.20410156 1057 l 1,0,-1
EndSplineSet
Substitution2: "Podtablica 'smcp' Tekstowe na kapitaliki w tablicy 1" W.c2sc
EndChar

StartChar: x
Encoding: 120 120 92
Width: 915
GlyphClass: 2
Flags: W
LayerCount: 2
Fore
SplineSet
660.328125 1057 m 1,0,-1
 431.513737089 638.633789062 l 1,1,-1
 205.110351562 1057 l 1,2,-1
 51.783203125 1057 l 1,3,-1
 374.378681284 546.94140625 l 1,4,-1
 41 25 l 1,5,-1
 195.318359375 25 l 1,6,-1
 434.192881783 452.59375 l 1,7,-1
 673.211914062 25 l 1,8,-1
 826.530273438 25 l 1,9,-1
 493.151592153 546.94140625 l 1,10,-1
 815.748046875 1057 l 1,11,-1
 660.328125 1057 l 1,0,-1
EndSplineSet
Substitution2: "Podtablica 'smcp' Tekstowe na kapitaliki w tablicy 1" X.c2sc
EndChar

StartChar: y
Encoding: 121 121 93
Width: 869
GlyphClass: 2
Flags: W
LayerCount: 2
Fore
SplineSet
259.53515625 -282.264648438 m 0,0,1
 200.493164062 -325 200.493164062 -325 98.3994140625 -325 c 2,2,-1
 97.38671875 -325 l 1,3,4
 96.884765625 -349.959960938 96.884765625 -349.959960938 96.3818359375 -324.919921875 c 1,5,6
 84.890625 -349 84.890625 -349 73.3994140625 -323.081054688 c 1,7,8
 73.3994140625 -399.173828125 73.3994140625 -399.173828125 73.3994140625 -425.266601562 c 1,9,10
 97.1064453125 -454.733398438 97.1064453125 -454.733398438 120.814453125 -434.200195312 c 1,11,12
 137.139648438 -460.598632812 137.139648438 -460.598632812 153.463867188 -436.998046875 c 1,13,14
 264.8203125 -436.649414062 264.8203125 -436.649414062 332.257780243 -360.765625 c 0,15,16
 387.617798434 -298.092773438 387.617798434 -298.092773438 424.561473033 -183.514648438 c 1,17,18
 611.545898438 399.2421875 611.545898438 399.2421875 823.21484375 1032 c 1,19,-1
 678.815429688 1032 l 1,20,21
 548.665582705 573.1875 548.665582705 573.1875 432.606379004 164.374023438 c 1,22,23
 308.255910902 573.1875 308.255910902 573.1875 170.368164062 1032 c 1,24,-1
 22 1032 l 1,25,26
 210.515625 484.4296875 210.515625 484.4296875 380.784505078 -13.140625 c 1,27,28
 361.816587665 -97.24609375 361.816587665 -97.24609375 342.848670253 -131.3515625 c 1,29,30
 311.403076773 -239.622070312 311.403076773 -239.622070312 259.53515625 -282.264648438 c 0,0,1
EndSplineSet
Substitution2: "Podtablica 'smcp' Tekstowe na kapitaliki w tablicy 1" Y.c2sc
EndChar

StartChar: z
Encoding: 122 122 94
Width: 915
GlyphClass: 2
Flags: W
LayerCount: 2
Fore
SplineSet
847 126 m 1,0,-1
 238.853515625 126 l 1,1,-1
 817 959.361328125 l 1,2,-1
 817 1057 l 1,3,-1
 97 1057 l 1,4,-1
 97 954 l 1,5,-1
 660.109375 954 l 1,6,-1
 88 127.646484375 l 1,7,-1
 88 25 l 1,8,-1
 847 25 l 1,9,-1
 847 126 l 1,0,-1
EndSplineSet
Substitution2: "Podtablica 'smcp' Tekstowe na kapitaliki w tablicy 1" Z.c2sc
EndChar

StartChar: braceleft
Encoding: 123 123 95
Width: 693
GlyphClass: 1
Flags: W
LayerCount: 2
Fore
SplineSet
301 300 m 2,0,-1
 301 101 l 2,1,2
 301 -78.3943156331 301 -78.3943156331 385.207012559 -186.12284008 c 0,3,4
 463.863693063 -286.750660389 463.863693063 -286.750660389 615.886701122 -335.067184848 c 1,5,-1
 638.61487267 -266.284560425 l 1,6,7
 532.321470173 -223.814105678 532.321470173 -223.814105678 481.496750965 -124.527198904 c 0,8,9
 437.399010368 -38.3815530897 437.399010368 -38.3815530897 436.001514384 89.722245392 c 1,10,-1
 436.001514384 296 l 2,11,12
 436.001514384 392.470565212 436.001514384 392.470565212 405.149602305 461.976326485 c 0,13,14
 367.390457425 547.047453798 367.390457425 547.047453798 282.165701573 592.97696294 c 2,15,-1
 241.072151473 615.123187545 l 1,16,-1
 282.268004894 637.077863919 l 2,17,18
 367.459908417 682.479537054 367.459908417 682.479537054 405.184810803 766.682874565 c 0,19,20
 436 835.463483985 436 835.463483985 436 931 c 2,21,-1
 436 1133 l 2,22,23
 436 1264.22112049 436 1264.22112049 479.892766518 1352.32167338 c 0,24,25
 530.601521298 1454.10312137 530.601521298 1454.10312137 638.616112987 1497.28080684 c 1,26,-1
 615.899222313 1566.02929177 l 1,27,28
 462.092129577 1516.97501409 462.092129577 1516.97501409 385.244323963 1418.17069259 c 0,29,30
 302.938909812 1312.34944582 302.938909812 1312.34944582 301 1137.85965703 c 1,31,-1
 301 930 l 2,32,33
 301 814.560206015 301 814.560206015 254.610194796 748.367205665 c 0,34,35
 200.867333142 671.682226183 200.867333142 671.682226183 89 663.85350056 c 1,36,-1
 89 567.142940328 l 1,37,38
 200.899747676 559.279651145 200.899747676 559.279651145 254.638043443 482.284333506 c 0,39,40
 301 415.85770943 301 415.85770943 301 300 c 2,0,-1
EndSplineSet
EndChar

StartChar: bar
Encoding: 124 124 96
Width: 499
GlyphClass: 1
Flags: W
LayerCount: 2
Fore
SplineSet
200 -245 m 1,0,-1
 299 -245 l 1,1,-1
 299 1431 l 1,2,-1
 200 1431 l 1,3,-1
 200 -245 l 1,0,-1
EndSplineSet
EndChar

StartChar: braceright
Encoding: 125 125 97
Width: 693
GlyphClass: 1
Flags: W
LayerCount: 2
Fore
SplineSet
254 1133 m 2,0,-1
 254 930 l 2,1,2
 254 832.192071651 254 832.192071651 287.26181727 763.601058966 c 0,3,4
 327.996305378 679.60024302 327.996305378 679.60024302 420.2959695 637.784925572 c 2,5,-1
 469.98482458 615.273952553 l 1,6,-1
 420.502436846 592.309750511 l 2,7,8
 328.045925783 549.401756426 328.045925783 549.401756426 287.256093212 465.39949073 c 0,9,10
 254 396.912149599 254 396.912149599 254 300 c 2,11,-1
 254 80 l 2,12,13
 254 79.4982533052 254 79.4982533052 253.991210172 79.3312465699 c 0,14,15
 250.725230912 -44.7759653017 250.725230912 -44.7759653017 206.141691421 -128.468796223 c 0,16,17
 154.963787746 -224.540657904 154.963787746 -224.540657904 50.5667547273 -266.224828504 c 1,18,-1
 73.9096292184 -335.05638149 l 1,19,20
 224.368709458 -286.790674623 224.368709458 -286.790674623 303.977431861 -187.389728419 c 0,21,22
 389 -81.2289527315 389 -81.2289527315 389 98 c 2,23,-1
 389 300 l 2,24,25
 389 415.85770943 389 415.85770943 435.361956557 482.284333506 c 0,26,27
 489.100252324 559.279651145 489.100252324 559.279651145 601 567.142940328 c 1,28,-1
 601 663.842800308 l 1,29,30
 489.23096226 671.567674517 489.23096226 671.567674517 435.474768622 747.320801165 c 0,31,32
 389 812.812957419 389 812.812957419 389 927 c 2,33,-1
 389 1137 l 2,34,35
 388.047281311 1313.2529574 388.047281311 1313.2529574 304.383743192 1419.00742974 c 0,36,37
 226.186314889 1517.85249361 226.186314889 1517.85249361 74.1157413349 1566.07457649 c 1,38,-1
 51.3838870134 1497.28080684 l 1,39,40
 159.398478702 1454.10312137 159.398478702 1454.10312137 210.107233482 1352.32167338 c 0,41,42
 254 1264.22112049 254 1264.22112049 254 1133 c 2,0,-1
EndSplineSet
EndChar

StartChar: asciitilde
Encoding: 126 126 98
Width: 1393
GlyphClass: 1
Flags: W
LayerCount: 2
Fore
SplineSet
454 664 m 0,0,1
 501.764112605 664 501.764112605 664 542.845719478 644.014353413 c 256,2,3
 583.927326352 624.028706826 583.927326352 624.028706826 668.138064593 550.282024816 c 256,4,5
 752.348802833 476.535342807 752.348802833 476.535342807 812.165065845 451.767671403 c 256,6,7
 871.981328857 427 871.981328857 427 939 427 c 0,8,9
 1064.54753046 427 1064.54753046 427 1150.55613329 526.806774407 c 0,10,11
 1230.61696008 619.711584111 1230.61696008 619.711584111 1237.366784 751.831918402 c 1,12,-1
 1134.19598927 751.157599482 l 1,13,14
 1128.42950743 664.052677891 1128.42950743 664.052677891 1081.84974451 607.176335807 c 0,15,16
 1026.83464191 540 1026.83464191 540 939 540 c 2,17,-1
 938.126087742 540 l 1,18,-1
 937.257977946 540.059869641 l 1,19,-1
 908.257977946 542.059869641 l 1,20,-1
 907.180122599 542.134204493 l 1,21,22
 834.70245701 553.458839741 834.70245701 553.458839741 741.135272927 639.051547908 c 0,23,24
 656.049791959 716.885425384 656.049791959 716.885425384 590.299475973 746.942712692 c 256,25,26
 524.549159987 777 524.549159987 777 454 777 c 0,27,28
 326.184372853 777 326.184372853 777 241.648852579 682.356971867 c 0,29,30
 163.208643094 594.538041683 163.208643094 594.538041683 156.615935507 461.320175474 c 1,31,-1
 267.720375183 462.700354849 l 1,32,33
 272.834404688 548.066912061 272.834404688 548.066912061 314.325529204 600.918701623 c 0,34,35
 363.847296154 664 363.847296154 664 454 664 c 0,0,1
EndSplineSet
EndChar

StartChar: exclamdown
Encoding: 161 161 99
Width: 499
GlyphClass: 1
Flags: W
LayerCount: 2
Fore
SplineSet
313.309328169 659 m 1,0,-1
 194.690671831 659 l 1,1,-1
 182.313277195 -335 l 1,2,-1
 325.686722805 -335 l 1,3,-1
 313.309328169 659 l 1,0,-1
249 914 m 256,4,5
 291.764394853 914 291.764394853 914 312.382197426 937.241886537 c 256,6,7
 333 960.483773075 333 960.483773075 333 995.883084701 c 256,8,9
 333 1031.28239633 333 1031.28239633 312.50443165 1053.64119816 c 256,10,11
 292.0088633 1076 292.0088633 1076 249 1076 c 256,12,13
 205.857257021 1076 205.857257021 1076 184.928628511 1053.57646945 c 256,14,15
 164 1031.15293891 164 1031.15293891 164 995.882458681 c 256,16,17
 164 960.611978455 164 960.611978455 185.050570915 937.305989228 c 256,18,19
 206.101141831 914 206.101141831 914 249 914 c 256,4,5
EndSplineSet
EndChar

StartChar: cent
Encoding: 162 162 100
Width: 1120
GlyphClass: 1
Flags: W
LayerCount: 2
Fore
SplineSet
586 106 m 0,0,1
 432.675578466 106 432.675578466 106 347.655113459 216.800864073 c 0,2,3
 265 324.519140968 265 324.519140968 265 520 c 2,4,-1
 265 555 l 2,5,6
 265 755.447717856 265 755.447717856 347.618708311 863.651574547 c 0,7,8
 432.638442031 975 432.638442031 975 586 975 c 0,9,10
 700.929467008 975 700.929467008 975 779.654555175 900.67911257 c 0,11,12
 849.943933078 834.322007556 849.943933078 834.322007556 864.38322509 735 c 1,13,-1
 990.239843129 735 l 1,14,15
 978.107860651 859.083045152 978.107860651 859.083045152 896.467083281 949.228070165 c 0,16,17
 806.442401935 1048.63032248 806.442401935 1048.63032248 665.18634987 1070.2895838 c 2,18,-1
 644 1073.53815745 l 1,19,-1
 644 1293 l 1,20,-1
 509 1293 l 1,21,-1
 509 1071.22647031 l 1,22,-1
 488.603214047 1067.42367971 l 2,23,24
 321.532865578 1036.27497068 321.532865578 1036.27497068 225.766432789 901.158964019 c 256,25,26
 130 766.042957361 130 766.042957361 130 562 c 2,27,-1
 130 527 l 2,28,29
 130 314.915433171 130 314.915433171 224.802357156 180.29608601 c 256,30,31
 319.604714312 45.6767388482 319.604714312 45.6767388482 488.685885155 13.5607622635 c 2,32,-1
 509 9.70221530968 l 1,33,-1
 509 -220 l 1,34,-1
 644 -220 l 1,35,-1
 644 8.89397681428 l 1,36,-1
 664.536047132 12.6018742131 l 2,37,38
 800.767319237 37.1991872321 800.767319237 37.1991872321 894.192396693 132.039796165 c 0,39,40
 976.181986091 215.271652069 976.181986091 215.271652069 989.665899221 316 c 1,41,-1
 863.787066589 316 l 1,42,43
 848.075945463 231.221365948 848.075945463 231.221365948 775.807364244 172.136917789 c 0,44,45
 694.912621824 106 694.912621824 106 586 106 c 0,0,1
EndSplineSet
EndChar

StartChar: sterling
Encoding: 163 163 101
Width: 1190
GlyphClass: 1
Flags: W
LayerCount: 2
Fore
SplineSet
423.074103306 647 m 1,0,-1
 738 647 l 1,1,-1
 738 754 l 1,2,-1
 419.850153652 754 l 1,3,-1
 410 1038.55999438 l 1,4,5
 410 1173.13460943 410 1173.13460943 481.696431084 1258.06730472 c 256,6,7
 553.392862168 1343 553.392862168 1343 670 1343 c 0,8,9
 791.173744111 1343 791.173744111 1343 861.960082528 1273.88577981 c 0,10,11
 925.0890434 1212.24805424 925.0890434 1212.24805424 932.138876481 1112 c 1,12,-1
 1073.41025259 1112 l 1,13,14
 1066.27307668 1260.69122555 1066.27307668 1260.69122555 970.740766015 1351.92027898 c 0,15,16
 866.987473251 1451 866.987473251 1451 687 1451 c 0,17,18
 497.136737182 1451 497.136737182 1451 382.133538526 1339.28260702 c 256,19,20
 267.13033987 1227.56521404 267.13033987 1227.56521404 267.000150702 1039.43565202 c 1,21,-1
 276.880615579 754 l 1,22,-1
 116 754 l 1,23,-1
 116 647 l 1,24,-1
 280.1116769 647 l 1,25,-1
 289 401.460074359 l 1,26,-1
 289 393 l 2,27,28
 289 392.602541332 289 392.602541332 288.994485932 392.470203693 c 0,29,30
 286.904010795 292.127397147 286.904010795 292.127397147 260.365786935 222.597250633 c 0,31,32
 230.576887546 144.550334233 230.576887546 144.550334233 177.503172222 132.608748285 c 2,33,-1
 174.797624288 132 l 1,34,-1
 120 132 l 1,35,-1
 120 25 l 1,36,-1
 1102.1587188 25 l 1,37,-1
 1102.84024746 132 l 1,38,-1
 347.718336874 132 l 1,39,-1
 374.324996552 171.051710173 l 2,40,41
 431.908984971 255.570144787 431.908984971 255.570144787 431.999857411 401.5417621 c 1,42,-1
 423.074103306 647 l 1,0,-1
EndSplineSet
Substitution2: "Podtablica 'c2sc' Wersaliki na kapitaliki w tablicy 0" sterling.c2sc
Position2: "Podtablica 'cpsp' +AVoA-wiat+AUIA-o wersalikowe w tablicy 0" dx=36 dy=0 dh=72 dv=0
EndChar

StartChar: currency
Encoding: 164 164 102
Width: 1460
GlyphClass: 1
Flags: W
LayerCount: 2
Fore
SplineSet
1305 608 m 0,0,1
 1305 803.356707803 1305 803.356707803 1199.26260756 960.040298423 c 2,2,-1
 1187.86565346 976.928512222 l 1,3,-1
 1336.14369101 1128.15247105 l 1,4,-1
 1238.84543195 1229.13627023 l 1,5,-1
 1092.41096847 1079.75346185 l 1,6,-1
 1074.88053602 1093.0942312 l 2,7,8
 922.574608428 1209 922.574608428 1209 735.493343538 1209 c 256,9,10
 548.412078649 1209 548.412078649 1209 397.10029008 1094.07965425 c 2,11,-1
 379.571765295 1080.76685062 l 1,12,-1
 235.223786196 1228.06070684 l 1,13,-1
 139.729054734 1128.15852623 l 1,14,-1
 284.214286901 979.741723123 l 1,15,-1
 272.619078443 962.866553671 l 2,16,17
 165 806.242359151 165 806.242359151 165 609.904434317 c 256,18,19
 165 413.566509484 165 413.566509484 264.816174571 263.842247627 c 2,20,-1
 276.083401728 246.941406892 l 1,21,-1
 139.896982429 108.795470769 l 1,22,-1
 235.205251143 9.82149941174 l 1,23,-1
 367.18511421 143.77121118 l 1,24,-1
 384.807860224 129.362676703 l 2,25,26
 536.912980192 5 536.912980192 5 735.947213358 5 c 256,27,28
 934.981446525 5 934.981446525 5 1087.04667082 131.242827716 c 2,29,-1
 1104.75641764 145.945259041 l 1,30,-1
 1238.92808566 8.81392187894 l 1,31,-1
 1335.97306568 108.79965887 l 1,32,-1
 1196.1308419 249.619800294 l 1,33,-1
 1206.94219462 266.472791295 l 2,34,35
 1305 419.327605567 1305 419.327605567 1305 608 c 0,0,1
735 126 m 256,36,37
 614.856175209 126 614.856175209 126 511.015202222 190.635707676 c 256,38,39
 407.174229235 255.271415352 407.174229235 255.271415352 346.587114617 366.962444037 c 256,40,41
 286 478.653472723 286 478.653472723 286 607.5 c 256,42,43
 286 736.346527277 286 736.346527277 346.610816388 848.081249662 c 256,44,45
 407.221632777 959.815972048 407.221632777 959.815972048 511.088588938 1023.40798602 c 256,46,47
 614.955545099 1087 614.955545099 1087 734.509610536 1087 c 256,48,49
 854.063675974 1087 854.063675974 1087 958.456307365 1022.88066803 c 256,50,51
 1062.84893876 958.761336057 1062.84893876 958.761336057 1122.42446938 847.518531091 c 256,52,53
 1182 736.275726126 1182 736.275726126 1182 607.5 c 256,54,55
 1182 478.724273874 1182 478.724273874 1122.45507082 367.53860966 c 256,56,57
 1062.91014165 256.352945446 1062.91014165 256.352945446 959.051697308 191.176472723 c 256,58,59
 855.193252969 126 855.193252969 126 735 126 c 256,36,37
EndSplineSet
EndChar

StartChar: yen
Encoding: 165 165 103
Width: 1075
GlyphClass: 1
Flags: W
LayerCount: 2
Fore
SplineSet
422.805640495 711 m 1,0,-1
 144 711 l 1,1,-1
 144 636 l 1,2,-1
 462 636 l 1,3,-1
 462 421 l 1,4,-1
 144 421 l 1,5,-1
 144 347 l 1,6,-1
 462 347 l 1,7,-1
 462 25 l 1,8,-1
 605 25 l 1,9,-1
 605 347 l 1,10,-1
 929 347 l 1,11,-1
 929 421 l 1,12,-1
 605 421 l 1,13,-1
 605 636 l 1,14,-1
 929 636 l 1,15,-1
 929 711 l 1,16,-1
 652.194359505 711 l 1,17,-1
 1019.19435951 1431 l 1,18,-1
 862.955335295 1431 l 1,19,-1
 539 733.654586687 l 1,20,-1
 215.044664705 1431 l 1,21,-1
 55.8056404949 1431 l 1,22,-1
 422.805640495 711 l 1,0,-1
EndSplineSet
Substitution2: "Podtablica 'c2sc' Wersaliki na kapitaliki w tablicy 0" yen.c2sc
Position2: "Podtablica 'cpsp' +AVoA-wiat+AUIA-o wersalikowe w tablicy 0" dx=36 dy=0 dh=72 dv=0
EndChar

StartChar: brokenbar
Encoding: 166 166 104
Width: 491
GlyphClass: 1
Flags: W
LayerCount: 2
Fore
SplineSet
172 496 m 1,0,-1
 172 -245 l 1,1,-1
 308 -245 l 1,2,-1
 308 496 l 1,3,-1
 172 496 l 1,0,-1
172 723 m 1,4,-1
 308 723 l 1,5,-1
 308 1431 l 1,6,-1
 172 1431 l 1,7,-1
 172 723 l 1,4,-1
EndSplineSet
EndChar

StartChar: section
Encoding: 167 167 105
Width: 1256
GlyphClass: 1
Flags: W
LayerCount: 2
Fore
SplineSet
1120 431 m 0,0,1
 1120 514.63041583 1120 514.63041583 1093.23763614 574.153604414 c 256,2,3
 1066.47527228 633.676792998 1066.47527228 633.676792998 1013.57267048 679.088760917 c 256,4,5
 960.670068676 724.500728836 960.670068676 724.500728836 878.692909653 759.425909011 c 256,6,7
 796.715750629 794.351089187 796.715750629 794.351089187 652.939169268 834.428185037 c 256,8,9
 509.162587906 874.505280887 509.162587906 874.505280887 437.718224357 908.904418892 c 256,10,11
 366.273860807 943.303556897 366.273860807 943.303556897 334.136930403 989.213457474 c 256,12,13
 302 1035.12335805 302 1035.12335805 302 1112 c 0,14,15
 302 1222.86237288 302 1222.86237288 392.992111129 1287.85673797 c 0,16,17
 479.992677972 1350 479.992677972 1350 629.378354319 1350 c 256,18,19
 778.764030665 1350 778.764030665 1350 869.943629873 1265.87596502 c 0,20,21
 953.144859594 1189.11292569 953.144859594 1189.11292569 961.1707846 1070 c 1,22,-1
 1096.48896552 1070 l 1,23,24
 1089.20045149 1245.39185509 1089.20045149 1245.39185509 975.611841879 1344.1265696 c 0,25,26
 852.660107788 1451 852.660107788 1451 630 1451 c 0,27,28
 416.319877669 1451 416.319877669 1451 289.466951421 1355.97908146 c 0,29,30
 166 1263.49447366 166 1263.49447366 166 1110 c 0,31,32
 166 1016.1366148 166 1016.1366148 198.756848675 953.391101849 c 256,33,34
 231.51369735 890.645588894 231.51369735 890.645588894 292.881039165 845.084986637 c 2,35,-1
 326.048702642 820.460509207 l 1,36,-1
 288.859352099 802.478845209 l 2,37,38
 213.314343982 765.951588537 213.314343982 765.951588537 172.005648962 712.20489084 c 0,39,40
 121 645.841497026 121 645.841497026 121 551 c 0,41,42
 121 446.924308129 121 446.924308129 164.05494069 375.166073644 c 256,43,44
 207.109881381 303.40783916 207.109881381 303.40783916 298.854475405 250.36799574 c 256,45,46
 390.599069429 197.32815232 390.599069429 197.32815232 569.749753221 150.079620331 c 1,47,48
 783.307249275 86.7276358555 783.307249275 86.7276358555 857.842116395 31.6138256608 c 0,49,50
 939 -28.3972854554 939 -28.3972854554 939 -130 c 0,51,52
 939 -238.962304425 939 -238.962304425 845.379018018 -304.948177268 c 0,53,54
 755.920876364 -368 755.920876364 -368 612 -368 c 0,55,56
 446.909010401 -368 446.909010401 -368 349.947605804 -286.660155033 c 0,57,58
 260.27502402 -211.434822536 260.27502402 -211.434822536 251.843397948 -87.2612209445 c 1,59,-1
 115.534629156 -88.7269066304 l 1,60,61
 123.230285741 -263.800750823 123.230285741 -263.800750823 244.75328359 -362.592828211 c 0,62,63
 310.719090662 -416.307842541 310.719090662 -416.307842541 407.077337531 -443.15392127 c 256,64,65
 503.4355844 -470 503.4355844 -470 612 -470 c 0,66,67
 831.536157242 -470 831.536157242 -470 954.825268898 -375.636410694 c 0,68,69
 1075 -283.65652035 1075 -283.65652035 1075 -128 c 0,70,71
 1075 -34.2126059356 1075 -34.2126059356 1041.88998687 28.3285299764 c 256,72,73
 1008.67835673 91.0616091364 1008.67835673 91.0616091364 944.548273002 136.603262796 c 2,74,-1
 909.177298815 161.721780697 l 1,75,-1
 948.629924414 179.751206374 l 2,76,77
 1025.78163918 215.008710435 1025.78163918 215.008710435 1067.94137396 268.547040303 c 0,78,79
 1120 334.655897668 1120 334.655897668 1120 431 c 0,0,1
984 428 m 0,80,81
 984 349.968969737 984 349.968969737 936.517630171 292.877072681 c 256,82,83
 889.035260342 235.785175625 889.035260342 235.785175625 803.219234969 213.781066555 c 2,84,-1
 795.456536275 211.790630992 l 1,85,86
 745.016898371 231.27867291 745.016898371 231.27867291 602.466067681 272.437715574 c 256,87,88
 459.91523699 313.596758238 459.91523699 313.596758238 389.446859846 348.566028099 c 256,89,90
 318.978482702 383.53529796 318.978482702 383.53529796 287.989241351 429.445285147 c 256,91,92
 257 475.355272333 257 475.355272333 257 552.808713516 c 256,93,94
 257 630.2621547 257 630.2621547 299.684250602 687.743612178 c 256,95,96
 342.368501205 745.225069655 342.368501205 745.225069655 431.209959595 766.324916023 c 2,97,-1
 438.465298194 768.04805894 l 1,98,99
 519.467724582 738.887185441 519.467724582 738.887185441 608.449538811 715.158701647 c 1,100,-1
 609.245399525 714.932181223 l 1,101,102
 831.714621129 647.579114132 831.714621129 647.579114132 904.908001585 590.182866149 c 0,103,104
 984 528.161083219 984 528.161083219 984 428 c 0,80,81
EndSplineSet
EndChar

StartChar: dieresis
Encoding: 168 168 106
Width: 856
GlyphClass: 1
Flags: W
LayerCount: 2
Fore
SplineSet
126 1371 m 256,0,1
 126 1335.71760367 126 1335.71760367 146.49556835 1313.35880184 c 256,2,3
 166.9911367 1291 166.9911367 1291 210 1291 c 256,4,5
 253.142742979 1291 253.142742979 1291 274.071371489 1313.42353055 c 256,6,7
 295 1335.84706109 295 1335.84706109 295 1371 c 256,8,9
 295 1406.27172201 295 1406.27172201 274.009970761 1429.13586101 c 256,10,11
 253.019941522 1452 253.019941522 1452 210 1452 c 256,12,13
 167.114247984 1452 167.114247984 1452 146.557123992 1429.20028066 c 256,14,15
 126 1406.40056133 126 1406.40056133 126 1371 c 256,0,1
640 1451 m 256,16,17
 597.235605147 1451 597.235605147 1451 576.617802574 1427.75811346 c 256,18,19
 556 1404.51622693 556 1404.51622693 556 1369.1169153 c 256,20,21
 556 1333.71760367 556 1333.71760367 576.49556835 1311.35880184 c 256,22,23
 596.9911367 1289 596.9911367 1289 640 1289 c 256,24,25
 683.142742979 1289 683.142742979 1289 704.071371489 1311.42353055 c 256,26,27
 725 1333.84706109 725 1333.84706109 725 1369.11754132 c 256,28,29
 725 1404.38802154 725 1404.38802154 703.949429085 1427.69401077 c 256,30,31
 682.898858169 1451 682.898858169 1451 640 1451 c 256,16,17
EndSplineSet
EndChar

StartChar: copyright
Encoding: 169 169 107
Width: 1609
GlyphClass: 1
Flags: W
LayerCount: 2
Fore
SplineSet
788 1148 m 0,0,1
 644.084759444 1148 644.084759444 1148 555.542379722 1050.1861669 c 256,2,3
 467 952.372333808 467 952.372333808 467 786 c 2,4,-1
 467 676 l 2,5,6
 467 503.552631001 467 503.552631001 554.581628576 405.776315501 c 256,7,8
 642.163257153 308 642.163257153 308 789.16851766 308 c 256,9,10
 936.173778167 308 936.173778167 308 1015.47669971 381.802140859 c 0,11,12
 1087.04915252 448.41003047 1087.04915252 448.41003047 1093.37518982 572 c 1,13,-1
 997.287105044 572 l 1,14,15
 991.807312498 479.305463006 991.807312498 479.305463006 943.246923522 435.444466512 c 0,16,17
 889.611978455 387 889.611978455 387 788 387 c 0,18,19
 681.823900228 387 681.823900228 387 620.302109099 465.611177554 c 0,20,21
 561 541.386094735 561 541.386094735 561 670 c 2,22,-1
 561 783 l 2,23,24
 561 914.613905265 561 914.613905265 620.302109099 990.388822446 c 0,25,26
 681.823900228 1069 681.823900228 1069 788 1069 c 0,27,28
 888.544700603 1069 888.544700603 1069 943.159020237 1020.13455612 c 0,29,30
 992.510948018 975.977568102 992.510948018 975.977568102 998.23969034 885 c 1,31,-1
 1094.34481579 885 l 1,32,33
 1087.90271865 1005.06817435 1087.90271865 1005.06817435 1016.75475263 1072.90693266 c 0,34,35
 937.998608829 1148 937.998608829 1148 788 1148 c 0,0,1
490.607183854 159.581208744 m 256,36,37
 347.294264244 246.090098399 347.294264244 246.090098399 264.147132122 398.353284097 c 256,38,39
 181 550.616469796 181 550.616469796 181 727.992065054 c 256,40,41
 181 905.367660312 181 905.367660312 263.653995965 1057.15990447 c 256,42,43
 346.307991929 1208.95214863 346.307991929 1208.95214863 490.198720319 1294.97377974 c 256,44,45
 634.097125122 1381 634.097125122 1381 801.546455927 1381 c 256,46,47
 968.995786731 1381 968.995786731 1381 1112.44975588 1293.88431692 c 256,48,49
 1255.73398281 1206.87171365 1255.73398281 1206.87171365 1337.86699141 1056.12125484 c 256,50,51
 1420 905.370796029 1420 905.370796029 1420 727.993632913 c 256,52,53
 1420 550.616469796 1420 550.616469796 1336.85807761 398.362824414 c 256,54,55
 1253.71615521 246.109179032 1253.71615521 246.109179032 1110.92734447 159.60208931 c 256,56,57
 967.981727173 73 967.981727173 73 801 73 c 256,58,59
 634.039909182 73 634.039909182 73 490.607183854 159.581208744 c 256,36,37
456.354649731 1355.05821646 m 256,60,61
 296.744300017 1259.09912404 296.744300017 1259.09912404 206.372150009 1091.88648285 c 256,62,63
 116 924.673841653 116 924.673841653 116 730.441460407 c 256,64,65
 116 536.209079162 116 536.209079162 203.978876434 369.919334694 c 256,66,67
 291.957752867 203.629590226 291.957752867 203.629590226 451.564985632 103.814795113 c 256,68,69
 611.172218397 4 611.172218397 4 801.470798909 4 c 256,70,71
 991.769379421 4 991.769379421 4 1151.36628816 104.772670474 c 256,72,73
 1310.9631969 205.545340948 1310.9631969 205.545340948 1397.98159845 371.847175018 c 256,74,75
 1485 538.149009089 1485 538.149009089 1485 731.411425371 c 256,76,77
 1485 924.673841653 1485 924.673841653 1394.62355894 1091.89442244 c 256,78,79
 1304.24711788 1259.11500322 1304.24711788 1259.11500322 1145.11669987 1355.07546742 c 256,80,81
 986.045866939 1451 986.045866939 1451 801 1451 c 256,82,83
 615.936209281 1451 615.936209281 1451 456.354649731 1355.05821646 c 256,60,61
EndSplineSet
EndChar

StartChar: ordfeminine
Encoding: 170 170 108
Width: 865
GlyphClass: 1
Flags: W
LayerCount: 2
Fore
SplineSet
322.416992188 1354.65332031 m 0,0,1
 368.275390625 1386 368.275390625 1386 445 1386 c 0,2,3
 526.5390625 1386 526.5390625 1386 564.665039062 1334.11523438 c 0,4,5
 594 1294.19238281 594 1294.19238281 594 1226 c 2,6,7
 594 1212.5 594 1212.5 594 1149 c 1,8,-1
 461 1149 l 2,9,10
 297.045898438 1149 297.045898438 1149 220.065429688 1093.68457031 c 0,11,12
 147 1041.18261719 147 1041.18261719 147 943 c 0,13,14
 147 850.696289062 147 850.696289062 204.501953125 795.84765625 c 128,-1,15
 262.00390625 741 262.00390625 741 371 741 c 0,16,17
 487.736328125 741 487.736328125 741 556.262695312 818.54296875 c 2,18,19
 573.840820312 863.434570312 573.840820312 863.434570312 591.418945312 858.326171875 c 1,20,21
 595.556640625 857.125 595.556640625 857.125 599.693359375 805.922851562 c 2,22,23
 603.883789062 779.385742188 603.883789062 779.385742188 611.15625 755 c 1,24,-1
 724.874023438 755 l 1,25,26
 707 826.174804688 707 826.174804688 707 908 c 2,27,28
 707 1091 707 1091 707 1224 c 2,29,30
 707 1347.10449219 707 1347.10449219 637.594726562 1411.55273438 c 128,-1,31
 568.189453125 1476 568.189453125 1476 442.28515625 1476 c 128,-1,32
 316.379882812 1476 316.379882812 1476 237.053710938 1416.04394531 c 0,33,34
 170.438476562 1365.69628906 170.438476562 1365.69628906 162.232421875 1291.11523438 c 1,35,36
 218.42578125 1311.92675781 218.42578125 1311.92675781 274.618164062 1282.73828125 c 1,37,38
 283.883789062 1328.31445312 283.883789062 1328.31445312 322.416992188 1354.65332031 c 0,0,1
506.831054688 825.00390625 m 128,-1,40
 458.422851562 803 458.422851562 803 410 803 c 0,41,42
 299.487304688 803 299.487304688 803 269.692382812 871.338867188 c 0,43,44
 260 893.568359375 260 893.568359375 260 922 c 0,45,46
 260 985.9296875 260 985.9296875 315.079101562 1024.91894531 c 0,47,48
 365.916015625 1060.90429688 365.916015625 1060.90429688 456.693359375 1061.99804688 c 1,49,-1
 594 1061.99804688 l 1,50,-1
 594 884.383789062 l 1,51,-1
 586.34765625 877.004882812 l 2,52,39
 555.23828125 847.006835938 555.23828125 847.006835938 506.831054688 825.00390625 c 128,-1,40
EndSplineSet
EndChar

StartChar: guillemotleft
Encoding: 171 171 109
Width: 961
GlyphClass: 1
Flags: W
LayerCount: 2
Fore
SplineSet
580.208219124 547.965897162 m 1,0,-1
 822.06485705 922 l 1,1,-1
 739.412861884 922 l 1,2,-1
 457 549.597955007 l 1,3,-1
 457 547.419258851 l 1,4,-1
 739.393508662 176 l 1,5,-1
 821.939205189 176 l 1,6,-1
 580.208219124 547.965897162 l 1,0,-1
250.208219124 547.965897162 m 1,7,-1
 492.06485705 922 l 1,8,-1
 409.412861884 922 l 1,9,-1
 127 549.597955007 l 1,10,-1
 127 547.419258851 l 1,11,-1
 409.393508662 176 l 1,12,-1
 491.939205189 176 l 1,13,-1
 250.208219124 547.965897162 l 1,7,-1
EndSplineSet
EndChar

StartChar: logicalnot
Encoding: 172 172 110
Width: 1134
GlyphClass: 1
Flags: W
LayerCount: 2
Fore
SplineSet
797 400 m 1,0,-1
 933 400 l 1,1,-1
 933 775 l 1,2,-1
 152 775 l 1,3,-1
 152 664 l 1,4,-1
 797 664 l 1,5,-1
 797 400 l 1,0,-1
EndSplineSet
EndChar

StartChar: registered
Encoding: 174 174 111
Width: 1610
GlyphClass: 1
Flags: W
LayerCount: 2
Fore
SplineSet
455.354649731 1355.05821646 m 256,0,1
 295.744300017 1259.09912404 295.744300017 1259.09912404 205.372150009 1091.88648285 c 256,2,3
 115 924.673841653 115 924.673841653 115 730.441460407 c 256,4,5
 115 536.209079162 115 536.209079162 202.978876434 369.919334694 c 256,6,7
 290.957752867 203.629590226 290.957752867 203.629590226 450.564985632 103.814795113 c 256,8,9
 610.172218397 4 610.172218397 4 800.470798909 4 c 256,10,11
 990.769379421 4 990.769379421 4 1150.36628816 104.772670474 c 256,12,13
 1309.9631969 205.545340948 1309.9631969 205.545340948 1396.98159845 371.847175018 c 256,14,15
 1484 538.149009089 1484 538.149009089 1484 731.411425371 c 256,16,17
 1484 924.673841653 1484 924.673841653 1393.62355894 1091.89442244 c 256,18,19
 1303.24711788 1259.11500322 1303.24711788 1259.11500322 1144.11669987 1355.07546742 c 256,20,21
 985.045866939 1451 985.045866939 1451 800 1451 c 256,22,23
 614.936209281 1451 614.936209281 1451 455.354649731 1355.05821646 c 256,0,1
489.607183854 159.581208744 m 256,24,25
 346.294264244 246.090098399 346.294264244 246.090098399 263.147132122 398.353284097 c 256,26,27
 180 550.616469796 180 550.616469796 180 727.992065054 c 256,28,29
 180 905.367660312 180 905.367660312 262.653995965 1057.15990447 c 256,30,31
 345.307991929 1208.95214863 345.307991929 1208.95214863 489.198720319 1294.97377974 c 256,32,33
 633.097125122 1381 633.097125122 1381 800.535661805 1381 c 256,34,35
 967.974198488 1381 967.974198488 1381 1111.91533523 1293.90518176 c 256,36,37
 1255.73761409 1206.88228114 1255.73761409 1206.88228114 1337.36880704 1056.61849283 c 256,38,39
 1419 906.354704523 1419 906.354704523 1419 728.509580006 c 256,40,41
 1419 550.664455489 1419 550.664455489 1337.3941178 399.927475623 c 256,42,43
 1255.78823559 249.190495757 1255.78823559 249.190495757 1111.91670651 161.095247878 c 256,44,45
 968.045177435 73 968.045177435 73 800.542543308 73 c 256,46,47
 633.039909182 73 633.039909182 73 489.607183854 159.581208744 c 256,24,25
628 679 m 1,48,-1
 829 679 l 2,49,50
 829.662532264 679 829.662532264 679 829.882939578 678.984667317 c 0,51,52
 887.745290346 676.972063812 887.745290346 676.972063812 925.000135265 653.418139951 c 0,53,54
 973.89003564 622.508093392 973.89003564 622.508093392 984.641019663 558.24263375 c 0,55,56
 987.999999221 539.019298505 987.999999221 539.019298505 988 444.5 c 0,57,58
 988 377.75365089 988 377.75365089 995.813128976 341 c 1,59,-1
 1092.12841216 341 l 1,60,61
 1080 381.695775477 1080 381.695775477 1080 456 c 2,62,-1
 1080 517 l 2,63,64
 1079.59497438 579.373944764 1079.59497438 579.373944764 1057.90839003 622.04328923 c 0,65,66
 1031.70048086 673.608546635 1031.70048086 673.608546635 972.535249744 697.856592173 c 2,67,-1
 921.995125703 718.569757764 l 1,68,-1
 970.705292082 743.305389128 l 2,69,70
 1022.63726917 769.677096245 1022.63726917 769.677096245 1050.80309418 805.632532225 c 0,71,72
 1085 849.287019815 1085 849.287019815 1085 909 c 0,73,74
 1085 1021.75185057 1085 1021.75185057 1010.20326512 1079.73038471 c 0,75,76
 932.450860653 1140 932.450860653 1140 788 1140 c 2,77,-1
 537 1140 l 1,78,-1
 537 341 l 1,79,-1
 628 341 l 1,80,-1
 628 679 l 1,48,-1
628 757 m 1,81,-1
 628 1063 l 1,82,-1
 791 1063 l 2,83,84
 899.609078825 1063 899.609078825 1063 945.381976378 1027.20324679 c 0,85,86
 994 989.181459081 994 989.181459081 994 904 c 0,87,88
 994 837.503862253 994 837.503862253 939.979002409 796.98811406 c 0,89,90
 889.634910192 759.230044897 889.634910192 759.230044897 809.705773818 757.009791109 c 2,91,-1
 809.353293902 757 l 1,92,-1
 628 757 l 1,81,-1
EndSplineSet
EndChar

StartChar: macron
Encoding: 175 175 112
Width: 938
GlyphClass: 1
Flags: W
LayerCount: 2
Fore
SplineSet
167 1327 m 1,0,-1
 789 1327 l 1,1,-1
 789 1420 l 1,2,-1
 167 1420 l 1,3,-1
 167 1327 l 1,0,-1
EndSplineSet
EndChar

StartChar: degree
Encoding: 176 176 113
Width: 765
GlyphClass: 1
Flags: W
LayerCount: 2
Fore
SplineSet
222.674203125 1052.67420313 m 256,0,1
 290.34840625 985 290.34840625 985 384.425842575 985 c 256,2,3
 478.503278901 985 478.503278901 985 544.75163945 1052.60036791 c 256,4,5
 611 1120.20073582 611 1120.20073582 611 1215.61908864 c 256,6,7
 611 1311.03744146 611 1311.03744146 544.630657723 1381.01872073 c 256,8,9
 478.261315446 1451 478.261315446 1451 383.973806328 1451 c 256,10,11
 289.68629721 1451 289.68629721 1451 222.343148605 1380.49307931 c 256,12,13
 155 1309.98615863 155 1309.98615863 155 1215.16728244 c 256,14,15
 155 1120.34840625 155 1120.34840625 222.674203125 1052.67420313 c 256,0,1
493.793327451 1329.05427662 m 256,16,17
 538 1284.25021661 538 1284.25021661 538 1216.29867517 c 256,18,19
 538 1148.34713373 538 1148.34713373 493.523324677 1105.67356686 c 256,20,21
 449.046649355 1063 449.046649355 1063 384.398216373 1063 c 256,22,23
 319.749783391 1063 319.749783391 1063 274.945723375 1107.20667255 c 256,24,25
 230 1151.55311961 230 1151.55311961 230 1215.76157508 c 256,26,27
 230 1279.97003055 230 1279.97003055 274.634479167 1326.98501528 c 256,28,29
 319.268958335 1374 319.268958335 1374 384.357919361 1374 c 256,30,31
 449.446880388 1374 449.446880388 1374 493.793327451 1329.05427662 c 256,16,17
EndSplineSet
EndChar

StartChar: plusminus
Encoding: 177 177 114
Width: 1094
GlyphClass: 1
Flags: W
LayerCount: 2
Fore
SplineSet
624 829 m 1,0,-1
 624 1242 l 1,1,-1
 507 1242 l 1,2,-1
 507 829 l 1,3,-1
 122 829 l 1,4,-1
 122 728 l 1,5,-1
 507 728 l 1,6,-1
 507 314 l 1,7,-1
 624 314 l 1,8,-1
 624 728 l 1,9,-1
 988 728 l 1,10,-1
 988 829 l 1,11,-1
 624 829 l 1,0,-1
160 25 m 1,12,-1
 945 25 l 1,13,-1
 945 127 l 1,14,-1
 160 127 l 1,15,-1
 160 25 l 1,12,-1
EndSplineSet
EndChar

StartChar: uni00B2
Encoding: 178 178 115
Width: 751
GlyphClass: 1
Flags: W
LayerCount: 2
Fore
SplineSet
109 692 m 1,0,-1
 658 692 l 1,1,-1
 658 770 l 1,2,-1
 214.344752581 770 l 1,3,-1
 443.482052973 958.777889527 l 1,4,-1
 526.595983423 1036.94456221 l 1,5,6
 626 1136.47562255 626 1136.47562255 626 1230 c 0,7,8
 626 1328.21756385 626 1328.21756385 557.013798555 1385.10878193 c 256,9,10
 488.027597109 1442 488.027597109 1442 365.252207792 1442 c 256,11,12
 242.476818476 1442 242.476818476 1442 166.069789179 1374.28598601 c 0,13,14
 99.995335667 1315.7289853 99.995335667 1315.7289853 92.1178574297 1230 c 1,15,-1
 199.628804303 1230 l 1,16,17
 206.428842929 1280.87625179 206.428842929 1280.87625179 240.230698374 1317.05851959 c 0,18,19
 283.149712972 1363 283.149712972 1363 369 1363 c 0,20,21
 438.998630164 1363 438.998630164 1363 478.499315082 1325.35090969 c 256,22,23
 518 1287.70181937 518 1287.70181937 518 1228 c 0,24,25
 518 1148.16216337 518 1148.16216337 401.073921666 1038.74509924 c 2,26,-1
 109 764.19552805 l 1,27,-1
 109 692 l 1,0,-1
EndSplineSet
EndChar

StartChar: uni00B3
Encoding: 179 179 116
Width: 751
GlyphClass: 1
Flags: W
LayerCount: 2
Fore
SplineSet
362 1363 m 0,0,1
 441.748578787 1363 441.748578787 1363 480.874289394 1326.97950452 c 256,2,3
 520 1290.95900904 520 1290.95900904 520 1233.18953661 c 256,4,5
 520 1175.42006418 520 1175.42006418 476.079962124 1138.21003209 c 256,6,7
 432.159924248 1101 432.159924248 1101 349 1101 c 2,8,-1
 290 1101 l 1,9,-1
 290 1035 l 1,10,-1
 353.326346993 1035 l 1,11,12
 486.741289081 1033.28955202 486.741289081 1033.28955202 522.299831841 954.274367103 c 0,13,14
 534 928.275243434 534 928.275243434 534 895 c 0,15,16
 534 832.192398613 534 832.192398613 489.474624177 795.596199306 c 256,17,18
 444.949248355 759 444.949248355 759 367.768584853 759 c 256,19,20
 290.587921351 759 290.587921351 759 244.39970992 794.079654252 c 0,21,22
 206.894217586 822.564838303 206.894217586 822.564838303 197.701538049 864 c 1,23,-1
 88.2823123299 864 l 1,24,25
 96.4447104229 787.237232841 96.4447104229 787.237232841 160.094482355 738.92475535 c 0,26,27
 236.408048927 681 236.408048927 681 362.105488496 681 c 256,28,29
 487.802928064 681 487.802928064 681 566.212124236 738.653820714 c 0,30,31
 641 793.644905835 641 793.644905835 641 887 c 0,32,33
 641 956.40266241 641 956.40266241 601.967718913 997.111497852 c 0,34,35
 569.961490433 1030.49249051 569.961490433 1030.49249051 510.360925579 1046.89264594 c 2,36,-1
 436.455795651 1067.22895686 l 1,37,-1
 508.155855717 1094.38807052 l 2,38,39
 567.521053866 1116.874888 567.521053866 1116.874888 597.760526933 1156.18620299 c 256,40,41
 628 1195.49751797 628 1195.49751797 628 1242 c 0,42,43
 628 1333.7566337 628 1333.7566337 559.697148412 1386.73512756 c 0,44,45
 488.446569074 1442 488.446569074 1442 360 1442 c 0,46,47
 244.368917472 1442 244.368917472 1442 169.537990289 1385.53249053 c 0,48,49
 108.193029259 1339.24150767 108.193029259 1339.24150767 99.5293727709 1271 c 1,50,-1
 208.060904513 1271 l 1,51,52
 217.610886073 1308.80558121 217.610886073 1308.80558121 253.46697072 1333.18771877 c 0,53,54
 297.308560766 1363 297.308560766 1363 362 1363 c 0,0,1
EndSplineSet
EndChar

StartChar: acute
Encoding: 180 180 117
Width: 642
GlyphClass: 1
Flags: W
LayerCount: 2
Fore
SplineSet
483.389091504 1511 m 1,0,-1
 329.492282769 1511 l 1,1,-1
 169.31541202 1267 l 1,2,-1
 260.967322796 1267 l 1,3,-1
 483.389091504 1511 l 1,0,-1
EndSplineSet
EndChar

StartChar: mu
Encoding: 181 181 118
Width: 1160
GlyphClass: 1
Flags: W
LayerCount: 2
Fore
SplineSet
845 1057 m 1,0,-1
 845 277.086804103 l 1,1,-1
 843.159042718 272.573489476 l 2,2,3
 805.107584219 179.286042834 805.107584219 179.286042834 719.788351907 137.553063553 c 0,4,5
 653.236611781 105 653.236611781 105 559 105 c 0,6,7
 429.550505448 105 429.550505448 105 370.622152364 194.250709525 c 0,8,9
 315.04599714 278.424303845 315.04599714 278.424303845 314.0004793 448.843711638 c 0,10,11
 314.0004793 752.921855819 314.0004793 752.921855819 314.000018925 1057 c 1,12,-1
 179 1057 l 1,13,-1
 179 -391 l 1,14,-1
 314 -391 l 1,15,-1
 314 109.17932449 l 1,16,-1
 355.726403522 71.5740472419 l 2,17,18
 429.596236763 5 429.596236763 5 567 5 c 0,19,20
 723.866747606 5 723.866747606 5 809.398022654 129.15830249 c 2,21,-1
 849.422535474 187.258401744 l 1,22,-1
 862.121019089 25 l 1,23,-1
 981 25 l 1,24,-1
 981 1057 l 1,25,-1
 845 1057 l 1,0,-1
EndSplineSet
EndChar

StartChar: paragraph
Encoding: 182 182 119
Width: 1001
GlyphClass: 1
Flags: W
LayerCount: 2
Fore
SplineSet
918 1431 m 1,0,-1
 596 1431 l 2,1,2
 376.040500755 1431 376.040500755 1431 250.520250377 1310.67043667 c 128,-1,3
 125 1190.34087334 125 1190.34087334 125 1024 c 128,-1,4
 125 857.660329256 125 857.660329256 250.019659947 737.830164628 c 128,-1,5
 375.039319894 618 375.039319894 618 595 618 c 2,6,-1
 626 618 l 1,7,-1
 651.084461985 618 l 1,8,-1
 649.084461985 25 l 1,9,-1
 725 25 l 1,10,-1
 725 1281 l 1,11,-1
 860 1281 l 1,12,-1
 860 25 l 1,13,-1
 918 25 l 1,14,-1
 918 1431 l 1,0,-1
EndSplineSet
EndChar

StartChar: periodcentered
Encoding: 183 183 120
Width: 534
GlyphClass: 1
Flags: W
LayerCount: 2
Fore
SplineSet
172 729.556075619 m 256,0,1
 172 691.624105522 172 691.624105522 193.544238212 667.812052761 c 256,2,3
 215.088476425 644 215.088476425 644 261.128204166 644 c 256,4,5
 307.167931908 644 307.167931908 644 329.583965954 667.935765168 c 256,6,7
 352 691.871530336 352 691.871530336 352 729.55664567 c 256,8,9
 352 767.241761004 352 767.241761004 329.525499213 791.620880502 c 256,10,11
 307.050998426 816 307.050998426 816 261.128478855 816 c 256,12,13
 215.205959284 816 215.205959284 816 193.602979642 791.744022858 c 256,14,15
 172 767.488045716 172 767.488045716 172 729.556075619 c 256,0,1
EndSplineSet
EndChar

StartChar: cedilla
Encoding: 184 184 121
Width: 507
GlyphClass: 2
Flags: W
LayerCount: 2
Fore
SplineSet
401 -225 m 0,0,1
 401 -154.69439391 401 -154.69439391 361.663888357 -117.723590941 c 0,2,3
 329.32535529 -87.329597117 329.32535529 -87.329597117 268.63299448 -76.6191805036 c 2,4,-1
 242.712633372 -72.0449991315 l 1,5,-1
 248.638990107 -46.364119947 l 1,6,-1
 253.569171633 -25 l 1,7,-1
 171.737482466 -25 l 1,8,-1
 150.927022813 -112.143799794 l 1,9,10
 231.561425793 -121.998749069 231.561425793 -121.998749069 263.690782701 -143.08363954 c 0,11,12
 307 -171.505313392 307 -171.505313392 307 -229 c 0,13,14
 307 -262.839450271 307 -262.839450271 289.223581872 -288.829799535 c 0,15,16
 275.366313594 -309.09008143 275.366313594 -309.09008143 251.299303854 -323.474960815 c 0,17,18
 209.592678161 -348.40305893 209.592678161 -348.40305893 142.64155317 -352.263039925 c 1,19,-1
 146.391879109 -409.589450696 l 1,20,21
 264.64256669 -405.355314516 264.64256669 -405.355314516 331.601396084 -358.065641257 c 0,22,23
 401 -309.052877242 401 -309.052877242 401 -225 c 0,0,1
EndSplineSet
EndChar

StartChar: uni00B9
Encoding: 185 185 122
Width: 751
GlyphClass: 1
Flags: W
LayerCount: 2
Fore
SplineSet
363 692 m 1,0,-1
 470 692 l 1,1,-1
 470 1427.36509446 l 1,2,-1
 147 1320.91157333 l 1,3,-1
 147 1243.45797186 l 1,4,-1
 363 1300.45797186 l 1,5,-1
 363 692 l 1,0,-1
EndSplineSet
EndChar

StartChar: ordmasculine
Encoding: 186 186 123
Width: 881
GlyphClass: 1
Flags: W
LayerCount: 2
Fore
SplineSet
208.80859375 1385.95898438 m 128,-1,1
 122 1295.91796875 122 1295.91796875 122 1148 c 2,2,3
 122 1136 122 1136 122 1074 c 2,4,5
 122 919.196289062 122 919.196289062 209.750976562 829.59765625 c 128,-1,6
 297.500976562 740 297.500976562 740 441 740 c 128,-1,7
 584.381835938 740 584.381835938 740 670.690429688 829.540039062 c 128,-1,8
 757 919.080078125 757 919.080078125 757 1068 c 2,9,10
 757 1130 757 1130 757 1142 c 2,11,12
 757 1297.84375 757 1297.84375 670.229492188 1386.921875 c 128,-1,13
 583.458984375 1476 583.458984375 1476 439.538085938 1476 c 128,-1,0
 295.6171875 1476 295.6171875 1476 208.80859375 1385.95898438 c 128,-1,1
290.2265625 893.905273438 m 128,-1,15
 235 958.809570312 235 958.809570312 235 1068 c 2,16,17
 235 1136 235 1136 235 1154 c 2,18,19
 235 1154.39355469 235 1154.39355469 235.005859375 1154.52441406 c 0,20,21
 237.192382812 1260.58886719 237.192382812 1260.58886719 291.916992188 1323.29394531 c 128,-1,22
 346.642578125 1386 346.642578125 1386 440.094726562 1386 c 128,-1,23
 533.547851562 1386 533.547851562 1386 588.7734375 1321.09472656 c 128,-1,24
 644 1256.19042969 644 1256.19042969 644 1148 c 2,25,26
 644 1134 644 1134 644 1070 c 2,27,28
 644 960.015625 644 960.015625 589.884765625 894.5078125 c 128,-1,29
 535.76953125 829 535.76953125 829 440.611328125 829 c 128,-1,14
 345.452148438 829 345.452148438 829 290.2265625 893.905273438 c 128,-1,15
EndSplineSet
EndChar

StartChar: guillemotright
Encoding: 187 187 124
Width: 960
GlyphClass: 1
Flags: W
LayerCount: 2
Fore
SplineSet
863 551.597955007 m 1,0,-1
 580.587138116 924 l 1,1,-1
 496.93514295 924 l 1,2,-1
 738.780731508 549.982985137 l 1,3,-1
 496.997791394 177 l 1,4,-1
 580.587138116 177 l 1,5,-1
 863 549.402044993 l 1,6,-1
 863 551.597955007 l 1,0,-1
514 551.597955007 m 1,7,-1
 231.587138116 924 l 1,8,-1
 147.93514295 924 l 1,9,-1
 389.780731508 549.982985137 l 1,10,-1
 147.997791394 177 l 1,11,-1
 231.587138116 177 l 1,12,-1
 514 549.402044993 l 1,13,-1
 514 551.597955007 l 1,7,-1
EndSplineSet
EndChar

StartChar: onequarter
Encoding: 188 188 125
Width: 1500
GlyphClass: 1
Flags: W
LayerCount: 2
Fore
SplineSet
1293 274 m 1,0,-1
 1293 764 l 1,1,-1
 1169.72181471 764 l 1,2,-1
 805.48306396 263.534024164 l 1,3,-1
 809.573300675 194 l 1,4,-1
 1186 194 l 1,5,-1
 1186 25 l 1,6,-1
 1293 25 l 1,7,-1
 1293 194 l 1,8,-1
 1400 194 l 1,9,-1
 1400 274 l 1,10,-1
 1293 274 l 1,0,-1
1186 677.347454548 m 1,11,-1
 1186 274 l 1,12,-1
 886.424069511 274 l 1,13,-1
 1123.41218464 574.261641007 l 1,14,-1
 1186 677.347454548 l 1,11,-1
373.354623879 191.806229156 m 1,15,-1
 435.138301845 152.597356601 l 1,16,-1
 1119.64537612 1248.19377084 l 1,17,-1
 1057.86169816 1287.4026434 l 1,18,-1
 373.354623879 191.806229156 l 1,15,-1
326 689 m 1,19,-1
 433 689 l 1,20,-1
 433 1424.36509446 l 1,21,-1
 110 1317.91157333 l 1,22,-1
 110 1240.45797186 l 1,23,-1
 326 1297.45797186 l 1,24,-1
 326 689 l 1,19,-1
EndSplineSet
EndChar

StartChar: onehalf
Encoding: 189 189 126
Width: 1589
GlyphClass: 1
Flags: W
LayerCount: 2
Fore
SplineSet
907 25 m 1,0,-1
 1456 25 l 1,1,-1
 1456 103 l 1,2,-1
 1012.34475258 103 l 1,3,-1
 1241.48205297 291.777889527 l 1,4,-1
 1324.59598342 369.944562213 l 1,5,6
 1424 469.475622549 1424 469.475622549 1424 563 c 0,7,8
 1424 661.21756385 1424 661.21756385 1355.01379855 718.108781925 c 0,9,10
 1286.02759711 775 1286.02759711 775 1163.25220779 775 c 0,11,12
 1040.47681848 775 1040.47681848 775 964.069789179 707.285986013 c 0,13,14
 897.995335667 648.728985295 897.995335667 648.728985295 890.11785743 563 c 1,15,-1
 997.628804303 563 l 1,16,17
 1004.42884293 613.876251786 1004.42884293 613.876251786 1038.23069837 650.058519586 c 0,18,19
 1081.14971297 696 1081.14971297 696 1167 696 c 0,20,21
 1236.99863016 696 1236.99863016 696 1276.49931508 658.350909688 c 0,22,23
 1316 620.701819375 1316 620.701819375 1316 561 c 0,24,25
 1316 481.162163369 1316 481.162163369 1199.07392167 371.745099241 c 2,26,-1
 907 97.1955280498 l 1,27,-1
 907 25 l 1,0,-1
321 689 m 1,28,-1
 428 689 l 1,29,-1
 428 1424.36509446 l 1,30,-1
 105 1317.91157333 l 1,31,-1
 105 1240.45797186 l 1,32,-1
 321 1297.45797186 l 1,33,-1
 321 689 l 1,28,-1
329.354623879 191.806229156 m 1,34,-1
 391.138301845 152.597356601 l 1,35,-1
 1075.64537612 1248.19377084 l 1,36,-1
 1013.86169816 1287.4026434 l 1,37,-1
 329.354623879 191.806229156 l 1,34,-1
EndSplineSet
EndChar

StartChar: threequarters
Encoding: 190 190 127
Width: 1593
GlyphClass: 1
Flags: W
LayerCount: 2
Fore
SplineSet
411 1363 m 0,0,1
 490.748578787 1363 490.748578787 1363 529.874289394 1326.97950452 c 0,2,3
 569 1290.95900904 569 1290.95900904 569 1233.18953661 c 0,4,5
 569 1175.42006418 569 1175.42006418 525.079962124 1138.21003209 c 0,6,7
 481.159924248 1101 481.159924248 1101 398 1101 c 2,8,-1
 339 1101 l 1,9,-1
 339 1035 l 1,10,-1
 402.326346993 1035 l 1,11,12
 535.741289081 1033.28955202 535.741289081 1033.28955202 571.299831841 954.274367103 c 0,13,14
 583 928.275243434 583 928.275243434 583 895 c 0,15,16
 583 832.192398613 583 832.192398613 538.474624177 795.596199306 c 0,17,18
 493.949248355 759 493.949248355 759 416.768584853 759 c 0,19,20
 339.587921351 759 339.587921351 759 293.39970992 794.079654252 c 0,21,22
 255.894217586 822.564838303 255.894217586 822.564838303 246.701538049 864 c 1,23,-1
 137.28231233 864 l 1,24,25
 145.444710423 787.237232841 145.444710423 787.237232841 209.094482355 738.92475535 c 0,26,27
 285.408048927 681 285.408048927 681 411.105488496 681 c 0,28,29
 536.802928064 681 536.802928064 681 615.212124236 738.653820714 c 0,30,31
 690 793.644905835 690 793.644905835 690 887 c 0,32,33
 690 956.40266241 690 956.40266241 650.967718913 997.111497852 c 0,34,35
 618.961490433 1030.49249051 618.961490433 1030.49249051 559.360925579 1046.89264594 c 2,36,-1
 485.455795651 1067.22895686 l 1,37,-1
 557.155855717 1094.38807052 l 2,38,39
 616.521053866 1116.874888 616.521053866 1116.874888 646.760526933 1156.18620299 c 0,40,41
 677 1195.49751797 677 1195.49751797 677 1242 c 0,42,43
 677 1333.7566337 677 1333.7566337 608.697148412 1386.73512756 c 0,44,45
 537.446569074 1442 537.446569074 1442 409 1442 c 0,46,47
 293.368917472 1442 293.368917472 1442 218.537990289 1385.53249053 c 0,48,49
 157.193029259 1339.24150767 157.193029259 1339.24150767 148.529372771 1271 c 1,50,-1
 257.060904513 1271 l 1,51,52
 266.610886073 1308.80558121 266.610886073 1308.80558121 302.46697072 1333.18771877 c 0,53,54
 346.308560766 1363 346.308560766 1363 411 1363 c 0,0,1
1385 274 m 1,55,-1
 1385 764 l 1,56,-1
 1261.72181471 764 l 1,57,-1
 897.48306396 263.534024164 l 1,58,-1
 901.573300675 194 l 1,59,-1
 1278 194 l 1,60,-1
 1278 25 l 1,61,-1
 1385 25 l 1,62,-1
 1385 194 l 1,63,-1
 1492 194 l 1,64,-1
 1492 274 l 1,65,-1
 1385 274 l 1,55,-1
1278 677.347454548 m 1,66,-1
 1278 274 l 1,67,-1
 978.424069511 274 l 1,68,-1
 1215.41218464 574.261641007 l 1,69,-1
 1278 677.347454548 l 1,66,-1
500.354623879 191.806229156 m 1,70,-1
 562.138301845 152.597356601 l 1,71,-1
 1246.64537612 1248.19377084 l 1,72,-1
 1184.86169816 1287.4026434 l 1,73,-1
 500.354623879 191.806229156 l 1,70,-1
EndSplineSet
EndChar

StartChar: questiondown
Encoding: 191 191 128
Width: 969
GlyphClass: 1
Flags: W
LayerCount: 2
Fore
SplineSet
478 -249 m 0,0,1
 358.714961123 -249 358.714961123 -249 293.403061337 -184.251133833 c 256,2,3
 228 -119.41189199 228 -119.41189199 228 0 c 2,4,-1
 228 0.685917568908 l 2,5,6
 228.036893362 19.8684447698 228.036893362 19.8684447698 230.036893362 38.3684447698 c 2,7,-1
 230.075362857 39.0801304234 l 1,8,9
 242.081438428 147.134810563 242.081438428 147.134810563 339.905835716 249.74409685 c 0,10,11
 431.222939687 345.527798297 431.222939687 345.527798297 477.430116036 402.324119226 c 256,12,13
 523.637292385 459.120440155 523.637292385 459.120440155 542.703190749 518.178222891 c 0,14,15
 559.520843641 570.271928192 559.520843641 570.271928192 562.4529702 655 c 1,16,-1
 427.517063397 655 l 1,17,18
 422.116581643 517.895758361 422.116581643 517.895758361 355.561602281 439.23987366 c 1,19,-1
 246.227386346 325.893392921 l 1,20,21
 107.406634395 107.701666019 107.406634395 107.701666019 93 -5 c 1,22,23
 93 -173.189627831 93 -173.189627831 192.446317523 -266.594813915 c 256,24,25
 291.892635046 -360 291.892635046 -360 478 -360 c 0,26,27
 651.360876884 -360 651.360876884 -360 756.717760603 -264.476425428 c 0,28,29
 852.415403291 -177.710562725 852.415403291 -177.710562725 861.948941127 -45 c 1,30,-1
 726.846620072 -45 l 1,31,32
 718.808679521 -130.403709148 718.808679521 -130.403709148 657.254885335 -186.048339091 c 0,33,34
 587.618092295 -249 587.618092295 -249 478 -249 c 0,0,1
487 915 m 256,35,36
 529.764394853 915 529.764394853 915 550.382197426 938.241886537 c 256,37,38
 571 961.483773075 571 961.483773075 571 996.383084701 c 256,39,40
 571 1031.28239633 571 1031.28239633 550.50443165 1053.64119816 c 256,41,42
 530.0088633 1076 530.0088633 1076 487 1076 c 256,43,44
 443.857257021 1076 443.857257021 1076 422.928628511 1053.57646945 c 256,45,46
 402 1031.15293891 402 1031.15293891 402 996.382458681 c 256,47,48
 402 961.611978455 402 961.611978455 423.050570915 938.305989228 c 256,49,50
 444.101141831 915 444.101141831 915 487 915 c 256,35,36
EndSplineSet
EndChar

StartChar: AE
Encoding: 198 198 129
Width: 1814
GlyphClass: 2
Flags: W
LayerCount: 2
Fore
SplineSet
947.719564955 25 m 1,0,-1
 1759.67871094 25 l 1,1,-1
 1759.67871094 126 l 1,2,-1
 1072.89196146 126 l 1,3,-1
 1049.72320175 707 l 1,4,-1
 1616.67871094 707 l 1,5,-1
 1616.67871094 808 l 1,6,-1
 1045.96638501 808 l 1,7,-1
 1024.6736839 1329 l 1,8,-1
 1697.67871094 1329 l 1,9,-1
 1697.67871094 1431 l 1,10,-1
 813.109541021 1431 l 1,11,-1
 -14 25 l 1,12,-1
 153.287109375 25 l 1,13,-1
 353.538159106 378 l 1,14,-1
 933.282560935 378 l 1,15,-1
 947.719564955 25 l 1,0,-1
894.203019717 1346.67578125 m 1,16,-1
 928.584895174 502 l 1,17,-1
 422.83389858 502 l 1,18,-1
 894.203019717 1346.67578125 l 1,16,-1
EndSplineSet
Substitution2: "Podtablica 'c2sc' Wersaliki na kapitaliki w tablicy 0" AE.c2sc
Position2: "Podtablica 'cpsp' +AVoA-wiat+AUIA-o wersalikowe w tablicy 0" dx=36 dy=0 dh=72 dv=0
EndChar

StartChar: multiply
Encoding: 215 215 130
Width: 1092
GlyphClass: 1
Flags: W
LayerCount: 2
Fore
SplineSet
125.879135283 1000.10409896 m 1,0,-1
 454.007602346 664.972890223 l 1,1,-1
 123.905362873 328.868791851 l 1,2,-1
 208.135109618 241.807793114 l 1,3,-1
 539 578.67023438 l 1,4,-1
 869.864890382 241.807793114 l 1,5,-1
 954.094637127 328.868791851 l 1,6,-1
 623.992397654 664.972890223 l 1,7,-1
 952.120864717 1000.10409896 l 1,8,-1
 867.865855402 1087.19120943 l 1,9,-1
 539 752.327800432 l 1,10,-1
 210.134144598 1087.19120943 l 1,11,-1
 125.879135283 1000.10409896 l 1,0,-1
EndSplineSet
EndChar

StartChar: Oslash
Encoding: 216 216 131
Width: 1308
GlyphClass: 2
Flags: W
LayerCount: 2
Fore
SplineSet
1119.63867188 306.138671875 m 128,-1,1
 1189 464.720703125 1189 464.720703125 1189 680.021484375 c 2,2,3
 1189 731.73828125 1189 731.73828125 1189 782.197265625 c 1,4,5
 1187.05566406 1077.11132812 1187.05566406 1077.11132812 1054.8203125 1263.39746094 c 2,6,7
 1049.82910156 1288.35546875 1049.82910156 1288.35546875 1044.83691406 1277.46191406 c 1,8,9
 1116.89355469 1418.70703125 1116.89355469 1418.70703125 1188.95117188 1516 c 1,10,-1
 1106.86425781 1516 l 1,11,12
 1051.39355469 1447.15039062 1051.39355469 1447.15039062 995.922851562 1332.57910156 c 1,13,14
 984.903320312 1362.41210938 984.903320312 1362.41210938 973.883789062 1351.79101562 c 2,15,16
 841.628776803 1474.71679688 841.628776803 1474.71679688 653.039715321 1474.71679688 c 0,17,18
 501.437944005 1474.71679688 501.437944005 1474.71679688 384.193906826 1390.53320312 c 0,19,20
 258.719726562 1306.43066406 258.719726562 1306.43066406 188.359375 1146.27636719 c 128,-1,21
 118 986.123046875 118 986.123046875 118 774.97265625 c 2,22,23
 118 732.803710938 118 732.803710938 118 689.310546875 c 2,24,25
 118 328.366210938 118 328.366210938 300.767578125 137.750976562 c 2,26,27
 307.715820312 111.87109375 307.715820312 111.87109375 314.6640625 123.2578125 c 1,28,29
 249.353515625 -7.205078125 249.353515625 -7.205078125 184.04296875 -93 c 1,30,-1
 267.154296875 -93 l 1,31,32
 318.61328125 -31.21484375 318.61328125 -31.21484375 369.569979326 76.73046875 c 1,33,34
 379.313271036 49.3154296875 379.313271036 49.3154296875 389.055663752 63.0556640625 c 2,35,36
 504.071096009 -17.6591796875 504.071096009 -17.6591796875 657.136428766 -17.6591796875 c 128,-1,37
 810.20086253 -17.6591796875 810.20086253 -17.6591796875 925.988530215 64.94921875 c 0,38,0
 1050.27832031 147.556640625 1050.27832031 147.556640625 1119.63867188 306.138671875 c 128,-1,1
361.45703125 281.755859375 m 2,39,40
 259 429.168945312 259 429.168945312 259 681 c 2,41,-1
 259 788.310546875 l 1,42,43
 262.099609375 1042.50292969 262.099609375 1042.50292969 370.91397463 1187.53710938 c 0,44,45
 474.033924703 1336 474.033924703 1336 653.039715321 1336 c 0,46,47
 815.955320016 1336 815.955320016 1336 916.700129224 1216.90625 c 2,48,-1
 928.545267771 1202.90429688 l 1,49,-1
 381.588623621 250.578125 l 1,50,-1
 361.45703125 281.755859375 l 2,39,40
989.999023438 1097.80859375 m 2,51,52
 1048 962.12890625 1048 962.12890625 1048 775 c 2,53,-1
 1048 666.698242188 l 1,54,55
 1044.90332031 405.515625 1044.90332031 405.515625 938.402731657 263.485351562 c 0,56,57
 837.585103975 118 837.585103975 118 654.880854038 118 c 0,58,59
 536.212811132 118 536.212811132 118 446.502248322 186.537109375 c 2,60,-1
 428.677004916 200.155273438 l 1,61,-1
 971.143554688 1141.91796875 l 1,62,-1
 989.999023438 1097.80859375 l 2,51,52
EndSplineSet
Substitution2: "Podtablica 'c2sc' Wersaliki na kapitaliki w tablicy 0" Oslash.c2sc
Position2: "Podtablica 'cpsp' +AVoA-wiat+AUIA-o wersalikowe w tablicy 0" dx=36 dy=0 dh=72 dv=0
EndChar

StartChar: Thorn
Encoding: 222 222 132
Width: 1110
GlyphClass: 1
Flags: W
LayerCount: 2
Fore
SplineSet
166 25 m 1,0,-1
 302 25 l 1,1,-1
 302 338 l 1,2,-1
 577.892644329 338 l 2,3,4
 768.934019595 338 768.934019595 338 892.806640625 446.668945312 c 0,5,6
 1017 555.337890625 1017 555.337890625 1017 738 c 0,7,8
 1017 856.944335938 1017 856.944335938 961.280273438 947.78125 c 128,-1,9
 905.560546875 1038.61914062 905.560546875 1038.61914062 801.447265625 1088.30957031 c 0,10,11
 706.358358658 1138 706.358358658 1138 582.282113901 1138 c 2,12,-1
 302 1138 l 1,13,-1
 302 1431 l 1,14,-1
 166 1431 l 1,15,-1
 166 25 l 1,0,-1
302 1036 m 1,16,-1
 585.958294666 1036 l 1,17,18
 713.969630309 1034.92773438 713.969630309 1034.92773438 793.501953125 952.3515625 c 0,19,20
 881 869.775390625 881 869.775390625 881 737.5 c 128,-1,21
 881 605.224609375 881 605.224609375 793.463867188 522.612304688 c 0,22,23
 713.901902165 440 713.901902165 440 580.526326072 440 c 2,24,-1
 302 440 l 1,25,-1
 302 1036 l 1,16,-1
EndSplineSet
Substitution2: "Podtablica 'c2sc' Wersaliki na kapitaliki w tablicy 0" Thorn.c2sc
Position2: "Podtablica 'cpsp' +AVoA-wiat+AUIA-o wersalikowe w tablicy 0" dx=36 dy=0 dh=72 dv=0
EndChar

StartChar: germandbls
Encoding: 223 223 133
Width: 1118
GlyphClass: 1
Flags: W
LayerCount: 2
Fore
SplineSet
139 1136 m 2,0,1
 139 618 139 618 139 50 c 1,2,-1
 274 50 l 1,3,4
 274 617 274 617 274 1134 c 2,5,6
 274 1370.9609375 274 1370.9609375 409.48017466 1432.02636719 c 0,7,8
 449.764278826 1452 449.764278826 1452 502.289668061 1452 c 0,9,10
 589.883769943 1452 589.883769943 1452 642.516782501 1391.0703125 c 128,-1,11
 695.150662988 1330.140625 695.150662988 1330.140625 695.150662988 1226 c 0,12,13
 695.150662988 1134.38769531 695.150662988 1134.38769531 629.621946124 1024.58789062 c 0,14,15
 571.612974993 927.387695312 571.612974993 927.387695312 571.612974993 846 c 0,16,17
 571.612974993 772.220703125 571.612974993 772.220703125 607.524447695 708.127929688 c 128,-1,18
 643.436788327 644.034179688 643.436788327 644.034179688 726.999355245 570.90625 c 0,19,20
 813.856445312 497.778320312 813.856445312 497.778320312 852.811523438 447.243164062 c 0,21,22
 895 392.51171875 895 392.51171875 895 332 c 0,23,24
 895 238.282226562 895 238.282226562 830.516601562 184.641601562 c 0,25,26
 768.057652993 131 768.057652993 131 664.932811249 131 c 0,27,28
 614.284754657 131 614.284754657 131 550.954504546 154.224609375 c 0,29,30
 504.905609155 171.111328125 504.905609155 171.111328125 467.932658033 193.766601562 c 1,31,32
 454.915443523 165.971679688 454.915443523 165.971679688 441.898229013 88.177734375 c 1,33,34
 474.550624472 67.9775390625 474.550624472 67.9775390625 535.545274887 51.2939453125 c 1,35,36
 643.668525644 30.634765625 643.668525644 30.634765625 682.708018154 30 c 0,37,38
 842.598632812 30 842.598632812 30 936.298828125 112.161132812 c 128,-1,39
 1030 194.322265625 1030 194.322265625 1030 342 c 0,40,41
 1030 410.760742188 1030 410.760742188 990.125976562 473.81640625 c 128,-1,42
 950.251953125 536.873046875 950.251953125 536.873046875 856.78515625 608.46484375 c 0,43,44
 765.646543384 680.055664062 765.646543384 680.055664062 730.583906247 730.02734375 c 0,45,46
 692.484381952 784.327148438 692.484381952 784.327148438 692.484381952 844 c 0,47,48
 692.484381952 920.221679688 692.484381952 920.221679688 752.775141118 1027.80761719 c 0,49,50
 809 1123.22167969 809 1123.22167969 809 1241 c 0,51,52
 809 1388.94335938 809 1388.94335938 725.522138343 1471.47167969 c 0,53,54
 644.798570536 1554 644.798570536 1554 491.462241003 1554 c 0,55,56
 332.288085938 1554 332.288085938 1554 235.64453125 1444.28320312 c 128,-1,57
 139 1334.56640625 139 1334.56640625 139 1136 c 2,0,1
EndSplineSet
Substitution2: "Podtablica 'smcp' Tekstowe na kapitaliki w tablicy 1" germandbls.sc
EndChar

StartChar: ae
Encoding: 230 230 134
Width: 1629
GlyphClass: 2
Flags: W
LayerCount: 2
Fore
SplineSet
241.90625 786.51953125 m 1,0,1
 252.573242188 862.025390625 252.573242188 862.025390625 319.573242188 914.66796875 c 0,2,3
 392.870630622 975 392.870630622 975 501.780976839 975 c 128,-1,4
 610.690393421 975 610.690393421 975 669.628261866 905.770507812 c 128,-1,5
 728.565200677 836.541015625 728.565200677 836.541015625 728.565200677 720 c 2,6,-1
 728.565200677 610 l 1,7,-1
 492.48277718 610 l 2,8,9
 288.473632812 610 288.473632812 610 181.689453125 528.147460938 c 0,10,11
 78 448.66796875 78 448.66796875 78 304 c 0,12,13
 78 163.962890625 78 163.962890625 164.5 84.4814453125 c 128,-1,14
 251 5 251 5 403.951868368 5 c 0,15,16
 533.414563921 5 533.414563921 5 635.822120034 49.744140625 c 128,-1,17
 738.229676147 94.4892578125 738.229676147 94.4892578125 796.195147387 175.053710938 c 2,18,-1
 815.195007878 201.4609375 l 1,19,-1
 834.191149833 175.049804688 l 2,20,21
 956.499381821 5 956.499381821 5 1193.11448562 5 c 0,22,23
 1389.3359375 5 1389.3359375 5 1535.63964844 108.921875 c 1,24,-1
 1492.66699219 200.23828125 l 1,25,-1
 1469.73925781 185.115234375 l 1,26,-1
 1469.27050781 184.813476562 l 1,27,28
 1342.19824219 105 1342.19824219 105 1193.11448562 105 c 0,29,30
 1040.76791856 105 1040.76791856 105 951.48400618 207.954101562 c 128,-1,31
 862.200093797 310.908203125 862.200093797 310.908203125 855.193442044 495.991210938 c 2,32,-1
 854.208029963 522 l 1,33,-1
 1560 522 l 1,34,-1
 1560 612 l 2,35,36
 1560 835.391601562 1560 835.391601562 1450.94726562 956.196289062 c 128,-1,37
 1341.89453125 1077 1341.89453125 1077 1151.22889436 1077 c 0,38,39
 1056.89706914 1077 1056.89706914 1077 978.929591916 1036.04785156 c 128,-1,40
 900.961185057 995.095703125 900.961185057 995.095703125 844.279538425 920.430664062 c 2,41,-1
 822.933281619 892.3125 l 1,42,-1
 805.262797804 923.125976562 l 2,43,44
 761.401734206 999.612304688 761.401734206 999.612304688 683.294811875 1038.30566406 c 128,-1,45
 605.187889544 1077 605.187889544 1077 501.050284484 1077 c 0,46,47
 330.946777644 1077 330.946777644 1077 216.952148438 991.467773438 c 0,48,49
 115.330078125 915.461914062 115.330078125 915.461914062 106.815429688 800.46875 c 1,50,-1
 241.90625 786.51953125 l 1,0,1
591.761185117 144.209960938 m 128,-1,52
 512.065518213 105 512.065518213 105 438.221897586 105 c 0,53,54
 335.026011808 105 335.026011808 105 274.796875 158.340820312 c 0,55,56
 214 211.681640625 214 211.681640625 214 300 c 0,57,58
 214 395.146484375 214 395.146484375 293.573242188 457.66796875 c 0,59,60
 367.94156423 517.852539062 367.94156423 517.852539062 487.309363752 519.99609375 c 1,61,-1
 728.565200677 519.99609375 l 1,62,-1
 728.565200677 248.209960938 l 1,63,-1
 722.230674334 241.0234375 l 2,64,51
 671.457781655 183.420898438 671.457781655 183.420898438 591.761185117 144.209960938 c 128,-1,52
952.887753579 880.911132812 m 0,65,66
 1030.93239043 975 1030.93239043 975 1151.22889436 975 c 0,67,68
 1278.82023659 975 1278.82023659 975 1351.01660156 893.838867188 c 0,69,70
 1425 812.677734375 1425 812.677734375 1425 671 c 2,71,-1
 1425 640 l 1,72,-1
 1425 615 l 1,73,-1
 856.843542464 615 l 1,74,-1
 860.110276477 643.060546875 l 2,75,76
 877.175568533 789.6328125 877.175568533 789.6328125 952.887753579 880.911132812 c 0,65,66
EndSplineSet
Substitution2: "Podtablica 'smcp' Tekstowe na kapitaliki w tablicy 1" AE.c2sc
EndChar

StartChar: eth
Encoding: 240 240 135
Width: 1100
GlyphClass: 1
Flags: W
LayerCount: 2
Fore
SplineSet
765.864257812 869.803710938 m 2,0,1
 660.94655293 977 660.94655293 977 526.926671316 977 c 0,2,3
 420.294007582 977 420.294007582 977 329.76953125 915.813476562 c 0,4,5
 232.411132812 854.669921875 232.411132812 854.669921875 179.205078125 743.983398438 c 128,-1,6
 126 633.297851562 126 633.297851562 126 492 c 0,7,8
 126 364.323242188 126 364.323242188 183.337890625 258.176757812 c 128,-1,9
 240.676757812 152.030273438 240.676757812 152.030273438 344.732421875 91.0146484375 c 0,10,11
 439.195924299 30 439.195924299 30 550.661576192 30 c 128,-1,12
 662.127228084 30 662.127228084 30 755.34765625 97.9423828125 c 0,13,14
 857.26171875 165.885742188 857.26171875 165.885742188 913.130859375 286.696289062 c 128,-1,15
 969 407.5078125 969 407.5078125 969 560 c 2,16,17
 969 631.5 969 631.5 969 653 c 2,18,19
 969 1052.07714844 969 1052.07714844 726.8125 1308.85351562 c 2,20,21
 717.589892301 1344.48535156 717.589892301 1344.48535156 708.811345969 1330.11621094 c 1,22,23
 792.1875 1413.59472656 792.1875 1413.59472656 877.6171875 1447.07324219 c 1,24,25
 855.853515625 1501.88671875 855.853515625 1501.88671875 834.08984375 1506.70019531 c 1,26,27
 741.984375 1468.83398438 741.984375 1468.83398438 659.015238539 1380.96875 c 1,28,29
 652.707475116 1411.69140625 652.707475116 1411.69140625 646.399711692 1392.4140625 c 2,30,31
 504.012510936 1521.59863281 504.012510936 1521.59863281 303.001953125 1575.54199219 c 1,32,33
 282.806640625 1544.20605469 282.806640625 1544.20605469 262.610351562 1462.87011719 c 1,34,35
 425.52625374 1413.45410156 425.52625374 1413.45410156 535.825764496 1326.59667969 c 2,36,37
 548.972210439 1341.24511719 548.972210439 1341.24511719 562.117801439 1305.89355469 c 1,38,39
 474.269927343 1262.42871094 474.269927343 1262.42871094 386.422908189 1168.96484375 c 1,40,41
 405.394075222 1164.57519531 405.394075222 1164.57519531 424.366097198 1110.18652344 c 1,42,43
 518.56961148 1208.23828125 518.56961148 1208.23828125 612.772270821 1256.29101562 c 1,44,45
 619.170658116 1273.98242188 619.170658116 1273.98242188 625.568190469 1241.67382812 c 2,46,47
 757.6171875 1095.73144531 757.6171875 1095.73144531 807.27734375 893.987304688 c 2,48,49
 817.404296875 877.844726562 817.404296875 877.844726562 827.532226562 811.703125 c 1,50,51
 796.698242188 865.752929688 796.698242188 865.752929688 765.864257812 869.803710938 c 2,0,1
834 635 m 1,52,-1
 834 541 l 2,53,54
 834 349.336914062 834 349.336914062 753.216796875 230.009765625 c 0,55,56
 675.985840865 106 675.985840865 106 554.383994455 106 c 128,-1,57
 432.782148044 106 432.782148044 106 351.231445312 211.900390625 c 0,58,59
 261 317.80078125 261 317.80078125 261 467 c 0,60,61
 261 643.16796875 261 643.16796875 348.713867188 746.583984375 c 0,62,63
 428.374921093 850 428.374921093 850 565.446946299 850 c 0,64,65
 651.390009212 850 651.390009212 850 717.573648399 810.296875 c 0,66,67
 792.366210938 770.594726562 792.366210938 770.594726562 829.00390625 702.869140625 c 2,68,-1
 831.775390625 697.747070312 l 1,69,-1
 833.983398438 635.90625 l 1,70,-1
 834 635 l 1,52,-1
EndSplineSet
Substitution2: "Podtablica 'smcp' Tekstowe na kapitaliki w tablicy 1" Eth.c2sc
EndChar

StartChar: divide
Encoding: 247 247 136
Width: 1169
GlyphClass: 1
Flags: W
LayerCount: 2
Fore
SplineSet
96 625 m 1,0,-1
 1044 625 l 1,1,-1
 1044 759 l 1,2,-1
 96 759 l 1,3,-1
 96 625 l 1,0,-1
486 1098.61332147 m 256,4,5
 486 1060.73859722 486 1060.73859722 507.484677753 1037.36929861 c 256,6,7
 528.969355506 1014 528.969355506 1014 575.127897009 1014 c 256,8,9
 621.286438512 1014 621.286438512 1014 643.643219256 1037.49356621 c 256,10,11
 666 1060.98713241 666 1060.98713241 666 1098.61444671 c 256,12,13
 666 1136.241761 666 1136.241761 643.525499213 1160.6208805 c 256,14,15
 621.050998426 1185 621.050998426 1185 575.128478855 1185 c 256,16,17
 529.205959284 1185 529.205959284 1185 507.602979642 1160.74402286 c 256,18,19
 486 1136.48804572 486 1136.48804572 486 1098.61332147 c 256,4,5
486 282.056075619 m 256,20,21
 486 244.624105522 486 244.624105522 507.544238212 220.812052761 c 256,22,23
 529.088476425 197 529.088476425 197 575.128204166 197 c 256,24,25
 621.167931908 197 621.167931908 197 643.583965954 220.935765168 c 256,26,27
 666 244.871530336 666 244.871530336 666 282.05664567 c 256,28,29
 666 319.241761004 666 319.241761004 643.525499213 343.620880502 c 256,30,31
 621.050998426 368 621.050998426 368 575.128478855 368 c 256,32,33
 529.205959284 368 529.205959284 368 507.602979642 343.744022858 c 256,34,35
 486 319.488045716 486 319.488045716 486 282.056075619 c 256,20,21
EndSplineSet
EndChar

StartChar: oslash
Encoding: 248 248 137
Width: 1060
GlyphClass: 2
Flags: W
LayerCount: 2
Fore
SplineSet
149.658203125 836.03515625 m 128,-1,1
 91 710.7109375 91 710.7109375 91 551.541992188 c 0,2,3
 91 218.87890625 91 218.87890625 285.67578125 71.9072265625 c 2,4,5
 294.204101562 47.220703125 294.204101562 47.220703125 302.732421875 59.0302734375 c 1,6,7
 256.959960938 -59.716796875 256.959960938 -59.716796875 211.186523438 -134 c 1,8,-1
 279.5 -134 l 1,9,10
 318.215820312 -75.86328125 318.215820312 -75.86328125 354.656529483 27.94140625 c 1,11,12
 364.184993369 3.525390625 364.184993369 3.525390625 373.712590795 18.861328125 c 2,13,14
 446.019569037 -15.587890625 446.019569037 -15.587890625 533.943627672 -15.587890625 c 0,15,16
 655.463817862 -15.587890625 655.463817862 -15.587890625 751.845703125 51.677734375 c 0,17,18
 857.729492188 118.943359375 857.729492188 118.943359375 916.865234375 244.762695312 c 128,-1,19
 976 370.58203125 976 370.58203125 976 528.690429688 c 0,20,21
 976 848.498046875 976 848.498046875 790.524414062 1000.64550781 c 2,22,23
 782.548828125 1025.3828125 782.548828125 1025.3828125 774.57421875 1013.72851562 c 1,24,25
 821.104492188 1133.07226562 821.104492188 1133.07226562 867.634765625 1208 c 1,26,-1
 799.546875 1208 l 1,27,28
 761.161132812 1150.00390625 761.161132812 1150.00390625 723.61698544 1046.32910156 c 1,29,30
 713.877971703 1071.33203125 713.877971703 1071.33203125 704.138091504 1056.51855469 c 2,31,32
 625.030266391 1097.89746094 625.030266391 1097.89746094 532.169116984 1097.89746094 c 0,33,34
 411.589902677 1097.89746094 411.589902677 1097.89746094 314.612304688 1029.56738281 c 0,35,0
 208.31640625 961.358398438 208.31640625 961.358398438 149.658203125 836.03515625 c 128,-1,1
329.169921875 207.561523438 m 2,36,37
 226 325.622070312 226 325.622070312 226 529 c 0,38,39
 226 740.509765625 226 740.509765625 315.1875 856.240234375 c 0,40,41
 398.821743741 975 398.821743741 975 532.169116984 975 c 0,42,43
 601.441751266 975 601.441751266 975 661.212781932 940.23046875 c 2,44,-1
 680.607629219 928.948242188 l 1,45,-1
 351.898586358 179.3515625 l 1,46,-1
 329.169921875 207.561523438 l 2,36,37
747.686523438 859.403320312 m 2,47,48
 840 741.624023438 840 741.624023438 840 551 c 2,49,-1
 840 535 l 2,50,51
 840 341.560546875 840 341.560546875 751.390625 225.361328125 c 0,52,53
 668.248439543 106 668.248439543 106 533.943627672 106 c 0,54,55
 470.573320933 106 470.573320933 106 417.425512777 133.227539062 c 2,56,-1
 396.546419001 143.924804688 l 1,57,-1
 723.973100622 890.673828125 l 1,58,-1
 747.686523438 859.403320312 l 2,47,48
EndSplineSet
Substitution2: "Podtablica 'smcp' Tekstowe na kapitaliki w tablicy 1" Oslash.c2sc
EndChar

StartChar: thorn
Encoding: 254 254 138
Width: 1080
GlyphClass: 1
Flags: W
LayerCount: 2
Fore
SplineSet
854.971679688 135.073242188 m 0,0,1
 963 283.223632812 963 283.223632812 963 528.185546875 c 2,2,3
 963 536.301757812 963 536.301757812 963 545.631835938 c 2,4,5
 963 805.772460938 963 805.772460938 854.701171875 949.723632812 c 0,6,7
 748.72265625 1090.59082031 748.72265625 1090.59082031 586.398990592 1090.59082031 c 0,8,9
 428.301411737 1090.59082031 428.301411737 1090.59082031 327.998046875 964.106445312 c 2,10,11
 305.999023438 947.663085938 305.999023438 947.663085938 284 911.360351562 c 1,12,13
 284 1241.12695312 284 1241.12695312 284 1536 c 1,14,-1
 149 1536 l 1,15,16
 149 560 149 560 149 -416 c 1,17,-1
 284 -416 l 1,18,19
 284 -146.25390625 284 -146.25390625 284 159.673828125 c 1,20,21
 305.774414062 123.780273438 305.774414062 123.780273438 327.547851562 110.234375 c 2,22,23
 427.948849393 -9.58984375 427.948849393 -9.58984375 588.899054983 -9.58984375 c 0,24,25
 749.487304688 -9.58984375 749.487304688 -9.58984375 854.971679688 135.073242188 c 0,0,1
745.1484375 853.794921875 m 0,26,27
 828 741.202148438 828 741.202148438 828 550 c 0,28,29
 828 333.724609375 828 333.724609375 744.569335938 221.59765625 c 0,30,31
 666.433179088 106 666.433179088 106 540.416237113 106 c 0,32,33
 469.515696103 106 469.515696103 106 414.230200489 137.84765625 c 0,34,35
 337.069335938 177.836914062 337.069335938 177.836914062 287.178710938 266.797851562 c 2,36,-1
 284 272.466796875 l 1,37,-1
 284 802.5625 l 1,38,-1
 287.206054688 808.250976562 l 2,39,40
 337.609375 897.65625 337.609375 897.65625 413.999386293 937.8828125 c 0,41,42
 468.865527176 970 468.865527176 970 538.684707904 970 c 0,43,44
 667.371654393 970 667.371654393 970 745.1484375 853.794921875 c 0,26,27
EndSplineSet
Substitution2: "Podtablica 'smcp' Tekstowe na kapitaliki w tablicy 1" Thorn.c2sc
EndChar

StartChar: dcroat
Encoding: 273 273 139
Width: 1123
GlyphClass: 2
Flags: W
LayerCount: 2
Fore
SplineSet
791.865545629 50 m 1,0,-1
 908 50 l 1,1,2
 908 691.5 908 691.5 908 1283 c 1,3,-1
 1096 1283 l 1,4,5
 1096 1358.5 1096 1358.5 1096 1384 c 1,6,-1
 908 1384 l 1,7,8
 908 1485 908 1485 908 1536 c 1,9,-1
 779.90283835 1536 l 1,10,11
 779.90283835 1485 779.90283835 1485 779.90283835 1384 c 1,12,-1
 539.49617502 1384 l 1,13,14
 539.49617502 1358.5 539.49617502 1358.5 539.49617502 1283 c 1,15,-1
 779.90283835 1283 l 1,16,17
 779.90283835 1131.11328125 779.90283835 1131.11328125 779.90283835 929.2265625 c 1,18,19
 759.860946144 980.00390625 759.860946144 980.00390625 739.818164649 980.780273438 c 2,20,21
 645.565157183 1102 645.565157183 1102 482.896526825 1102 c 0,22,23
 318.211914062 1102 318.211914062 1102 207.733398438 960.157226562 c 0,24,25
 95 815.41796875 95 815.41796875 95 575 c 2,26,27
 95 593 95 593 95 561 c 2,28,29
 95 321.5 95 321.5 208.32421875 174.2265625 c 0,30,31
 319.303710938 30 319.303710938 30 481.215771788 30 c 0,32,33
 650.720361918 30 650.720361918 30 744.956472905 156.791015625 c 2,34,35
 762.929880341 205.973632812 762.929880341 205.973632812 780.903287777 205.157226562 c 1,36,37
 786.383972059 152.578125 786.383972059 152.578125 791.865545629 50 c 1,0,-1
310.802734375 226.271484375 m 0,38,39
 230 336.84375 230 336.84375 230 529 c 0,40,41
 230 743.09375 230 743.09375 310.735351562 854.635742188 c 0,42,43
 389.458107514 970 389.458107514 970 524.926074212 970 c 0,44,45
 600.045152907 970 600.045152907 970 658.517642429 937.033203125 c 0,46,47
 731.803897774 895.713867188 731.803897774 895.713867188 777.162051565 803.89453125 c 2,48,-1
 779.90283835 798.346679688 l 1,49,-1
 779.90283835 288.9609375 l 1,50,-1
 777.409273734 283.620117188 l 2,51,52
 733.128048171 188.767578125 733.128048171 188.767578125 659.036986842 146.05859375 c 0,53,54
 599.951777627 112 599.951777627 112 523.104811611 112 c 0,55,56
 389.523025566 112 389.523025566 112 310.802734375 226.271484375 c 0,38,39
EndSplineSet
Substitution2: "Podtablica 'smcp' Tekstowe na kapitaliki w tablicy 1" Dcroat.c2sc
EndChar

StartChar: Hbar
Encoding: 294 294 140
Width: 1334
GlyphClass: 2
Flags: W
LayerCount: 2
Fore
SplineSet
1316 1141 m 1,0,-1
 1182 1141 l 1,1,-1
 1182 1431 l 1,2,-1
 1040.84747126 1431 l 1,3,-1
 1040.84747126 1141 l 1,4,-1
 304.152528741 1141 l 1,5,-1
 304.152528741 1431 l 1,6,-1
 163 1431 l 1,7,-1
 163 1141 l 1,8,-1
 29 1141 l 1,9,-1
 29 1049 l 1,10,-1
 163 1049 l 1,11,-1
 163 25 l 1,12,-1
 304.152528741 25 l 1,13,-1
 304.152528741 698 l 1,14,-1
 1040.84747126 698 l 1,15,-1
 1040.84747126 25 l 1,16,-1
 1182 25 l 1,17,-1
 1182 1049 l 1,18,-1
 1316 1049 l 1,19,-1
 1316 1141 l 1,0,-1
1040.84747126 805 m 1,20,-1
 304.152528741 805 l 1,21,-1
 304.152528741 1049 l 1,22,-1
 1040.84747126 1049 l 1,23,-1
 1040.84747126 805 l 1,20,-1
EndSplineSet
Substitution2: "Podtablica 'c2sc' Wersaliki na kapitaliki w tablicy 0" Hbar.c2sc
Position2: "Podtablica 'cpsp' +AVoA-wiat+AUIA-o wersalikowe w tablicy 0" dx=36 dy=0 dh=72 dv=0
EndChar

StartChar: dotlessi
Encoding: 305 305 141
Width: 456
GlyphClass: 2
Flags: W
LayerCount: 2
Fore
SplineSet
155 1057 m 1,0,-1
 155 25 l 1,1,-1
 291 25 l 1,2,-1
 291 1057 l 1,3,-1
 155 1057 l 1,0,-1
EndSplineSet
Substitution2: "Podtablica 'smcp' Tekstowe na kapitaliki w tablicy 1" I.c2sc
EndChar

StartChar: kgreenlandic
Encoding: 312 312 142
Width: 1039
GlyphClass: 2
Flags: W
LayerCount: 2
Fore
SplineSet
290 486 m 1,0,-1
 428.63443908 486 l 1,1,-1
 790.271484375 25 l 1,2,-1
 956.865234375 25 l 1,3,-1
 521.364646975 556.857421875 l 1,4,-1
 921.493164062 1057 l 1,5,-1
 764.408203125 1057 l 1,6,-1
 414.966189028 599 l 1,7,-1
 290 599 l 1,8,-1
 290 1057 l 1,9,-1
 154 1057 l 1,10,-1
 154 25 l 1,11,-1
 290 25 l 1,12,-1
 290 486 l 1,0,-1
EndSplineSet
EndChar

StartChar: Lslash
Encoding: 321 321 143
Width: 1003
GlyphClass: 2
Flags: W
LayerCount: 2
Fore
SplineSet
543.058635484 892.765625 m 1,0,-1
 307.714898629 808.765625 l 1,1,-1
 307.714898629 1431 l 1,2,-1
 168 1431 l 1,3,-1
 168 763.631835938 l 1,4,-1
 34 721.631835938 l 1,5,-1
 34 649.040039062 l 1,6,-1
 168 691.040039062 l 1,7,-1
 168 25 l 1,8,-1
 951 25 l 1,9,-1
 951 132 l 1,10,-1
 307.714898629 132 l 1,11,-1
 307.714898629 736.264648438 l 1,12,-1
 543.058635484 820.264648438 l 1,13,-1
 543.058635484 892.765625 l 1,0,-1
EndSplineSet
Substitution2: "Podtablica 'c2sc' Wersaliki na kapitaliki w tablicy 0" Lslash.c2sc
Position2: "Podtablica 'cpsp' +AVoA-wiat+AUIA-o wersalikowe w tablicy 0" dx=36 dy=0 dh=72 dv=0
EndChar

StartChar: lslash
Encoding: 322 322 144
Width: 503
GlyphClass: 2
Flags: W
LayerCount: 2
Fore
SplineSet
472 918.544921875 m 1,0,1
 393 913.044921875 393 913.044921875 314 857.544921875 c 1,2,3
 314 1221.77246094 314 1221.77246094 314 1536 c 1,4,-1
 178 1536 l 1,5,6
 178 1195.89160156 178 1195.89160156 178 805.782226562 c 1,7,8
 106 803.282226562 106 803.282226562 34 750.782226562 c 1,9,10
 34 741.048828125 34 741.048828125 34 681.314453125 c 1,11,12
 106 733.814453125 106 733.814453125 178 736.314453125 c 1,13,14
 178 418.157226562 178 418.157226562 178 50 c 1,15,-1
 314 50 l 1,16,17
 314 444.075195312 314 444.075195312 314 788.151367188 c 1,18,19
 393 843.651367188 393 843.651367188 472 849.151367188 c 1,20,21
 472 908.84765625 472 908.84765625 472 918.544921875 c 1,0,1
EndSplineSet
Substitution2: "Podtablica 'smcp' Tekstowe na kapitaliki w tablicy 1" Lslash.c2sc
EndChar

StartChar: Eng
Encoding: 330 330 145
Width: 1319
GlyphClass: 2
Flags: W
LayerCount: 2
Fore
SplineSet
787.615997912 -425.908203125 m 1,0,1
 825.744221814 -437 825.744221814 -437 868.008192634 -437 c 0,2,3
 1008.03027344 -437 1008.03027344 -437 1086.515625 -351.630859375 c 128,-1,4
 1165 -266.26171875 1165 -266.26171875 1165 -108 c 2,5,6
 1165 624 1165 624 1165 1406 c 1,7,-1
 1021 1406 l 1,8,9
 1021 786.534179688 1021 786.534179688 1021 217.067382812 c 1,10,11
 667.722038046 786.534179688 667.722038046 786.534179688 315.26953125 1406 c 1,12,-1
 162 1406 l 1,13,14
 162 678 162 678 162 0 c 1,15,-1
 304 0 l 1,16,17
 304 570.530273438 304 570.530273438 304 1191.06054688 c 1,18,19
 662.589050367 561.661132812 662.589050367 561.661132812 1021 -17.7392578125 c 1,20,21
 1021 -81.8701171875 1021 -81.8701171875 1021 -96 c 2,22,23
 1021 -268.075195312 1021 -268.075195312 930.05078125 -313.681640625 c 0,24,25
 901.259633441 -329 901.259633441 -329 863.409854105 -329 c 128,-1,26
 825.55918517 -329 825.55918517 -329 796.197961888 -322.27734375 c 1,27,28
 791.9074247 -399.092773438 791.9074247 -399.092773438 787.615997912 -425.908203125 c 1,0,1
EndSplineSet
Substitution2: "Podtablica 'c2sc' Wersaliki na kapitaliki w tablicy 0" Eng.c2sc
Position2: "Podtablica 'cpsp' +AVoA-wiat+AUIA-o wersalikowe w tablicy 0" dx=36 dy=0 dh=72 dv=0
EndChar

StartChar: eng
Encoding: 331 331 146
Width: 1060
GlyphClass: 2
Flags: W
LayerCount: 2
Fore
SplineSet
908 665.874023438 m 1,0,1
 904.140625 1052 904.140625 1052 582.657210402 1052 c 0,2,3
 422.527187855 1052 422.527187855 1052 319.81640625 889.158203125 c 2,4,5
 299.9609375 834.375976562 299.9609375 834.375976562 280.106445312 829.592773438 c 1,6,7
 271.563476562 905.796875 271.563476562 905.796875 263.020507812 1032 c 1,8,-1
 145 1032 l 1,9,10
 145 491 145 491 145 0 c 1,11,-1
 281 0 l 1,12,13
 281 372.006835938 281 372.006835938 281 794.012695312 c 1,14,15
 282.81640625 771.995117188 282.81640625 771.995117188 284.631835938 799.977539062 c 2,16,17
 372.954101562 945 372.954101562 945 535.366927958 945 c 0,18,19
 650.556997738 945 650.556997738 945 710.703125 873.162109375 c 0,20,21
 773 801.323242188 773 801.323242188 773 653 c 2,22,23
 773 248.5 773 248.5 773 -106 c 2,24,25
 773 -268.057617188 773 -268.057617188 680.807617188 -310.861328125 c 0,26,27
 652.203053189 -325 652.203053189 -325 615.811703027 -325 c 128,-1,28
 579.421177542 -325 579.421177542 -325 552.474029294 -318.876953125 c 1,29,30
 548.444657084 -397.387695312 548.444657084 -397.387695312 544.415284874 -425.8984375 c 1,31,32
 580.123802414 -437 580.123802414 -437 618.969391564 -437 c 0,33,34
 754.934570312 -437 754.934570312 -437 831.467773438 -352.676757812 c 128,-1,35
 908 -268.353515625 908 -268.353515625 908 -114 c 2,36,37
 908 250.936523438 908 250.936523438 908 665.874023438 c 1,0,1
EndSplineSet
Substitution2: "Podtablica 'smcp' Tekstowe na kapitaliki w tablicy 1" Eng.c2sc
EndChar

StartChar: OE
Encoding: 338 338 147
Width: 1853
GlyphClass: 2
Flags: W
LayerCount: 2
Fore
SplineSet
1691 1323 m 1,0,-1
 1691 1431 l 1,1,-1
 901.559155239 1431 l 1,2,3
 738.915405455 1451 738.915405455 1451 621.700349638 1451 c 0,4,5
 473.283256438 1451 473.283256438 1451 357.580839815 1379.10546875 c 0,6,7
 236.998046875 1307.20996094 236.998046875 1307.20996094 170.499023438 1176.60351562 c 128,-1,8
 104 1045.99707031 104 1045.99707031 104 880 c 2,9,-1
 104 571 l 2,10,11
 104.963867188 406.149414062 104.963867188 406.149414062 171.9375 276.5078125 c 128,-1,12
 238.911132812 146.866210938 238.911132812 146.866210938 359.433565894 75.4326171875 c 0,13,14
 475.159340132 4 475.159340132 4 623.613805518 4 c 0,15,16
 731.257844717 4 731.257844717 4 901.55541802 25 c 1,17,-1
 1701 25 l 1,18,-1
 1701 132 l 1,19,-1
 989.083878561 132 l 1,20,-1
 989.083878561 698 l 1,21,-1
 1599 698 l 1,22,-1
 1599 805 l 1,23,-1
 989.083878561 805 l 1,24,-1
 989.083878561 1323 l 1,25,-1
 1691 1323 l 1,0,-1
832.586918931 119.233398438 m 2,26,27
 733.375913311 105 733.375913311 105 623.613805518 105 c 0,28,29
 444.001215066 105 444.001215066 105 344.131835938 230.4921875 c 0,30,31
 240 355.984375 240 355.984375 240 576 c 2,32,-1
 240 889.24609375 l 1,33,34
 242.086914062 1105.26367188 242.086914062 1105.26367188 345.752929688 1227.63183594 c 0,35,36
 445.107431746 1350 445.107431746 1350 621.700349638 1350 c 0,37,38
 726.683489255 1350 726.683489255 1350 832.595327672 1334.765625 c 2,39,-1
 853.228511095 1331.79785156 l 1,40,-1
 853.228511095 122.194335938 l 1,41,-1
 832.586918931 119.233398438 l 2,26,27
EndSplineSet
Substitution2: "Podtablica 'c2sc' Wersaliki na kapitaliki w tablicy 0" OE.c2sc
Position2: "Podtablica 'cpsp' +AVoA-wiat+AUIA-o wersalikowe w tablicy 0" dx=36 dy=0 dh=72 dv=0
EndChar

StartChar: oe
Encoding: 339 339 148
Width: 1760
GlyphClass: 2
Flags: W
LayerCount: 2
Fore
SplineSet
154.720703125 826.508789062 m 128,-1,1
 97 705.342773438 97 705.342773438 97 551 c 2,2,-1
 97 538 l 2,3,4
 97 293.333007812 97 293.333007812 222.197265625 149.166992188 c 0,5,6
 347.193637812 5 347.193637812 5 546.756666782 5 c 0,7,8
 668.629950204 5 668.629950204 5 758.350727188 58.255859375 c 128,-1,9
 848.261153138 111.623046875 848.261153138 111.623046875 904.350535445 205.243164062 c 2,10,-1
 924.573841664 238.999023438 l 1,11,-1
 944.884965631 205.299804688 l 2,12,13
 1001.82263001 110.826171875 1001.82263001 110.826171875 1094.40215495 57.955078125 c 128,-1,14
 1187.12741999 5 1187.12741999 5 1310.16568991 5 c 0,15,16
 1526.22558594 5 1526.22558594 5 1654.21582031 116.751953125 c 1,17,-1
 1605.40039062 199.87109375 l 1,18,19
 1483.70898438 105 1483.70898438 105 1310.16568991 105 c 0,20,21
 1170.76996313 105 1170.76996313 105 1085.1411195 212.520507812 c 0,22,23
 1001.51993905 317.51953125 1001.51993905 317.51953125 994.490782309 495.956054688 c 2,24,-1
 993.464996278 522 l 1,25,-1
 1692 522 l 1,26,-1
 1692 613 l 2,27,28
 1692 838.24609375 1692 838.24609375 1582.0234375 957.623046875 c 128,-1,29
 1472.04589844 1077 1472.04589844 1077 1283.3794084 1077 c 0,30,31
 1182.73279568 1077 1182.73279568 1077 1094.26669141 1022.7421875 c 128,-1,32
 1005.80058714 968.484375 1005.80058714 968.484375 946.731941027 871.590820312 c 2,33,-1
 926.10411263 837.754882812 l 1,34,-1
 906.115298481 872.0078125 l 2,35,36
 850.928383667 966.577148438 850.928383667 966.577148438 760.189294502 1021.78808594 c 128,-1,37
 669.450205337 1077 669.450205337 1077 542.656325349 1077 c 128,-1,38
 415.861511131 1077 415.861511131 1077 315.732421875 1012.29003906 c 0,39,0
 212.44140625 947.673828125 212.44140625 947.673828125 154.720703125 826.508789062 c 128,-1,1
316.8984375 223.140625 m 0,40,41
 232 337.75390625 232 337.75390625 232 529 c 0,42,43
 232 744.390625 232 744.390625 318.055664062 858.068359375 c 0,44,45
 403.808058143 975 403.808058143 975 546.350276141 975 c 128,-1,46
 688.893428371 975 688.893428371 975 773.091029564 856.375 c 0,47,48
 854.798904186 741.256835938 854.798904186 741.256835938 854.798904186 551 c 0,49,50
 854.798904186 336.723632812 854.798904186 336.723632812 773.54880293 222.595703125 c 0,51,52
 689.828593961 105 689.828593961 105 545.783197707 105 c 128,-1,53
 401.737801452 105 401.737801452 105 316.8984375 223.140625 c 0,40,41
1100.43448684 886.684570312 m 128,-1,55
 1178.18402319 975 1178.18402319 975 1283.3794084 975 c 0,56,57
 1406.80538434 975 1406.80538434 975 1480.50878906 892.345703125 c 0,58,59
 1556 809.69140625 1556 809.69140625 1556 675 c 2,60,-1
 1556 649 l 1,61,-1
 1556 624 l 1,62,-1
 996.092054858 624 l 1,63,-1
 1000.50910072 652.959960938 l 2,64,54
 1022.68495048 798.368164062 1022.68495048 798.368164062 1100.43448684 886.684570312 c 128,-1,55
EndSplineSet
Substitution2: "Podtablica 'smcp' Tekstowe na kapitaliki w tablicy 1" OE.c2sc
EndChar

StartChar: longs
Encoding: 383 383 149
Width: 458
GlyphClass: 2
Flags: W
LayerCount: 2
Fore
SplineSet
588.600585938 1542.04296875 m 1,0,1
 521.884765625 1557 521.884765625 1557 474 1557 c 0,2,3
 322.9140625 1557 322.9140625 1557 241.927734375 1469.57226562 c 128,-1,4
 160.942382812 1382.14453125 160.942382812 1382.14453125 160 1222.84960938 c 0,5,6
 160 636.424804688 160 636.424804688 160 50 c 1,7,-1
 295 50 l 1,8,9
 295 654.5 295 654.5 295 1209 c 2,10,11
 295 1314.74902344 295 1314.74902344 335.291992188 1375.57128906 c 0,12,13
 387.909179688 1455 387.909179688 1455 503 1455 c 0,14,15
 541.052734375 1455 541.052734375 1455 573.5625 1449.19921875 c 1,16,17
 581.08203125 1520.62109375 581.08203125 1520.62109375 588.600585938 1542.04296875 c 1,0,1
EndSplineSet
EndChar

StartChar: uni018F
Encoding: 399 399 150
Width: 1315
GlyphClass: 2
Flags: W
LayerCount: 2
Fore
SplineSet
1122.76367188 333.944335938 m 128,-1,1
 1198 488.758789062 1198 488.758789062 1198 680 c 2,2,-1
 1198 764 l 2,3,4
 1198 1089.06835938 1198 1089.06835938 1027.11425781 1270.03417969 c 0,5,6
 863.464865357 1451 863.464865357 1451 594.182492313 1451 c 0,7,8
 385.859524955 1451 385.859524955 1451 237.4140625 1366.296875 c 1,9,-1
 233.032226562 1363.70800781 l 1,10,-1
 265.250976562 1265.68066406 l 1,11,-1
 301.215820312 1281.00976562 l 1,12,13
 436.980185502 1341 436.980185502 1341 594.182492313 1341 c 0,14,15
 809.137763549 1341 809.137763549 1341 928.196873575 1191.12890625 c 0,16,17
 1055 1041.2578125 1055 1041.2578125 1055 774 c 2,18,-1
 1055 767 l 1,19,-1
 1055 742 l 1,20,-1
 93 742 l 1,21,-1
 93 650 l 2,22,23
 93 334.779296875 93 334.779296875 245.463867188 169.889648438 c 0,24,25
 393.467937817 5 393.467937817 5 646.886959667 5 c 0,26,27
 794.41034677 5 794.41034677 5 917.378407577 92.0654296875 c 0,28,0
 1047.52636719 179.130859375 1047.52636719 179.130859375 1122.76367188 333.944335938 c 128,-1,1
347.803013149 234.607421875 m 0,29,30
 236 356.213867188 236 356.213867188 236 584 c 2,31,-1
 236 618 l 1,32,-1
 236 643 l 1,33,-1
 1054.77148438 643 l 1,34,-1
 1052.94140625 616.26953125 l 2,35,36
 1037.37988281 389.083984375 1037.37988281 389.083984375 922.397106686 251.041992188 c 0,37,38
 813.831393985 113 813.831393985 113 646.886959667 113 c 0,39,40
 451.8620099 113 451.8620099 113 347.803013149 234.607421875 c 0,29,30
EndSplineSet
EndChar

StartChar: florin
Encoding: 402 402 151
Width: 597
GlyphClass: 1
Flags: W
LayerCount: 2
Fore
SplineSet
-28 -426.295898438 m 1,0,1
 10.62109375 -437 10.62109375 -437 56.19921875 -437 c 0,2,3
 199.21875 -437 199.21875 -437 260.111884576 -353.135742188 c 0,4,5
 315.898679754 -269.271484375 315.898679754 -269.271484375 315.898679754 -112 c 2,6,7
 315.898679754 429.024414062 315.898679754 429.024414062 315.898679754 979.705078125 c 1,8,-1
 506.19921875 979.705078125 l 1,9,10
 506.19921875 1046.18945312 506.19921875 1046.18945312 506.19921875 1076.30664062 c 1,11,-1
 315.898679754 1076.30664062 l 1,12,13
 315.898679754 1175.66503906 315.898679754 1175.66503906 315.898679754 1229 c 2,14,15
 315.898679754 1229.39160156 315.898679754 1229.39160156 315.902925432 1229.52148438 c 0,16,17
 317.306829661 1323.97265625 317.306829661 1323.97265625 345.796745025 1378.42675781 c 0,18,19
 395.41796875 1449 395.41796875 1449 503.19921875 1449 c 0,20,21
 547.444335938 1449 547.444335938 1449 580.37890625 1443.8046875 c 1,22,23
 587.725585938 1517.89355469 587.725585938 1517.89355469 595.071289062 1541.98242188 c 1,24,25
 528.182617188 1557 528.182617188 1557 480.19921875 1557 c 0,26,27
 335.373605258 1557 335.373605258 1557 277.059923989 1470.54394531 c 128,-1,28
 218.745535108 1384.08691406 218.745535108 1384.08691406 217.19921875 1226.84570312 c 1,29,30
 217.19921875 1174.671875 217.19921875 1174.671875 217.19921875 1076.38964844 c 1,31,-1
 46.19921875 1076.38964844 l 1,32,33
 46.19921875 1046.35839844 46.19921875 1046.35839844 46.19921875 979.787109375 c 1,34,-1
 217.19921875 979.787109375 l 1,35,36
 217.19921875 428.108398438 217.19921875 428.108398438 217.19921875 -114 c 2,37,38
 217.19921875 -213.716796875 217.19921875 -213.716796875 177.361328125 -272.071289062 c 0,39,40
 134.400390625 -335 134.400390625 -335 56.19921875 -335 c 0,41,42
 10.11328125 -335 10.11328125 -335 -18.7744140625 -329.431640625 c 1,43,44
 -23.3876953125 -402.864257812 -23.3876953125 -402.864257812 -28 -426.295898438 c 1,0,1
EndSplineSet
EndChar

